{
.formatVersion = 3;
DisplayStrings = (
"ΡΟΝΘΓΞΠΤΑΔΛΒΕΖΗΙΚΜΣΦΨΥΧ\rβßθχγκλδζξςονøτυειη\"”“'Aρφψπσαšğÿû1+2≈=~/apple",
"♥"
);
familyName = "Phigrim Separatist";
customParameters = (
{
name = glyphOrder;
value = (
space,
A,
B,
C,
D,
E,
F,
G,
H,
I,
J,
K,
L,
M,
N,
O,
P,
Q,
R,
S,
T,
U,
V,
W,
X,
Y,
Z,
period,
a,
b,
c,
d,
e,
f,
g,
h,
i,
j,
k,
l,
m,
n,
o,
p,
q,
r,
s,
t,
u,
v,
w,
x,
y,
z,
comma,
zero,
one,
two,
three,
four,
five,
six,
seven,
eight,
nine,
hyphen,
plus,
asterisk,
asciicircum,
slash,
backslash,
colon,
semicolon,
less,
equal,
greater,
exclam,
question,
quotesingle,
quotedbl,
numbersign,
at,
dollar,
Euro,
percent,
ampersand,
parenleft,
parenright,
braceleft,
bar,
braceright,
bracketleft,
bracketright,
quoteleft,
quoteright,
quotedblleft,
quotedblright,
quotesinglbase,
quotedblbase,
bullet,
underscore,
endash,
emdash,
macron,
logicalnot,
trademark,
registered,
copyright,
currency,
cent,
sterling,
yen,
florin,
minus,
plusminus,
multiply,
divide,
brokenbar,
ellipsis,
periodcentered,
exclamdown,
questiondown,
degree,
ordfeminine,
ordmasculine,
onesuperior,
twosuperior,
threesuperior,
fraction,
onequarter,
onehalf,
threequarters,
perthousand,
mu,
paragraph,
section,
dagger,
daggerdbl,
guilsinglleft,
guilsinglright,
guillemotleft,
guillemotright,
dotaccent,
dotlessi,
circumflex,
dieresis,
fi,
fl,
Thorn,
thorn,
AE,
OE,
franc,
lira,
peseta,
pi,
oslash,
oe,
ae,
germandbls,
Rho,
Omicron,
Nu,
Theta,
Gamma,
Xi,
Pi,
notequal,
uni2015,
nbspace,
Tau,
lessequal,
greaterequal,
uni0394,
Lambda,
Beta,
Epsilon,
Zeta,
Eta,
Iota,
Kappa,
Mu,
eta,
omicron,
nu,
Sigma,
Phi,
Psi,
Upsilon,
Chi,
beta,
alpha,
rho,
phi,
sigma,
tau,
theta,
lambda,
kappa,
gamma,
iota,
epsilon,
chi,
psi,
delta,
sigma1,
upsilon,
zeta,
xi,
uni03A9,
approxequal,
ring,
Oslash,
asciitilde,
tilde,
summation,
tonos,
Alpha,
Iotadieresis,
iotadieresis,
upsilondieresis,
omicrontonos,
upsilontonos,
iotatonos,
upsilondieresistonos,
etatonos,
epsilontonos,
omega,
omegatonos,
Adieresis,
icircumflex,
idieresis,
ecircumflex,

glyphs = (
{
glyphname = A;
layers = (
{
guides = (
{
angle = 90;
position = "{60, 0}";
},
{
position = "{0, 420}";
},
{
angle = 90;
position = "{420, 0}";
},
{
position = "{0, 60}";
},
{
angle = 90;
position = "{240, 0}";
},
{
angle = 90;
position = "{210, 0}";
},
{
angle = 90;
position = "{270, 0}";
}
);
layerId = "F9FA6E1A-C3C7-41E3-A510-E095624E106C";
shapes = (
{
closed = 1;
nodes = (
(480,480,l),
(480,0,l),
(360,0,l),
(360,60,l),
(420,60,l),
(420,378,l),
(42,0,l),
(0,0,l),
(0,480,l),
(210,480,l),
(210,420,l),
(60,420,l),
(60,103,l),
(378,420,l),
(270,420,l),
(270,480,l)
);
}
);
width = 540;
}
);
unicode = 65;
},
{
glyphname = B;
layers = (
{
guides = (
{
angle = 90;
position = "{60, 0}";
},
{
position = "{0, 420}";
},
{
angle = 90;
position = "{420, 0}";
},
{
position = "{0, 60}";
},
{
angle = 90;
position = "{240, 0}";
},
{
angle = 90;
position = "{210, 0}";
},
{
angle = 90;
position = "{270, 0}";
},
{
position = "{0, 240}";
},
{
position = "{0, 270}";
},
{
position = "{0, 210}";
}
);
layerId = "F9FA6E1A-C3C7-41E3-A510-E095624E106C";
shapes = (
{
closed = 1;
nodes = (
(420,270,l),
(420,420,l),
(270,420,l),
(270,480,l),
(480,480,l),
(480,270,l)
);
},
{
closed = 1;
nodes = (
(60,270,l),
(420,270,l),
(420,210,l),
(60,210,l),
(60,60,l),
(210,60,l),
(210,0,l),
(0,0,l),
(0,480,l),
(210,480,l),
(210,420,l),
(60,420,l)
);
},
{
closed = 1;
nodes = (
(420,210,l),
(480,210,l),
(480,0,l),
(270,0,l),
(270,60,l),
(420,60,l)
);
}
);
width = 540;
}
);
unicode = 66;
},
{
glyphname = C;
layers = (
{
guides = (
{
angle = 90;
position = "{60, 0}";
},
{
position = "{0, 420}";
},
{
angle = 90;
position = "{420, 0}";
},
{
position = "{0, 60}";
},
{
angle = 90;
position = "{240, 0}";
},
{
angle = 90;
position = "{210, 0}";
},
{
angle = 90;
position = "{270, 0}";
},
{
position = "{0, 240}";
},
{
position = "{0, 270}";
},
{
position = "{0, 210}";
}
);
layerId = "F9FA6E1A-C3C7-41E3-A510-E095624E106C";
shapes = (
{
closed = 1;
nodes = (
(270,420,l),
(270,480,l),
(480,480,l),
(480,300,l),
(420,300,l),
(420,420,l)
);
},
{
closed = 1;
nodes = (
(420,180,l),
(480,180,l),
(480,0,l),
(270,0,l),
(270,60,l),
(420,60,l)
);
},
{
closed = 1;
nodes = (
(60,420,l),
(210,420,l),
(210,480,l),
(0,480,l),
(0,0,l),
(210,0,l),
(210,60,l),
(60,60,l)
);
}
);
width = 540;
}
);
unicode = 67;
},
{
glyphname = D;
layers = (
{
guides = (
{
angle = 90;
position = "{60, 0}";
},
{
position = "{0, 420}";
},
{
angle = 90;
position = "{420, 0}";
},
{
position = "{0, 60}";
},
{
angle = 90;
position = "{240, 0}";
},
{
angle = 90;
position = "{210, 0}";
},
{
angle = 90;
position = "{270, 0}";
},
{
position = "{0, 240}";
},
{
position = "{0, 270}";
},
{
position = "{0, 210}";
}
);
layerId = "F9FA6E1A-C3C7-41E3-A510-E095624E106C";
shapes = (
{
closed = 1;
nodes = (
(270,420,l),
(270,480,l),
(420,480,l),
(420,420,l)
);
},
{
closed = 1;
nodes = (
(420,420,l),
(480,420,l),
(480,0,l),
(270,0,l),
(270,60,l),
(420,60,l)
);
},
{
closed = 1;
nodes = (
(60,420,l),
(210,420,l),
(210,480,l),
(0,480,l),
(0,0,l),
(210,0,l),
(210,60,l),
(60,60,l)
);
}
);
width = 540;
}
);
unicode = 68;
},
{
glyphname = E;
layers = (
{
guides = (
{
angle = 90;
position = "{60, 0}";
},
{
position = "{0, 420}";
},
{
angle = 90;
position = "{420, 0}";
},
{
position = "{0, 60}";
},
{
angle = 90;
position = "{240, 0}";
},
{
angle = 90;
position = "{210, 0}";
},
{
angle = 90;
position = "{270, 0}";
},
{
position = "{0, 240}";
},
{
position = "{0, 270}";
},
{
position = "{0, 210}";
}
);
layerId = "F9FA6E1A-C3C7-41E3-A510-E095624E106C";
shapes = (
{
closed = 1;
nodes = (
(480,360,l),
(420,360,l),
(420,420,l),
(270,420,l),
(270,480,l),
(480,480,l)
);
},
{
closed = 1;
nodes = (
(0,480,l),
(210,480,l),
(210,420,l),
(60,420,l),
(60,270,l),
(420,270,l),
(420,210,l),
(60,210,l),
(60,60,l),
(210,60,l),
(210,0,l),
(0,0,l)
);
},
{
closed = 1;
nodes = (
(480,120,l),
(480,0,l),
(270,0,l),
(270,60,l),
(420,60,l),
(420,120,l)
);
}
);
width = 540;
}
);
unicode = 69;
},
{
glyphname = F;
layers = (
{
guides = (
{
angle = 90;
position = "{60, 0}";
},
{
position = "{0, 420}";
},
{
angle = 90;
position = "{420, 0}";
},
{
position = "{0, 60}";
},
{
angle = 90;
position = "{240, 0}";
},
{
angle = 90;
position = "{210, 0}";
},
{
angle = 90;
position = "{270, 0}";
},
{
position = "{0, 240}";
},
{
position = "{0, 270}";
},
{
position = "{0, 210}";
}
);
layerId = "F9FA6E1A-C3C7-41E3-A510-E095624E106C";
shapes = (
{
closed = 1;
nodes = (
(480,360,l),
(420,360,l),
(420,420,l),
(270,420,l),
(270,480,l),
(480,480,l)
);
},
{
closed = 1;
nodes = (
(0,480,l),
(210,480,l),
(210,420,l),
(60,420,l),
(60,270,l),
(270,270,l),
(270,210,l),
(60,210,l),
(60,60,l),
(120,60,l),
(120,0,l),
(0,0,l)
);
}
);
width = 540;
}
);
unicode = 70;
},
{
glyphname = G;
layers = (
{
guides = (
{
angle = 90;
position = "{60, 0}";
},
{
position = "{0, 420}";
},
{
angle = 90;
position = "{420, 0}";
},
{
position = "{0, 60}";
},
{
angle = 90;
position = "{240, 0}";
},
{
angle = 90;
position = "{210, 0}";
},
{
angle = 90;
position = "{270, 0}";
},
{
position = "{0, 240}";
},
{
position = "{0, 270}";
},
{
position = "{0, 210}";
}
);
layerId = "F9FA6E1A-C3C7-41E3-A510-E095624E106C";
shapes = (
{
closed = 1;
nodes = (
(270,420,l),
(270,480,l),
(480,480,l),
(480,360,l),
(420,360,l),
(420,420,l)
);
},
{
closed = 1;
nodes = (
(270,270,l),
(270,210,l),
(420,210,l),
(420,60,l),
(270,60,l),
(270,0,l),
(480,0,l),
(480,270,l)
);
},
{
closed = 1;
nodes = (
(60,420,l),
(60,60,l),
(210,60,l),
(210,0,l),
(0,0,l),
(0,480,l),
(210,480,l),
(210,420,l)
);
}
);
width = 540;
}
);
unicode = 71;
},
{
glyphname = H;
layers = (
{
guides = (
{
angle = 90;
position = "{60, 0}";
},
{
position = "{0, 420}";
},
{
angle = 90;
position = "{420, 0}";
},
{
position = "{0, 60}";
},
{
angle = 90;
position = "{240, 0}";
},
{
angle = 90;
position = "{210, 0}";
},
{
angle = 90;
position = "{270, 0}";
},
{
position = "{0, 240}";
},
{
position = "{0, 270}";
},
{
position = "{0, 210}";
}
);
layerId = "F9FA6E1A-C3C7-41E3-A510-E095624E106C";
shapes = (
{
closed = 1;
nodes = (
(420,210,l),
(60,210,l),
(60,60,l),
(120,60,l),
(120,0,l),
(0,0,l),
(0,480,l),
(120,480,l),
(120,420,l),
(60,420,l),
(60,270,l),
(420,270,l),
(420,420,l),
(360,420,l),
(360,480,l),
(480,480,l),
(480,0,l),
(360,0,l),
(360,60,l),
(420,60,l)
);
}
);
width = 540;
}
);
unicode = 72;
},
{
glyphname = I;
layers = (
{
guides = (
{
position = "{0, 420}";
},
{
position = "{0, 60}";
},
{
angle = 90;
position = "{480, 0}";
},
{
angle = 90;
position = "{240, 0}";
},
{
angle = 90;
position = "{210, 0}";
},
{
angle = 90;
position = "{270, 0}";
}
);
layerId = "F9FA6E1A-C3C7-41E3-A510-E095624E106C";
shapes = (
{
closed = 1;
nodes = (
(0,0,l),
(480,0,l),
(480,120,l),
(420,120,l),
(420,60,l),
(270,60,l),
(270,420,l),
(420,420,l),
(420,360,l),
(480,360,l),
(480,480,l),
(0,480,l),
(0,360,l),
(60,360,l),
(60,420,l),
(210,420,l),
(210,60,l),
(60,60,l),
(60,120,l),
(0,120,l)
);
}
);
width = 540;
}
);
unicode = 73;
},
{
glyphname = J;
layers = (
{
guides = (
{
position = "{0, 420}";
},
{
position = "{0, 60}";
},
{
angle = 90;
position = "{480, 0}";
},
{
angle = 90;
position = "{240, 0}";
},
{
angle = 90;
position = "{210, 0}";
},
{
angle = 90;
position = "{270, 0}";
}
);
layerId = "F9FA6E1A-C3C7-41E3-A510-E095624E106C";
shapes = (
{
closed = 1;
nodes = (
(210,60,l),
(60,60,l),
(60,180,l),
(0,180,l),
(0,0,l),
(210,0,l)
);
},
{
closed = 1;
nodes = (
(270,0,l),
(480,0,l),
(480,480,l),
(210,480,l),
(210,360,l),
(270,360,l),
(270,420,l),
(420,420,l),
(420,60,l),
(270,60,l)
);
}
);
width = 540;
}
);
unicode = 74;
},
{
glyphname = K;
layers = (
{
guides = (
{
angle = 90;
position = "{60, 0}";
},
{
position = "{0, 420}";
},
{
angle = 90;
position = "{420, 0}";
},
{
position = "{0, 60}";
},
{
angle = 90;
position = "{240, 0}";
},
{
angle = 90;
position = "{210, 0}";
},
{
angle = 90;
position = "{270, 0}";
},
{
position = "{0, 240}";
},
{
position = "{0, 270}";
},
{
position = "{0, 210}";
}
);
layerId = "F9FA6E1A-C3C7-41E3-A510-E095624E106C";
shapes = (
{
closed = 1;
nodes = (
(420,270,l),
(420,420,l),
(360,420,l),
(360,480,l),
(480,480,l),
(480,270,l)
);
},
{
closed = 1;
nodes = (
(60,270,l),
(420,270,l),
(420,210,l),
(60,210,l),
(60,60,l),
(120,60,l),
(120,0,l),
(0,0,l),
(0,480,l),
(120,480,l),
(120,420,l),
(60,420,l)
);
},
{
closed = 1;
nodes = (
(420,210,l),
(480,210,l),
(480,0,l),
(360,0,l),
(360,60,l),
(420,60,l)
);
}
);
width = 540;
}
);
unicode = 75;
},
{
glyphname = L;
layers = (
{
guides = (
{
position = "{0, 420}";
},
{
position = "{0, 60}";
},
{
angle = 90;
position = "{480, 0}";
},
{
angle = 90;
position = "{240, 0}";
},
{
angle = 90;
position = "{209, 0}";
},
{
angle = 90;
position = "{270, 0}";
}
);
layerId = "F9FA6E1A-C3C7-41E3-A510-E095624E106C";
shapes = (
{
closed = 1;
nodes = (
(270,60,l),
(420,60,l),
(420,180,l),
(480,180,l),
(480,0,l),
(270,0,l)
);
},
{
closed = 1;
nodes = (
(209,0,l),
(0,0,l),
(0,480,l),
(120,480,l),
(120,420,l),
(60,420,l),
(60,60,l),
(209,60,l)
);
}
);
width = 540;
}
);
unicode = 76;
},
{
glyphname = M;
layers = (
{
guides = (
{
angle = 90;
position = "{60, 0}";
},
{
position = "{0, 420}";
},
{
angle = 90;
position = "{420, 0}";
},
{
position = "{0, 60}";
},
{
angle = 90;
position = "{240, 0}";
},
{
angle = 90;
position = "{210, 0}";
},
{
angle = 90;
position = "{270, 0}";
}
);
layerId = "F9FA6E1A-C3C7-41E3-A510-E095624E106C";
shapes = (
{
closed = 1;
nodes = (
(438,480,l),
(240,282,l),
(42,480,l),
(0,480,l),
(0,1,l),
(120,1,l),
(120,61,l),
(60,61,l),
(60,377,l),
(240,198,l),
(420,378,l),
(420,60,l),
(360,60,l),
(360,0,l),
(480,0,l),
(480,479,l)
);
}
);
width = 540;
}
);
unicode = 77;
},
{
glyphname = N;
layers = (
{
guides = (
{
angle = 90;
position = "{60, 0}";
},
{
position = "{0, 420}";
},
{
angle = 90;
position = "{420, 0}";
},
{
position = "{0, 60}";
},
{
angle = 90;
position = "{240, 0}";
},
{
angle = 90;
position = "{210, 0}";
},
{
angle = 90;
position = "{270, 0}";
}
);
layerId = "F9FA6E1A-C3C7-41E3-A510-E095624E106C";
shapes = (
{
closed = 1;
nodes = (
(420,103,l),
(420,420,l),
(360,420,l),
(360,480,l),
(480,480,l),
(480,0,l),
(438,0,l),
(60,378,l),
(60,60,l),
(120,60,l),
(120,0,l),
(0,0,l),
(0,480,l),
(42,480,l)
);
}
);
width = 540;
}
);
unicode = 78;
},
{
glyphname = O;
layers = (
{
guides = (
{
angle = 90;
position = "{60, 0}";
},
{
position = "{0, 420}";
},
{
angle = 90;
position = "{420, 0}";
},
{
position = "{0, 60}";
},
{
angle = 90;
position = "{240, 0}";
},
{
angle = 90;
position = "{210, 0}";
},
{
angle = 90;
position = "{270, 0}";
}
);
layerId = "F9FA6E1A-C3C7-41E3-A510-E095624E106C";
shapes = (
{
closed = 1;
nodes = (
(210,420,l),
(210,480,l),
(0,480,l),
(0,0,l),
(210,0,l),
(210,60,l),
(60,60,l),
(60,420,l)
);
},
{
closed = 1;
nodes = (
(270,0,l),
(480,0,l),
(480,480,l),
(270,480,l),
(270,420,l),
(420,420,l),
(420,60,l),
(270,60,l)
);
}
);
width = 540;
}
);
unicode = 79;
},
{
glyphname = P;
layers = (
{
guides = (
{
angle = 90;
position = "{60, 0}";
},
{
position = "{0, 420}";
},
{
angle = 90;
position = "{420, 0}";
},
{
position = "{0, 60}";
},
{
angle = 90;
position = "{240, 0}";
},
{
angle = 90;
position = "{210, 0}";
},
{
angle = 90;
position = "{270, 0}";
},
{
position = "{0, 240}";
},
{
position = "{0, 270}";
},
{
position = "{0, 210}";
}
);
layerId = "F9FA6E1A-C3C7-41E3-A510-E095624E106C";
shapes = (
{
closed = 1;
nodes = (
(60,270,l),
(420,270,l),
(420,210,l),
(60,210,l),
(60,60,l),
(120,60,l),
(120,0,l),
(0,0,l),
(0,480,l),
(210,480,l),
(210,420,l),
(60,420,l)
);
},
{
closed = 1;
nodes = (
(420,270,l),
(480,270,l),
(480,480,l),
(270,480,l),
(270,420,l),
(420,420,l)
);
}
);
width = 540;
}
);
unicode = 80;
},
{
glyphname = Q;
layers = (
{
guides = (
{
angle = 90;
position = "{60, 0}";
},
{
position = "{0, 420}";
},
{
angle = 90;
position = "{420, 0}";
},
{
position = "{0, 60}";
},
{
angle = 90;
position = "{240, 0}";
},
{
angle = 90;
position = "{210, 0}";
},
{
angle = 90;
position = "{270, 0}";
}
);
layerId = "F9FA6E1A-C3C7-41E3-A510-E095624E106C";
shapes = (
{
closed = 1;
nodes = (
(210,480,l),
(0,480,l),
(0,0,l),
(210,0,l),
(210,60,l),
(60,60,l),
(60,420,l),
(210,420,l)
);
},
{
closed = 1;
nodes = (
(420,102,l),
(252,270,l),
(210,227,l),
(378,60,l),
(270,60,l),
(270,0,l),
(480,0,l),
(480,480,l),
(270,480,l),
(270,420,l),
(420,420,l)
);
}
);
width = 540;
}
);
unicode = 81;
},
{
glyphname = R;
layers = (
{
guides = (
{
angle = 90;
position = "{60, 0}";
},
{
position = "{0, 420}";
},
{
angle = 90;
position = "{420, 0}";
},
{
position = "{0, 60}";
},
{
angle = 90;
position = "{240, 0}";
},
{
angle = 90;
position = "{210, 0}";
},
{
angle = 90;
position = "{270, 0}";
},
{
position = "{0, 240}";
},
{
position = "{0, 270}";
},
{
position = "{0, 210}";
}
);
layerId = "F9FA6E1A-C3C7-41E3-A510-E095624E106C";
shapes = (
{
closed = 1;
nodes = (
(420,210,l),
(480,210,l),
(480,0,l),
(360,0,l),
(360,60,l),
(420,60,l)
);
},
{
closed = 1;
nodes = (
(270,480,l),
(480,480,l),
(480,270,l),
(420,270,l),
(420,420,l),
(270,420,l)
);
},
{
closed = 1;
nodes = (
(210,420,l),
(60,420,l),
(60,270,l),
(420,270,l),
(420,210,l),
(60,210,l),
(60,60,l),
(120,60,l),
(120,0,l),
(0,0,l),
(0,480,l),
(210,480,l)
);
}
);
width = 540;
}
);
unicode = 82;
},
{
glyphname = S;
layers = (
{
guides = (
{
angle = 90;
position = "{60, 0}";
},
{
position = "{0, 420}";
},
{
angle = 90;
position = "{420, 0}";
},
{
position = "{0, 60}";
},
{
angle = 90;
position = "{240, 0}";
},
{
angle = 90;
position = "{210, 0}";
},
{
angle = 90;
position = "{270, 0}";
},
{
position = "{0, 240}";
},
{
position = "{0, 270}";
},
{
position = "{0, 210}";
}
);
layerId = "F9FA6E1A-C3C7-41E3-A510-E095624E106C";
shapes = (
{
closed = 1;
nodes = (
(480,360,l),
(420,360,l),
(420,420,l),
(270,420,l),
(270,480,l),
(480,480,l)
);
},
{
closed = 1;
nodes = (
(60,270,l),
(60,420,l),
(210,420,l),
(210,480,l),
(0,480,l),
(0,270,l)
);
},
{
closed = 1;
nodes = (
(480,210,l),
(480,0,l),
(270,0,l),
(270,60,l),
(420,60,l),
(420,210,l)
);
},
{
closed = 1;
nodes = (
(60,270,l),
(420,270,l),
(420,210,l),
(60,210,l)
);
},
{
closed = 1;
nodes = (
(0,120,l),
(0,0,l),
(210,0,l),
(210,60,l),
(60,60,l),
(60,120,l)
);
}
);
width = 540;
}
);
unicode = 83;
},
{
glyphname = T;
layers = (
{
guides = (
{
position = "{0, 420}";
},
{
position = "{0, 60}";
},
{
angle = 90;
position = "{480, 0}";
},
{
angle = 90;
position = "{240, 0}";
},
{
angle = 90;
position = "{210, 0}";
},
{
angle = 90;
position = "{270, 0}";
}
);
layerId = "F9FA6E1A-C3C7-41E3-A510-E095624E106C";
shapes = (
{
closed = 1;
nodes = (
(149,60,l),
(149,0,l),
(330,0,l),
(330,60,l),
(270,60,l),
(270,420,l),
(420,420,l),
(420,360,l),
(480,360,l),
(480,480,l),
(0,481,l),
(0,361,l),
(60,361,l),
(60,421,l),
(210,420,l),
(210,60,l)
);
}
);
width = 540;
}
);
unicode = 84;
},
{
glyphname = U;
layers = (
{
guides = (
{
position = "{0, 420}";
},
{
position = "{0, 60}";
},
{
angle = 90;
position = "{480, 0}";
},
{
angle = 90;
position = "{240, 0}";
},
{
angle = 90;
position = "{210, 0}";
},
{
angle = 90;
position = "{270, 0}";
}
);
layerId = "F9FA6E1A-C3C7-41E3-A510-E095624E106C";
shapes = (
{
closed = 1;
nodes = (
(270,60,l),
(420,60,l),
(420,420,l),
(360,420,l),
(360,480,l),
(480,480,l),
(480,0,l),
(270,0,l)
);
},
{
closed = 1;
nodes = (
(210,0,l),
(0,0,l),
(0,480,l),
(120,480,l),
(120,420,l),
(60,420,l),
(60,60,l),
(210,60,l)
);
}
);
width = 540;
}
);
unicode = 85;
},
{
glyphname = V;
layers = (
{
guides = (
{
angle = 90;
position = "{60, 0}";
},
{
position = "{0, 420}";
},
{
angle = 90;
position = "{420, 0}";
},
{
position = "{0, 60}";
},
{
angle = 90;
position = "{240, 0}";
},
{
angle = 90;
position = "{210, 0}";
},
{
angle = 90;
position = "{270, 0}";
}
);
layerId = "F9FA6E1A-C3C7-41E3-A510-E095624E106C";
shapes = (
{
closed = 1;
nodes = (
(420,102,l),
(42,480,l),
(0,480,l),
(0,437,l),
(438,0,l),
(480,1,l),
(480,480,l),
(360,480,l),
(360,420,l),
(420,420,l)
);
}
);
width = 540;
}
);
unicode = 86;
},
{
glyphname = W;
layers = (
{
guides = (
{
angle = 90;
position = "{60, 0}";
},
{
position = "{0, 420}";
},
{
angle = 90;
position = "{420, 0}";
},
{
position = "{0, 60}";
},
{
angle = 90;
position = "{240, 0}";
},
{
angle = 90;
position = "{210, 0}";
},
{
angle = 90;
position = "{270, 0}";
}
);
layerId = "F9FA6E1A-C3C7-41E3-A510-E095624E106C";
shapes = (
{
closed = 1;
nodes = (
(438,0,l),
(480,1,l),
(480,480,l),
(360,480,l),
(360,420,l),
(420,420,l),
(420,102,l),
(240,282,l),
(60,103,l),
(60,419,l),
(120,419,l),
(120,479,l),
(0,479,l),
(0,0,l),
(42,0,l),
(240,198,l)
);
}
);
width = 540;
}
);
unicode = 87;
},
{
glyphname = X;
layers = (
{
guides = (
{
angle = 90;
position = "{60, 0}";
},
{
position = "{0, 420}";
},
{
angle = 90;
position = "{420, 0}";
},
{
position = "{0, 60}";
},
{
angle = 90;
position = "{240, 0}";
},
{
angle = 90;
position = "{210, 0}";
},
{
angle = 90;
position = "{270, 0}";
},
{
position = "{0, 240}";
}
);
layerId = "F9FA6E1A-C3C7-41E3-A510-E095624E106C";
shapes = (
{
closed = 1;
nodes = (
(270,420,l),
(270,480,l),
(480,480,l),
(480,437,l),
(282,240,l),
(480,42,l),
(480,0,l),
(270,0,l),
(270,60,l),
(378,60,l),
(240,198,l),
(102,60,l),
(102,60,o),
(210,60,o),
(210,60,c),
(210,0,l),
(0,0,l),
(0,42,l),
(198,240,l),
(0,437,l),
(0,480,l),
(210,480,l),
(210,420,l),
(102,420,l),
(240,282,l),
(378,420,l)
);
}
);
width = 540;
}
);
unicode = 88;
},
{
glyphname = Y;
layers = (
{
guides = (
{
angle = 90;
position = "{60, 0}";
},
{
position = "{0, 420}";
},
{
angle = 90;
position = "{420, 0}";
},
{
position = "{0, 60}";
},
{
angle = 90;
position = "{240, 0}";
},
{
angle = 90;
position = "{210, 0}";
},
{
angle = 90;
position = "{270, 0}";
},
{
position = "{0, 240}";
},
{
position = "{0, 270}";
},
{
position = "{0, 210}";
}
);
layerId = "F9FA6E1A-C3C7-41E3-A510-E095624E106C";
shapes = (
{
closed = 1;
nodes = (
(270,228,l),
(270,0,l),
(210,0,l),
(210,228,l),
(0,437,l),
(0,480,l),
(210,480,l),
(210,420,l),
(102,420,l),
(240,282,l),
(378,420,l),
(270,420,l),
(270,480,l),
(480,480,l),
(480,438,l)
);
},
{
closed = 1;
nodes = (
(150,60,l),
(210,60,l),
(210,0,l),
(150,0,l)
);
},
{
closed = 1;
nodes = (
(270,60,l),
(330,60,l),
(330,0,l),
(270,0,l)
);
}
);
width = 540;
}
);
unicode = 89;
},
{
glyphname = Z;
layers = (
{
guides = (
{
angle = 90;
position = "{60, 0}";
},
{
position = "{0, 420}";
},
{
angle = 90;
position = "{420, 0}";
},
{
position = "{0, 60}";
},
{
angle = 90;
position = "{240, 0}";
},
{
angle = 90;
position = "{210, 0}";
},
{
angle = 90;
position = "{270, 0}";
},
{
position = "{0, 240}";
}
);
layerId = "F9FA6E1A-C3C7-41E3-A510-E095624E106C";
shapes = (
{
closed = 1;
nodes = (
(480,120,l),
(480,0,l),
(270,0,l),
(270,60,l),
(420,60,l),
(420,120,l)
);
},
{
closed = 1;
nodes = (
(0,360,l),
(0,480,l),
(210,480,l),
(210,420,l),
(60,420,l),
(60,360,l)
);
},
{
closed = 1;
nodes = (
(480,480,l),
(270,480,l),
(270,420,l),
(378,420,l),
(240,282,l),
(154,365,l),
(112,323,l),
(198,240,l),
(0,42,l),
(0,0,l),
(210,0,l),
(210,60,l),
(102,60,l),
(240,198,l),
(326,114,l),
(368,156,l),
(282,240,l),
(480,437,l)
);
}
);
width = 540;
}
);
unicode = 90;
},
{
glyphname = period;
layers = (
{
guides = (
{
position = "{0, 420}";
},
{
position = "{0, 60}";
}
);
layerId = "F9FA6E1A-C3C7-41E3-A510-E095624E106C";
shapes = (
{
closed = 1;
nodes = (
(0,0,l),
(60,0,l),
(60,60,l),
(0,60,l)
);
}
);
width = 120;
}
);
unicode = 46;
},
{
glyphname = a;
layers = (
{
guides = (
{
angle = 90;
position = "{60, 0}";
},
{
position = "{0, 420}";
},
{
angle = 90;
position = "{420, 0}";
},
{
position = "{0, 60}";
},
{
angle = 90;
position = "{240, 0}";
},
{
angle = 90;
position = "{210, 0}";
},
{
angle = 90;
position = "{270, 0}";
},
{
position = "{0, 240}";
},
{
position = "{0, 270}";
},
{
position = "{0, 210}";
}
);
layerId = "F9FA6E1A-C3C7-41E3-A510-E095624E106C";
shapes = (
{
closed = 1;
nodes = (
(210,0,l),
(270,0,l),
(270,270,l),
(60,270,l),
(60,210,l),
(210,210,l)
);
},
{
closed = 1;
nodes = (
(60,210,l),
(0,210,l),
(0,0,l),
(150,0,l),
(150,60,l),
(60,60,l)
);
}
);
width = 330;
}
);
unicode = 97;
},
{
glyphname = b;
layers = (
{
guides = (
{
angle = 90;
position = "{60, 0}";
},
{
position = "{0, 420}";
},
{
angle = 90;
position = "{420, 0}";
},
{
position = "{0, 60}";
},
{
angle = 90;
position = "{240, 0}";
},
{
angle = 90;
position = "{210, 0}";
},
{
angle = 90;
position = "{270, 0}";
},
{
position = "{0, 240}";
},
{
position = "{0, 270}";
},
{
position = "{0, 210}";
}
);
layerId = "F9FA6E1A-C3C7-41E3-A510-E095624E106C";
shapes = (
{
closed = 1;
nodes = (
(210,0,l),
(0,0,l),
(0,480,l),
(120,480,l),
(120,420,l),
(60,420,l),
(60,270,l),
(270,270,l),
(270,60,l),
(210,60,l),
(210,210,l),
(60,210,l),
(60,60,l),
(210,60,l)
);
}
);
width = 330;
}
);
unicode = 98;
},
{
glyphname = c;
layers = (
{
guides = (
{
angle = 90;
position = "{60, 0}";
},
{
position = "{0, 420}";
},
{
position = "{0, 60}";
},
{
angle = 90;
position = "{210, 0}";
},
{
angle = 90;
position = "{270, 0}";
},
{
position = "{0, 270}";
},
{
position = "{0, 210}";
}
);
layerId = "F9FA6E1A-C3C7-41E3-A510-E095624E106C";
shapes = (
{
closed = 1;
nodes = (
(270,60,l),
(270,0,l),
(0,0,l),
(0,210,l),
(60,210,l),
(60,60,l)
);
},
{
closed = 1;
nodes = (
(270,120,l),
(210,120,l),
(210,210,l),
(0,210,l),
(0,270,l),
(270,270,l)
);
}
);
width = 330;
}
);
unicode = 99;
},
{
glyphname = d;
layers = (
{
guides = (
{
angle = 90;
position = "{60, 0}";
},
{
position = "{0, 420}";
},
{
angle = 90;
position = "{420, 0}";
},
{
position = "{0, 60}";
},
{
angle = 90;
position = "{240, 0}";
},
{
angle = 90;
position = "{210, 0}";
},
{
angle = 90;
position = "{270, 0}";
},
{
position = "{0, 240}";
},
{
position = "{0, 270}";
},
{
position = "{0, 210}";
}
);
layerId = "F9FA6E1A-C3C7-41E3-A510-E095624E106C";
shapes = (
{
closed = 1;
nodes = (
(150,270,l),
(0,270,l),
(0,60,l),
(60,60,l),
(60,210,l),
(150,210,l)
);
},
{
closed = 1;
nodes = (
(210,60,l),
(60,60,l),
(60,0,l),
(270,0,l),
(270,420,l),
(330,420,l),
(330,480,l),
(210,480,l)
);
}
);
width = 330;
}
);
unicode = 100;
},
{
glyphname = e;
layers = (
{
guides = (
{
angle = 90;
position = "{60, 0}";
},
{
position = "{0, 420}";
},
{
position = "{0, 60}";
},
{
angle = 90;
position = "{240, 0}";
},
{
angle = 90;
position = "{210, 0}";
},
{
angle = 90;
position = "{270, 0}";
},
{
position = "{0, 240}";
},
{
position = "{0, 270}";
},
{
position = "{0, 210}";
}
);
layerId = "F9FA6E1A-C3C7-41E3-A510-E095624E106C";
shapes = (
{
closed = 1;
nodes = (
(270,227,l),
(270,270,l),
(0,270,l),
(0,0,l),
(270,0,l),
(270,120,l),
(210,120,l),
(210,60,l),
(102,60,l)
);
},
{
closed = 1;
nodes = (
(168,210,l),
(60,102,l),
(60,210,l)
);
}
);
width = 330;
}
);
unicode = 101;
},
{
glyphname = f;
layers = (
{
guides = (
{
position = "{0, 420}";
},
{
position = "{0, 60}";
},
{
position = "{0, 120}";
},
{
position = "{0, 480}";
},
{
position = "{0, 270}";
}
);
layerId = "F9FA6E1A-C3C7-41E3-A510-E095624E106C";
shapes = (
{
closed = 1;
nodes = (
(60,420,l),
(120,420,l),
(120,480,l),
(0,480,l),
(0,375,l),
(-60,375,l),
(-60,315,l),
(0,315,l),
(0,0,l),
(60,0,l)
);
}
);
width = 120;
}
);
unicode = 102;
},
{
glyphname = g;
layers = (
{
guides = (
{
angle = 90;
position = "{60, 0}";
},
{
position = "{0, 420}";
},
{
angle = 90;
position = "{420, 0}";
},
{
position = "{0, 60}";
},
{
angle = 90;
position = "{240, 0}";
},
{
angle = 90;
position = "{210, 0}";
},
{
angle = 90;
position = "{270, 0}";
},
{
position = "{0, 240}";
},
{
position = "{0, 270}";
},
{
position = "{0, 210}";
}
);
layerId = "F9FA6E1A-C3C7-41E3-A510-E095624E106C";
shapes = (
{
closed = 1;
nodes = (
(210,-120,l),
(210,-180,l),
(0,-180,l),
(0,-120,l)
);
},
{
closed = 1;
nodes = (
(210,-120,l),
(270,-120,l),
(270,270,l),
(60,270,l),
(60,210,l),
(0,210,l),
(0,0,l),
(150,0,l),
(150,60,l),
(60,60,l),
(60,210,l),
(210,210,l)
);
}
);
width = 330;
}
);
unicode = 103;
},
{
glyphname = h;
layers = (
{
guides = (
{
angle = 90;
position = "{60, 0}";
},
{
position = "{0, 420}";
},
{
angle = 90;
position = "{420, 0}";
},
{
position = "{0, 60}";
},
{
angle = 90;
position = "{240, 0}";
},
{
angle = 90;
position = "{210, 0}";
},
{
angle = 90;
position = "{270, 0}";
},
{
position = "{0, 240}";
},
{
position = "{0, 270}";
},
{
position = "{0, 210}";
}
);
layerId = "F9FA6E1A-C3C7-41E3-A510-E095624E106C";
shapes = (
{
closed = 1;
nodes = (
(60,0,l),
(60,210,l),
(210,210,l),
(210,270,l),
(60,270,l),
(60,420,l),
(120,420,l),
(120,480,l),
(0,480,l),
(0,0,l)
);
},
{
closed = 1;
nodes = (
(210,0,l),
(270,0,l),
(270,210,l),
(210,210,l)
);
}
);
width = 330;
}
);
unicode = 104;
},
{
glyphname = i;
layers = (
{
guides = (
{
position = "{0, 420}";
},
{
position = "{0, 60}";
},
{
position = "{0, 120}";
},
{
position = "{0, 480}";
},
{
position = "{0, 270}";
}
);
layerId = "F9FA6E1A-C3C7-41E3-A510-E095624E106C";
shapes = (
{
closed = 1;
nodes = (
(0,375,l),
(60,375,l),
(60,315,l),
(0,315,l)
);
},
{
closed = 1;
nodes = (
(0,270,l),
(60,270,l),
(60,0,l),
(0,0,l)
);
}
);
width = 120;
}
);
unicode = 105;
},
{
glyphname = j;
layers = (
{
guides = (
{
angle = 90;
position = "{60, 0}";
},
{
position = "{0, 420}";
},
{
angle = 90;
position = "{420, 0}";
},
{
position = "{0, 60}";
},
{
angle = 90;
position = "{240, 0}";
},
{
angle = 90;
position = "{210, 0}";
},
{
angle = 90;
position = "{270, 0}";
},
{
position = "{0, 240}";
},
{
position = "{0, 270}";
},
{
position = "{0, 210}";
}
);
layerId = "F9FA6E1A-C3C7-41E3-A510-E095624E106C";
shapes = (
{
closed = 1;
nodes = (
(-60,-180,l),
(60,-180,l),
(60,270,l),
(0,270,l),
(0,-120,l),
(-60,-120,l)
);
},
{
closed = 1;
nodes = (
(0,315,l),
(60,315,l),
(60,375,l),
(0,375,l)
);
}
);
width = 120;
}
);
unicode = 106;
},
{
glyphname = k;
layers = (
{
guides = (
{
angle = 90;
position = "{60, 0}";
},
{
position = "{0, 420}";
},
{
angle = 90;
position = "{420, 0}";
},
{
position = "{0, 60}";
},
{
angle = 90;
position = "{240, 0}";
},
{
angle = 90;
position = "{210, 0}";
},
{
angle = 90;
position = "{270, 0}";
},
{
position = "{0, 240}";
},
{
position = "{0, 270}";
},
{
position = "{0, 210}";
}
);
layerId = "F9FA6E1A-C3C7-41E3-A510-E095624E106C";
shapes = (
{
closed = 1;
nodes = (
(102,210,l),
(270,42,l),
(270,0,l),
(270,0,o),
(228,0,o),
(228,0,c),
(60,167,l),
(60,0,l),
(0,0,l),
(0,420,l),
(0,420,l),
(0,480,l),
(60,480,l),
(60,420,l),
(60,420,l),
(60,270,l),
(270,270,l),
(270,150,l),
(210,150,l),
(210,210,l)
);
}
);
width = 330;
}
);
unicode = 107;
},
{
glyphname = l;
layers = (
{
guides = (
{
position = "{0, 420}";
},
{
position = "{0, 60}";
},
{
position = "{0, 120}";
},
{
position = "{0, 480}";
},
{
position = "{0, 270}";
}
);
layerId = "F9FA6E1A-C3C7-41E3-A510-E095624E106C";
shapes = (
{
closed = 1;
nodes = (
(0,480,l),
(60,480,l),
(60,0,l),
(0,0,l)
);
}
);
width = 120;
}
);
unicode = 108;
},
{
glyphname = m;
layers = (
{
guides = (
{
angle = 90;
position = "{60, 0}";
},
{
position = "{0, 420}";
},
{
angle = 90;
position = "{420, 0}";
},
{
position = "{0, 60}";
},
{
angle = 90;
position = "{240, 0}";
},
{
angle = 90;
position = "{210, 0}";
},
{
angle = 90;
position = "{270, 0}";
},
{
position = "{0, 240}";
},
{
position = "{0, 270}";
},
{
position = "{0, 210}";
}
);
layerId = "F9FA6E1A-C3C7-41E3-A510-E095624E106C";
shapes = (
{
closed = 1;
nodes = (
(420,0,l),
(420,210,l),
(480,210,l),
(480,0,l)
);
},
{
closed = 1;
nodes = (
(270,210,l),
(270,0,l),
(210,0,l),
(210,210,l),
(60,210,l),
(60,60,l),
(120,60,l),
(120,0,l),
(0,0,l),
(0,270,l),
(420,270,l),
(420,210,l)
);
}
);
width = 540;
}
);
unicode = 109;
},
{
glyphname = n;
layers = (
{
guides = (
{
angle = 90;
position = "{60, 0}";
},
{
position = "{0, 420}";
},
{
position = "{0, 60}";
},
{
angle = 90;
position = "{210, 0}";
},
{
angle = 90;
position = "{270, 0}";
},
{
position = "{0, 270}";
},
{
position = "{0, 210}";
}
);
layerId = "F9FA6E1A-C3C7-41E3-A510-E095624E106C";
shapes = (
{
closed = 1;
nodes = (
(60,0,l),
(0,0,l),
(0,270,l),
(210,270,l),
(210,210,l),
(60,210,l)
);
},
{
closed = 1;
nodes = (
(210,0,l),
(210,210,l),
(270,210,l),
(270,0,l)
);
}
);
width = 330;
}
);
unicode = 110;
},
{
glyphname = o;
layers = (
{
guides = (
{
angle = 90;
position = "{60, 0}";
},
{
position = "{0, 420}";
},
{
angle = 90;
position = "{420, 0}";
},
{
position = "{0, 60}";
},
{
angle = 90;
position = "{240, 0}";
},
{
angle = 90;
position = "{210, 0}";
},
{
angle = 90;
position = "{270, 0}";
},
{
position = "{0, 240}";
},
{
position = "{0, 270}";
},
{
position = "{0, 210}";
}
);
layerId = "F9FA6E1A-C3C7-41E3-A510-E095624E106C";
shapes = (
{
closed = 1;
nodes = (
(210,0,l),
(270,0,l),
(270,270,l),
(120,270,l),
(120,210,l),
(210,210,l)
);
},
{
closed = 1;
nodes = (
(60,270,l),
(0,270,l),
(0,0,l),
(150,0,l),
(150,60,l),
(60,60,l)
);
}
);
width = 330;
}
);
unicode = 111;
},
{
glyphname = p;
layers = (
{
guides = (
{
angle = 90;
position = "{60, 0}";
},
{
position = "{0, 420}";
},
{
angle = 90;
position = "{420, 0}";
},
{
position = "{0, 60}";
},
{
angle = 90;
position = "{240, 0}";
},
{
angle = 90;
position = "{210, 0}";
},
{
angle = 90;
position = "{270, 0}";
},
{
position = "{0, 240}";
},
{
position = "{0, 270}";
},
{
position = "{0, 210}";
}
);
layerId = "F9FA6E1A-C3C7-41E3-A510-E095624E106C";
shapes = (
{
closed = 1;
nodes = (
(210,270,l),
(210,210,l),
(60,210,l),
(60,60,l),
(210,60,l),
(210,210,l),
(270,210,l),
(270,0,l),
(60,0,l),
(60,-120,l),
(120,-120,l),
(120,-180,l),
(0,-180,l),
(0,270,l)
);
}
);
width = 330;
}
);
unicode = 112;
},
{
glyphname = q;
layers = (
{
guides = (
{
angle = 90;
position = "{60, 0}";
},
{
position = "{0, 420}";
},
{
angle = 90;
position = "{420, 0}";
},
{
position = "{0, 60}";
},
{
angle = 90;
position = "{240, 0}";
},
{
angle = 90;
position = "{210, 0}";
},
{
angle = 90;
position = "{270, 0}";
},
{
position = "{0, 240}";
},
{
position = "{0, 270}";
},
{
position = "{0, 210}";
}
);
layerId = "F9FA6E1A-C3C7-41E3-A510-E095624E106C";
shapes = (
{
closed = 1;
nodes = (
(270,270,l),
(60,270,l),
(60,210,l),
(210,210,l),
(210,60,l),
(60,60,l),
(60,210,l),
(0,210,l),
(0,0,l),
(210,0,l),
(210,-180,l),
(330,-180,l),
(330,-120,l),
(270,-120,l)
);
}
);
width = 330;
}
);
unicode = 113;
},
{
glyphname = r;
layers = (
{
guides = (
{
position = "{0, 420}";
},
{
position = "{0, 60}";
},
{
position = "{0, 120}";
},
{
position = "{0, 480}";
},
{
position = "{0, 270}";
}
);
layerId = "F9FA6E1A-C3C7-41E3-A510-E095624E106C";
shapes = (
{
closed = 1;
nodes = (
(120,270,l),
(120,210,l),
(60,210,l),
(60,0,l),
(0,0,l),
(0,270,l)
);
}
);
width = 180;
}
);
unicode = 114;
},
{
glyphname = s;
layers = (
{
guides = (
{
angle = 90;
position = "{60, 0}";
},
{
position = "{0, 420}";
},
{
position = "{0, 60}";
},
{
angle = 90;
position = "{240, 0}";
},
{
angle = 90;
position = "{210, 0}";
},
{
angle = 90;
position = "{270, 0}";
},
{
position = "{0, 240}";
},
{
position = "{0, 270}";
},
{
position = "{0, 210}";
}
);
layerId = "F9FA6E1A-C3C7-41E3-A510-E095624E106C";
shapes = (
{
closed = 1;
nodes = (
(270,0,l),
(270,42,l),
(102,210,l),
(210,210,l),
(210,150,l),
(270,150,l),
(270,270,l),
(0,270,l),
(0,227,l),
(168,60,l),
(60,60,l),
(60,120,l),
(0,120,l),
(0,0,l)
);
}
);
width = 330;
}
);
unicode = 115;
},
{
glyphname = t;
layers = (
{
guides = (
{
position = "{0, 420}";
},
{
position = "{0, 60}";
},
{
position = "{0, 120}";
},
{
position = "{0, 480}";
},
{
position = "{0, 270}";
}
);
layerId = "F9FA6E1A-C3C7-41E3-A510-E095624E106C";
shapes = (
{
closed = 1;
nodes = (
(60,315,l),
(120,315,l),
(120,375,l),
(60,375,l),
(60,480,l),
(0,480,l),
(0,375,l),
(-60,375,l),
(-60,315,l),
(0,315,l),
(0,0,l),
(60,0,l)
);
}
);
width = 120;
}
);
unicode = 116;
},
{
glyphname = u;
layers = (
{
guides = (
{
angle = 90;
position = "{60, 0}";
},
{
position = "{0, 420}";
},
{
position = "{0, 60}";
},
{
angle = 90;
position = "{210, 0}";
},
{
angle = 90;
position = "{270, 0}";
},
{
position = "{0, 270}";
},
{
position = "{0, 210}";
}
);
layerId = "F9FA6E1A-C3C7-41E3-A510-E095624E106C";
shapes = (
{
closed = 1;
nodes = (
(60,270,l),
(60,60,l),
(210,60,l),
(210,0,l),
(0,0,l),
(0,270,l)
);
},
{
closed = 1;
nodes = (
(210,270,l),
(270,270,l),
(270,60,l),
(210,60,l)
);
}
);
width = 330;
}
);
unicode = 117;
},
{
glyphname = v;
layers = (
{
guides = (
{
angle = 90;
position = "{60, 0}";
},
{
position = "{0, 420}";
},
{
position = "{0, 60}";
},
{
angle = 90;
position = "{240, 0}";
},
{
angle = 90;
position = "{210, 0}";
},
{
angle = 90;
position = "{270, 0}";
},
{
position = "{0, 240}";
},
{
position = "{0, 270}";
},
{
position = "{0, 210}";
}
);
layerId = "F9FA6E1A-C3C7-41E3-A510-E095624E106C";
shapes = (
{
closed = 1;
nodes = (
(228,0,l),
(270,0,l),
(270,270,l),
(150,270,l),
(150,210,l),
(210,210,l),
(210,103,l),
(42,270,l),
(0,270,l),
(0,228,l)
);
}
);
width = 330;
}
);
unicode = 118;
},
{
glyphname = w;
layers = (
{
guides = (
{
angle = 90;
position = "{60, 0}";
},
{
position = "{0, 420}";
},
{
position = "{0, 60}";
},
{
angle = 90;
position = "{240, 0}";
},
{
angle = 90;
position = "{210, 0}";
},
{
angle = 90;
position = "{270, 0}";
showMeasurement = 1;
},
{
position = "{0, 240}";
},
{
position = "{0, 270}";
},
{
position = "{0, 210}";
}
);
layerId = "F9FA6E1A-C3C7-41E3-A510-E095624E106C";
shapes = (
{
closed = 1;
nodes = (
(438,0,l),
(480,0,l),
(480,43,l),
(480,270,l),
(360,270,l),
(360,210,l),
(420,210,l),
(420,103,l),
(252,270,l),
(210,270,l),
(210,103,l),
(102,210,l),
(150,210,l),
(150,270,l),
(0,270,l),
(0,228,l),
(228,0,l),
(270,0,l),
(270,43,l),
(270,168,l)
);
}
);
width = 540;
}
);
unicode = 119;
},
{
glyphname = x;
layers = (
{
guides = (
{
angle = 90;
position = "{60, 0}";
},
{
position = "{0, 420}";
},
{
position = "{0, 60}";
},
{
angle = 90;
position = "{240, 0}";
},
{
angle = 90;
position = "{210, 0}";
},
{
angle = 90;
position = "{270, 0}";
},
{
position = "{0, 240}";
},
{
position = "{0, 270}";
},
{
position = "{0, 210}";
}
);
layerId = "F9FA6E1A-C3C7-41E3-A510-E095624E106C";
shapes = (
{
closed = 1;
nodes = (
(270,228,l),
(42,0,l),
(0,0,l),
(0,43,l),
(228,270,l),
(270,270,l)
);
},
{
closed = 1;
nodes = (
(0,228,l),
(228,0,l),
(270,0,l),
(270,43,l),
(42,270,l),
(0,270,l)
);
}
);
width = 330;
}
);
unicode = 120;
},
{
glyphname = y;
layers = (
{
guides = (
{
angle = 90;
position = "{60, 0}";
},
{
position = "{0, 420}";
},
{
angle = 90;
position = "{420, 0}";
},
{
position = "{0, 60}";
},
{
angle = 90;
position = "{240, 0}";
},
{
angle = 90;
position = "{112, 0}";
},
{
angle = 90;
position = "{270, 0}";
},
{
position = "{0, 240}";
},
{
position = "{0, 270}";
},
{
position = "{0, 210}";
},
{
angle = 90;
position = "{210, 0}";
},
{
position = "{0, -180}";
}
);
layerId = "F9FA6E1A-C3C7-41E3-A510-E095624E106C";
shapes = (
{
closed = 1;
nodes = (
(0,-120,l),
(210,-120,l),
(210,-180,l),
(0,-180,l)
);
},
{
closed = 1;
nodes = (
(60,270,l),
(60,60,l),
(0,60,l),
(0,270,l)
);
},
{
closed = 1;
nodes = (
(210,-120,l),
(210,0,l),
(60,0,l),
(60,60,l),
(210,60,l),
(210,210,l),
(150,210,l),
(150,270,l),
(270,270,l),
(270,-120,l)
);
}
);
width = 330;
}
);
unicode = 121;
},
{
glyphname = z;
layers = (
{
guides = (
{
angle = 90;
position = "{60, 0}";
},
{
position = "{0, 420}";
},
{
position = "{0, 60}";
},
{
angle = 90;
position = "{240, 0}";
},
{
angle = 90;
position = "{210, 0}";
},
{
angle = 90;
position = "{270, 0}";
},
{
position = "{0, 240}";
},
{
position = "{0, 270}";
},
{
position = "{0, 210}";
}
);
layerId = "F9FA6E1A-C3C7-41E3-A510-E095624E106C";
shapes = (
{
closed = 1;
nodes = (
(0,0,l),
(0,42,l),
(168,210,l),
(60,210,l),
(60,150,l),
(0,150,l),
(0,270,l),
(270,270,l),
(270,227,l),
(102,60,l),
(210,60,l),
(210,120,l),
(270,120,l),
(270,0,l)
);
}
);
width = 330;
}
);
unicode = 122;
},
{
glyphname = comma;
layers = (
{
guides = (
{
position = "{0, 420}";
},
{
position = "{0, 60}";
}
);
layerId = "F9FA6E1A-C3C7-41E3-A510-E095624E106C";
shapes = (
{
closed = 1;
nodes = (
(0,-60,l),
(60,0,l),
(60,60,l),
(0,60,l)
);
}
);
width = 120;
}
);
unicode = 44;
},
{
glyphname = zero;
layers = (
{
guides = (
{
angle = 90;
position = "{60, 0}";
},
{
position = "{0, 420}";
},
{
angle = 90;
position = "{420, 0}";
},
{
position = "{0, 60}";
},
{
angle = 90;
position = "{240, 0}";
},
{
angle = 90;
position = "{210, 0}";
},
{
angle = 90;
position = "{270, 0}";
}
);
layerId = "F9FA6E1A-C3C7-41E3-A510-E095624E106C";
shapes = (
{
closed = 1;
nodes = (
(378,420,l),
(270,420,l),
(270,480,l),
(480,480,l),
(480,0,l),
(270,0,l),
(270,60,l),
(420,60,l),
(420,378,l),
(103,60,l),
(210,60,l),
(210,0,l),
(0,0,l),
(0,480,l),
(210,480,l),
(210,420,l),
(60,420,l),
(60,102,l)
);
}
);
width = 540;
}
);
unicode = 48;
},
{
glyphname = one;
layers = (
{
guides = (
{
position = "{0, 420}";
},
{
position = "{0, 60}";
},
{
angle = 90;
position = "{480, 0}";
}
);
layerId = "F9FA6E1A-C3C7-41E3-A510-E095624E106C";
shapes = (
{
closed = 1;
nodes = (
(420,0,l),
(480,0,l),
(480,480,l),
(360,480,l),
(360,420,l),
(420,420,l),
(420,60,l),
(420,60,l)
);
}
);
width = 540;
}
);
unicode = 49;
},
{
glyphname = two;
layers = (
{
guides = (
{
angle = 90;
position = "{60, 0}";
},
{
position = "{0, 420}";
},
{
angle = 90;
position = "{420, 0}";
},
{
position = "{0, 60}";
},
{
angle = 90;
position = "{240, 0}";
},
{
angle = 90;
position = "{210, 0}";
},
{
angle = 90;
position = "{270, 0}";
}
);
layerId = "F9FA6E1A-C3C7-41E3-A510-E095624E106C";
shapes = (
{
closed = 1;
nodes = (
(60,300,l),
(0,300,l),
(0,480,l),
(210,480,l),
(210,420,l),
(60,420,l)
);
},
{
closed = 1;
nodes = (
(420,120,l),
(480,120,l),
(480,0,l),
(270,0,l),
(270,60,l),
(420,60,l)
);
},
{
closed = 1;
nodes = (
(480,438,l),
(102,60,l),
(210,60,l),
(210,0,l),
(0,0,l),
(0,43,l),
(378,420,l),
(270,420,l),
(270,480,l),
(480,480,l)
);
}
);
width = 540;
}
);
unicode = 50;
},
{
glyphname = three;
layers = (
{
guides = (
{
angle = 90;
position = "{60, 0}";
},
{
position = "{0, 420}";
},
{
angle = 90;
position = "{420, 0}";
},
{
position = "{0, 60}";
},
{
angle = 90;
position = "{240, 0}";
},
{
angle = 90;
position = "{210, 0}";
},
{
angle = 90;
position = "{270, 0}";
},
{
position = "{0, 240}";
},
{
position = "{0, 270}";
},
{
position = "{0, 210}";
}
);
layerId = "F9FA6E1A-C3C7-41E3-A510-E095624E106C";
shapes = (
{
closed = 1;
nodes = (
(420,270,l),
(420,420,l),
(270,420,l),
(270,480,l),
(480,480,l),
(480,270,l)
);
},
{
closed = 1;
nodes = (
(420,270,l),
(60,270,l),
(60,210,l),
(420,210,l)
);
},
{
closed = 1;
nodes = (
(420,210,l),
(480,210,l),
(480,0,l),
(270,0,l),
(270,60,l),
(420,60,l)
);
},
{
closed = 1;
nodes = (
(0,360,l),
(60,360,l),
(60,420,l),
(210,420,l),
(210,480,l),
(0,480,l)
);
},
{
closed = 1;
nodes = (
(60,120,l),
(0,120,l),
(0,0,l),
(210,0,l),
(210,60,l),
(60,60,l)
);
}
);
width = 540;
}
);
unicode = 51;
},
{
glyphname = four;
layers = (
{
guides = (
{
angle = 90;
position = "{60, 0}";
},
{
position = "{0, 420}";
},
{
angle = 90;
position = "{420, 0}";
},
{
position = "{0, 60}";
showMeasurement = 1;
},
{
angle = 90;
position = "{240, 0}";
},
{
angle = 90;
position = "{210, 0}";
},
{
angle = 90;
position = "{270, 0}";
},
{
position = "{0, 240}";
},
{
position = "{0, 270}";
},
{
position = "{0, 210}";
}
);
layerId = "F9FA6E1A-C3C7-41E3-A510-E095624E106C";
shapes = (
{
closed = 1;
nodes = (
(0,270,l),
(0,480,l),
(60,480,l),
(60,270,l)
);
},
{
closed = 1;
nodes = (
(420,0,l),
(480,0,l),
(480,480,l),
(420,480,l),
(420,270,l),
(60,270,l),
(60,210,l),
(420,210,l)
);
}
);
width = 540;
}
);
unicode = 52;
},
{
glyphname = five;
layers = (
{
guides = (
{
angle = 90;
position = "{60, 0}";
},
{
position = "{0, 420}";
},
{
angle = 90;
position = "{420, 0}";
},
{
position = "{0, 60}";
},
{
angle = 90;
position = "{240, 0}";
},
{
angle = 90;
position = "{210, 0}";
},
{
angle = 90;
position = "{270, 0}";
},
{
position = "{0, 240}";
},
{
position = "{0, 270}";
},
{
position = "{0, 210}";
}
);
layerId = "F9FA6E1A-C3C7-41E3-A510-E095624E106C";
shapes = (
{
closed = 1;
nodes = (
(480,420,l),
(270,420,l),
(270,480,l),
(480,480,l)
);
},
{
closed = 1;
nodes = (
(60,270,l),
(60,420,l),
(210,420,l),
(210,480,l),
(0,480,l),
(0,270,l)
);
},
{
closed = 1;
nodes = (
(480,210,l),
(480,0,l),
(270,0,l),
(270,60,l),
(420,60,l),
(420,210,l)
);
},
{
closed = 1;
nodes = (
(60,270,l),
(420,270,l),
(420,210,l),
(60,210,l)
);
},
{
closed = 1;
nodes = (
(0,120,l),
(0,0,l),
(210,0,l),
(210,60,l),
(60,60,l),
(60,120,l)
);
}
);
width = 540;
}
);
unicode = 53;
},
{
glyphname = six;
layers = (
{
guides = (
{
angle = 90;
position = "{60, 0}";
},
{
position = "{0, 420}";
},
{
angle = 90;
position = "{420, 0}";
},
{
position = "{0, 60}";
},
{
angle = 90;
position = "{240, 0}";
},
{
angle = 90;
position = "{210, 0}";
},
{
angle = 90;
position = "{270, 0}";
},
{
position = "{0, 240}";
},
{
position = "{0, 270}";
},
{
position = "{0, 210}";
}
);
layerId = "F9FA6E1A-C3C7-41E3-A510-E095624E106C";
shapes = (
{
closed = 1;
nodes = (
(270,420,l),
(270,480,l),
(480,480,l),
(480,360,l),
(420,360,l),
(420,420,l)
);
},
{
closed = 1;
nodes = (
(210,60,l),
(210,0,l),
(0,0,l),
(0,480,l),
(210,480,l),
(210,420,l),
(60,420,l),
(60,270,l),
(420,270,l),
(420,210,l),
(60,210,l),
(60,60,l)
);
},
{
closed = 1;
nodes = (
(420,210,l),
(480,210,l),
(480,0,l),
(270,0,l),
(270,60,l),
(420,60,l)
);
}
);
width = 540;
}
);
unicode = 54;
},
{
glyphname = seven;
layers = (
{
guides = (
{
angle = 90;
position = "{60, 0}";
},
{
position = "{0, 420}";
},
{
angle = 90;
position = "{420, 0}";
},
{
position = "{0, 60}";
},
{
angle = 90;
position = "{240, 0}";
},
{
angle = 90;
position = "{210, 0}";
},
{
angle = 90;
position = "{270, 0}";
}
);
layerId = "F9FA6E1A-C3C7-41E3-A510-E095624E106C";
shapes = (
{
closed = 1;
nodes = (
(60,360,l),
(0,360,l),
(0,480,l),
(210,480,l),
(210,420,l),
(60,420,l)
);
},
{
closed = 1;
nodes = (
(480,438,l),
(42,0,l),
(0,0,l),
(0,43,l),
(378,420,l),
(270,420,l),
(270,480,l),
(480,480,l)
);
}
);
width = 540;
}
);
unicode = 55;
},
{
glyphname = eight;
layers = (
{
guides = (
{
angle = 90;
position = "{60, 0}";
},
{
position = "{0, 420}";
},
{
angle = 90;
position = "{420, 0}";
},
{
position = "{0, 60}";
},
{
angle = 90;
position = "{240, 0}";
},
{
angle = 90;
position = "{210, 0}";
},
{
angle = 90;
position = "{270, 0}";
},
{
position = "{0, 240}";
},
{
position = "{0, 270}";
},
{
position = "{0, 210}";
}
);
layerId = "F9FA6E1A-C3C7-41E3-A510-E095624E106C";
shapes = (
{
closed = 1;
nodes = (
(480,420,l),
(480,270,l),
(420,270,l),
(420,420,l),
(270,420,l),
(270,480,l),
(480,480,l)
);
},
{
closed = 1;
nodes = (
(60,270,l),
(60,420,l),
(210,420,l),
(210,480,l),
(0,480,l),
(0,270,l)
);
},
{
closed = 1;
nodes = (
(480,60,l),
(480,0,l),
(270,0,l),
(270,60,l),
(420,60,l),
(420,210,l),
(480,210,l)
);
},
{
closed = 1;
nodes = (
(60,270,l),
(420,270,l),
(420,210,l),
(60,210,l)
);
},
{
closed = 1;
nodes = (
(60,210,l),
(0,210,l),
(0,0,l),
(210,0,l),
(210,60,l),
(60,60,l)
);
}
);
width = 540;
}
);
unicode = 56;
},
{
glyphname = nine;
layers = (
{
guides = (
{
angle = 90;
position = "{60, 0}";
},
{
position = "{0, 420}";
},
{
angle = 90;
position = "{420, 0}";
},
{
position = "{0, 60}";
},
{
angle = 90;
position = "{240, 0}";
},
{
angle = 90;
position = "{210, 0}";
},
{
angle = 90;
position = "{270, 0}";
},
{
position = "{0, 240}";
},
{
position = "{0, 270}";
},
{
position = "{0, 210}";
}
);
layerId = "F9FA6E1A-C3C7-41E3-A510-E095624E106C";
shapes = (
{
closed = 1;
nodes = (
(210,60,l),
(210,0,l),
(0,0,l),
(0,120,l),
(60,120,l),
(60,60,l)
);
},
{
closed = 1;
nodes = (
(420,270,l),
(60,270,l),
(60,210,l),
(420,210,l),
(420,60,l),
(270,60,l),
(270,0,l),
(480,0,l),
(480,480,l),
(270,480,l),
(270,420,l),
(420,420,l)
);
},
{
closed = 1;
nodes = (
(60,270,l),
(0,270,l),
(0,480,l),
(210,480,l),
(210,420,l),
(60,420,l)
);
}
);
width = 540;
}
);
unicode = 57;
},
{
glyphname = hyphen;
layers = (
{
guides = (
{
position = "{0, 270}";
}
);
layerId = "F9FA6E1A-C3C7-41E3-A510-E095624E106C";
shapes = (
{
closed = 1;
nodes = (
(210,210,l),
(0,210,l),
(0,270,l),
(210,270,l)
);
}
);
width = 270;
}
);
unicode = 45;
},
{
glyphname = plus;
layers = (
{
guides = (
{
position = "{0, 420}";
},
{
position = "{0, 60}";
},
{
position = "{0, 120}";
},
{
position = "{0, 480}";
},
{
position = "{0, 270}";
},
{
position = "{0, 240}";
}
);
layerId = "F9FA6E1A-C3C7-41E3-A510-E095624E106C";
shapes = (
{
closed = 1;
nodes = (
(180,210,l),
(300,210,l),
(300,270,l),
(180,270,l),
(180,390,l),
(120,390,l),
(120,270,l),
(0,270,l),
(0,210,l),
(120,210,l),
(120,90,l),
(180,90,l)
);
}
);
width = 360;
}
);
unicode = 43;
},
{
glyphname = asterisk;
layers = (
{
guides = (
{
position = "{0, 480}";
},
{
position = "{0, 330}";
},
{
position = "{0, 180}";
},
{
angle = 90;
position = "{300, 0}";
},
{
angle = 90;
position = "{150, 0}";
}
);
layerId = "F9FA6E1A-C3C7-41E3-A510-E095624E106C";
shapes = (
{
closed = 1;
nodes = (
(120,180,l),
(120,278,l),
(35,229,l),
(5,281,l),
(90,330,l),
(5,379,l),
(35,431,l),
(120,382,l),
(120,480,l),
(180,480,l),
(180,382,l),
(265,431,l),
(295,379,l),
(210,330,l),
(295,281,l),
(265,229,l),
(180,278,l),
(180,180,l)
);
}
);
width = 360;
}
);
unicode = 42;
},
{
glyphname = asciicircum;
layers = (
{
guides = (
{
position = "{0, 420}";
},
{
position = "{0, 60}";
},
{
position = "{0, 120}";
},
{
position = "{0, 480}";
},
{
position = "{0, 270}";
},
{
position = "{0, 240}";
},
{
angle = 90;
position = "{150, 0}";
},
{
angle = 90;
position = "{301, 0}";
}
);
layerId = "F9FA6E1A-C3C7-41E3-A510-E095624E106C";
shapes = (
{
closed = 1;
nodes = (
(150,480,l),
(301,329,l),
(258,287,l),
(150,396,l),
(43,288,l),
(0,330,l)
);
}
);
width = 360;
}
);
unicode = 94;
},
{
glyphname = slash;
layers = (
{
guides = (
{
position = "{0, 480}";
}
);
layerId = "F9FA6E1A-C3C7-41E3-A510-E095624E106C";
shapes = (
{
closed = 1;
nodes = (
(0,43,l),
(438,480,l),
(480,480,l),
(480,438,l),
(42,0,l),
(0,0,l)
);
}
);
width = 540;
}
);
unicode = 47;
},
{
glyphname = backslash;
layers = (
{
guides = (
{
position = "{0, 480}";
}
);
layerId = "F9FA6E1A-C3C7-41E3-A510-E095624E106C";
shapes = (
{
closed = 1;
nodes = (
(480,43,l),
(480,0,l),
(438,0,l),
(0,438,l),
(0,480,l),
(42,480,l)
);
}
);
width = 540;
}
);
unicode = 92;
},
{
glyphname = colon;
layers = (
{
guides = (
{
position = "{0, 420}";
},
{
angle = 90;
position = "{60, 0}";
},
{
position = "{0, 60}";
},
{
position = "{0, 0}";
},
{
position = "{0, 480}";
},
{
position = "{0, 270}";
}
);
layerId = "F9FA6E1A-C3C7-41E3-A510-E095624E106C";
shapes = (
{
closed = 1;
nodes = (
(0,0,l),
(60,0,l),
(60,60,l),
(0,60,l)
);
},
{
closed = 1;
nodes = (
(0,210,l),
(60,210,l),
(60,270,l),
(0,270,l)
);
}
);
width = 120;
}
);
unicode = 58;
},
{
glyphname = semicolon;
layers = (
{
guides = (
{
position = "{0, 420}";
},
{
angle = 90;
position = "{60, 0}";
},
{
position = "{0, 60}";
},
{
position = "{0, 0}";
},
{
position = "{0, 480}";
},
{
position = "{0, 270}";
}
);
layerId = "F9FA6E1A-C3C7-41E3-A510-E095624E106C";
shapes = (
{
closed = 1;
nodes = (
(0,210,l),
(60,210,l),
(60,270,l),
(0,270,l)
);
},
{
closed = 1;
nodes = (
(0,-60,l),
(60,0,l),
(60,60,l),
(0,60,l)
);
}
);
width = 120;
}
);
unicode = 59;
},
{
glyphname = less;
layers = (
{
guides = (
{
position = "{0, 420}";
},
{
position = "{0, 60}";
},
{
position = "{0, 120}";
},
{
position = "{0, 480}";
},
{
position = "{0, 270}";
},
{
position = "{0, 240}";
},
{
angle = 90;
position = "{150, 0}";
},
{
angle = 90;
position = "{240, 0}";
}
);
layerId = "F9FA6E1A-C3C7-41E3-A510-E095624E106C";
shapes = (
{
closed = 1;
nodes = (
(0,240,l),
(197,43,l),
(239,86,l),
(84,240,l),
(240,396,l),
(198,439,l)
);
}
);
width = 300;
}
);
unicode = 60;
},
{
glyphname = equal;
layers = (
{
guides = (
{
position = "{0, 420}";
},
{
position = "{0, 60}";
},
{
position = "{0, 120}";
},
{
position = "{0, 480}";
},
{
position = "{0, 270}";
},
{
position = "{0, 240}";
}
);
layerId = "F9FA6E1A-C3C7-41E3-A510-E095624E106C";
shapes = (
{
closed = 1;
nodes = (
(300,270,l),
(300,330,l),
(0,330,l),
(0,270,l)
);
},
{
closed = 1;
nodes = (
(300,150,l),
(300,210,l),
(0,210,l),
(0,150,l)
);
}
);
width = 360;
}
);
unicode = 61;
},
{
glyphname = greater;
layers = (
{
guides = (
{
position = "{0, 420}";
},
{
position = "{0, 60}";
},
{
position = "{0, 120}";
},
{
position = "{0, 480}";
},
{
position = "{0, 270}";
},
{
position = "{0, 240}";
},
{
angle = 90;
position = "{150, 0}";
},
{
angle = 90;
position = "{240, 0}";
}
);
layerId = "F9FA6E1A-C3C7-41E3-A510-E095624E106C";
shapes = (
{
closed = 1;
nodes = (
(156,240,l),
(1,86,l),
(43,43,l),
(240,240,l),
(42,439,l),
(0,396,l)
);
}
);
width = 300;
}
);
unicode = 62;
},
{
glyphname = exclam;
layers = (
{
guides = (
{
position = "{0, 420}";
},
{
position = "{0, 60}";
},
{
position = "{0, 120}";
}
);
layerId = "F9FA6E1A-C3C7-41E3-A510-E095624E106C";
shapes = (
{
closed = 1;
nodes = (
(0,0,l),
(60,0,l),
(60,60,l),
(0,60,l)
);
},
{
closed = 1;
nodes = (
(0,120,l),
(60,120,l),
(60,480,l),
(0,480,l)
);
}
);
width = 120;
}
);
unicode = 33;
},
{
glyphname = question;
layers = (
{
guides = (
{
position = "{0, 420}";
},
{
position = "{0, 60}";
},
{
angle = 90;
position = "{480, 0}";
},
{
angle = 90;
position = "{240, 0}";
},
{
angle = 90;
position = "{210, 0}";
},
{
angle = 90;
position = "{270, 0}";
},
{
position = "{0, 240}";
},
{
position = "{0, 210}";
},
{
position = "{0, 480}";
},
{
position = "{0, 270}";
},
{
position = "{0, 330}";
}
);
layerId = "F9FA6E1A-C3C7-41E3-A510-E095624E106C";
shapes = (
{
closed = 1;
nodes = (
(210,420,l),
(60,420,l),
(60,330,l),
(0,330,l),
(0,480,l),
(210,480,l)
);
},
{
closed = 1;
nodes = (
(270,480,l),
(480,480,l),
(480,210,l),
(270,210,l),
(270,120,l),
(210,120,l),
(210,270,l),
(420,270,l),
(420,420,l),
(270,420,l)
);
},
{
closed = 1;
nodes = (
(210,60,l),
(270,60,l),
(270,0,l),
(210,0,l)
);
}
);
width = 540;
}
);
unicode = 63;
},
{
glyphname = quotesingle;
layers = (
{
guides = (
{
position = "{0, 420}";
},
{
position = "{0, 60}";
}
);
layerId = "F9FA6E1A-C3C7-41E3-A510-E095624E106C";
shapes = (
{
closed = 1;
nodes = (
(0,360,l),
(60,360,l),
(60,480,l),
(0,480,l)
);
}
);
width = 120;
}
);
unicode = 39;
},
{
glyphname = quotedbl;
layers = (
{
guides = (
{
position = "{0, 420}";
},
{
position = "{0, 60}";
}
);
layerId = "F9FA6E1A-C3C7-41E3-A510-E095624E106C";
shapes = (
{
closed = 1;
nodes = (
(0,360,l),
(60,360,l),
(60,480,l),
(0,480,l)
);
},
{
closed = 1;
nodes = (
(120,360,l),
(180,360,l),
(180,480,l),
(120,480,l)
);
}
);
width = 240;
}
);
unicode = 34;
},
{
glyphname = numbersign;
layers = (
{
guides = (
{
angle = 90;
position = "{60, 0}";
},
{
position = "{0, 420}";
},
{
angle = 90;
position = "{420, 0}";
},
{
position = "{0, 60}";
},
{
angle = 90;
position = "{240, 0}";
},
{
angle = 90;
position = "{210, 0}";
},
{
angle = 90;
position = "{270, 0}";
}
);
layerId = "F9FA6E1A-C3C7-41E3-A510-E095624E106C";
shapes = (
{
closed = 1;
nodes = (
(360,60,l),
(360,0,l),
(420,0,l),
(420,60,l),
(480,60,l),
(480,120,l),
(420,120,l),
(420,360,l),
(480,360,l),
(480,420,l),
(420,420,l),
(420,480,l),
(360,480,l),
(360,420,l),
(120,420,l),
(120,480,l),
(60,480,l),
(60,420,l),
(0,420,l),
(0,360,l),
(60,360,l),
(60,120,l),
(0,120,l),
(0,60,l),
(60,60,l),
(60,0,l),
(120,0,l),
(120,60,l)
);
},
{
closed = 1;
nodes = (
(360,120,l),
(120,120,l),
(120,360,l),
(360,360,l)
);
}
);
width = 540;
}
);
unicode = 35;
},
{
glyphname = at;
layers = (
{
guides = (
{
angle = 90;
position = "{60, 0}";
},
{
position = "{0, 420}";
},
{
angle = 90;
position = "{420, 0}";
},
{
position = "{0, 60}";
},
{
angle = 90;
position = "{240, 0}";
},
{
angle = 90;
position = "{210, 0}";
},
{
angle = 90;
position = "{270, 0}";
},
{
angle = 90;
position = "{120, 0}";
},
{
angle = 90;
position = "{360, 0}";
},
{
position = "{0, 360}";
},
{
position = "{0, 120}";
},
{
angle = 90;
position = "{180, 0}";
},
{
angle = 90;
position = "{300, 0}";
},
{
position = "{0, 300}";
},
{
position = "{0, 180}";
}
);
layerId = "F9FA6E1A-C3C7-41E3-A510-E095624E106C";
shapes = (
{
closed = 1;
nodes = (
(480,480,l),
(480,0,l),
(270,0,l),
(270,60,l),
(420,60,l),
(420,420,l),
(270,420,l),
(270,480,l)
);
},
{
closed = 1;
nodes = (
(210,60,l),
(210,0,l),
(0,0,l),
(0,480,l),
(210,480,l),
(210,420,l),
(60,420,l),
(60,60,l)
);
},
{
closed = 1;
nodes = (
(240,120,l),
(120,120,l),
(120,300,l),
(180,300,l),
(180,360,l),
(360,360,l),
(360,120,l),
(300,120,l),
(300,300,l),
(180,300,l),
(180,180,l),
(240,180,l)
);
}
);
width = 540;
}
);
unicode = 64;
},
{
glyphname = dollar;
layers = (
{
guides = (
{
angle = 90;
position = "{60, 0}";
},
{
position = "{0, 420}";
},
{
angle = 90;
position = "{420, 0}";
},
{
position = "{0, 60}";
},
{
angle = 90;
position = "{240, 0}";
},
{
angle = 90;
position = "{210, 0}";
},
{
angle = 90;
position = "{270, 0}";
},
{
position = "{0, 240}";
},
{
position = "{0, 270}";
},
{
position = "{0, 210}";
}
);
layerId = "F9FA6E1A-C3C7-41E3-A510-E095624E106C";
shapes = (
{
closed = 1;
nodes = (
(0,480,l),
(0,270,l),
(60,270,l),
(60,210,l),
(210,210,l),
(210,60,l),
(60,60,l),
(60,120,l),
(0,120,l),
(0,0,l),
(210,0,l),
(210,-60,l),
(270,-60,l),
(270,0,l),
(480,0,l),
(480,210,l),
(420,210,l),
(420,270,l),
(270,270,l),
(270,420,l),
(420,420,l),
(420,360,l),
(480,360,l),
(480,480,l),
(270,480,l),
(270,540,l),
(210,540,l),
(210,480,l)
);
},
{
closed = 1;
nodes = (
(270,210,l),
(420,210,l),
(420,60,l),
(270,60,l)
);
},
{
closed = 1;
nodes = (
(60,270,l),
(60,420,l),
(210,420,l),
(210,270,l)
);
}
);
width = 540;
}
);
unicode = 36;
},
{
glyphname = Euro;
layers = (
{
guides = (
{
angle = 90;
position = "{120, 0}";
},
{
position = "{0, 420}";
},
{
angle = 90;
position = "{480, 0}";
},
{
position = "{0, 60}";
},
{
angle = 90;
position = "{300, 0}";
},
{
angle = 90;
position = "{270, 0}";
},
{
angle = 90;
position = "{330, 0}";
},
{
position = "{0, 240}";
},
{
position = "{0, 270}";
},
{
position = "{0, 210}";
}
);
layerId = "F9FA6E1A-C3C7-41E3-A510-E095624E106C";
shapes = (
{
closed = 1;
nodes = (
(330,420,l),
(330,480,l),
(540,480,l),
(540,300,l),
(480,300,l),
(480,420,l)
);
},
{
closed = 1;
nodes = (
(480,180,l),
(540,180,l),
(540,0,l),
(330,0,l),
(330,60,l),
(480,60,l)
);
},
{
closed = 1;
nodes = (
(60,150,l),
(60,0,l),
(270,0,l),
(270,60,l),
(120,60,l),
(120,150,l),
(420,150,l),
(420,210,l),
(120,210,l),
(120,270,l),
(420,270,l),
(420,330,l),
(120,330,l),
(120,420,l),
(270,420,l),
(270,480,l),
(60,480,l),
(60,330,l),
(0,330,l),
(0,270,l),
(60,270,l),
(60,210,l),
(0,210,l),
(0,150,l)
);
}
);
width = 600;
}
);
unicode = 8364;
},
{
glyphname = percent;
layers = (
{
guides = (
{
position = "{0, 480}";
},
{
angle = 90;
position = "{480, 0}";
},
{
angle = 90;
position = "{60, 0}";
},
{
position = "{0, 420}";
},
{
angle = 90;
position = "{240, 0}";
},
{
angle = 90;
position = "{210, 0}";
},
{
angle = 90;
position = "{270, 0}";
showMeasurement = 1;
},
{
position = "{0, 240}";
},
{
position = "{0, 270}";
}
);
layerId = "F9FA6E1A-C3C7-41E3-A510-E095624E106C";
shapes = (
{
closed = 1;
nodes = (
(60,420,l),
(60,330,l),
(150,330,l),
(150,420,l)
);
},
{
closed = 1;
nodes = (
(210,330,l),
(150,270,l),
(0,270,l),
(0,480,l),
(210,480,l)
);
},
{
closed = 1;
nodes = (
(420,60,l),
(420,150,l),
(330,150,l),
(330,60,l)
);
},
{
closed = 1;
nodes = (
(270,0,l),
(270,150,l),
(330,210,l),
(480,210,l),
(480,0,l)
);
},
{
closed = 1;
nodes = (
(0,0,l),
(210,0,l),
(210,60,l),
(102,60,l),
(480,438,l),
(480,480,l),
(270,480,l),
(270,420,l),
(378,420,l),
(0,43,l)
);
}
);
width = 540;
}
);
unicode = 37;
},
{
glyphname = ampersand;
layers = (
{
guides = (
{
angle = 90;
position = "{60, 0}";
},
{
position = "{0, 420}";
},
{
angle = 90;
position = "{420, 0}";
},
{
position = "{0, 60}";
},
{
angle = 90;
position = "{240, 0}";
},
{
angle = 90;
position = "{210, 0}";
},
{
angle = 90;
position = "{270, 0}";
},
{
position = "{0, 240}";
},
{
position = "{0, 270}";
},
{
position = "{0, 210}";
},
{
angle = 90;
position = "{480, 0}";
}
);
layerId = "F9FA6E1A-C3C7-41E3-A510-E095624E106C";
shapes = (
{
closed = 1;
nodes = (
(360,420,l),
(361,330,l),
(421,330,l),
(420,480,l),
(270,480,l),
(270,420,l)
);
},
{
closed = 1;
nodes = (
(228,210,l),
(303,135,l),
(228,60,l),
(60,60,l),
(60,210,l)
);
},
{
closed = 1;
nodes = (
(168,270,l),
(0,270,l),
(0,0,l),
(252,0,l),
(345,93,l),
(438,0,l),
(480,0,l),
(480,42,l),
(387,135,l),
(480,228,l),
(480,270,l),
(438,270,l),
(345,177,l),
(102,420,l),
(210,420,l),
(210,480,l),
(0,480,l),
(0,438,l)
);
}
);
width = 540;
}
);
unicode = 38;
},
{
glyphname = parenleft;
layers = (
{
guides = (
{
position = "{0, 420}";
},
{
position = "{0, 60}";
},
{
position = "{0, 120}";
},
{
position = "{0, 480}";
},
{
position = "{0, 270}";
}
);
layerId = "F9FA6E1A-C3C7-41E3-A510-E095624E106C";
shapes = (
{
closed = 1;
nodes = (
(60,420,l),
(120,420,l),
(120,480,l),
(60,480,l),
(60,420,l),
(0,420,l),
(0,60,l),
(60,60,l),
(60,0,l),
(120,0,l),
(120,60,l),
(60,60,l)
);
}
);
width = 180;
}
);
unicode = 40;
},
{
glyphname = parenright;
layers = (
{
guides = (
{
position = "{0, 420}";
},
{
position = "{0, 60}";
},
{
position = "{0, 120}";
},
{
position = "{0, 480}";
},
{
position = "{0, 270}";
}
);
layerId = "F9FA6E1A-C3C7-41E3-A510-E095624E106C";
shapes = (
{
closed = 1;
nodes = (
(60,420,l),
(60,60,l),
(0,60,l),
(0,0,l),
(60,0,l),
(60,60,l),
(120,60,l),
(120,420,l),
(60,420,l),
(60,480,l),
(0,480,l),
(0,420,l)
);
}
);
width = 180;
}
);
unicode = 41;
},
{
glyphname = braceleft;
layers = (
{
guides = (
{
position = "{0, 420}";
},
{
position = "{0, 60}";
},
{
position = "{0, 120}";
},
{
position = "{0, 480}";
},
{
position = "{0, 270}";
},
{
position = "{0, 240}";
}
);
layerId = "F9FA6E1A-C3C7-41E3-A510-E095624E106C";
shapes = (
{
closed = 1;
nodes = (
(60,0,l),
(180,0,l),
(180,60,l),
(120,60,l),
(120,210,l),
(60,210,l),
(60,270,l),
(120,270,l),
(120,420,l),
(180,420,l),
(180,480,l),
(60,480,l),
(60,270,l),
(0,270,l),
(0,210,l),
(60,210,l)
);
}
);
width = 240;
}
);
unicode = 123;
},
{
glyphname = bar;
layers = (
{
guides = (
{
position = "{0, 420}";
},
{
position = "{0, 60}";
},
{
position = "{0, 120}";
},
{
position = "{0, 480}";
}
);
layerId = "F9FA6E1A-C3C7-41E3-A510-E095624E106C";
shapes = (
{
closed = 1;
nodes = (
(0,-120,l),
(60,-120,l),
(60,480,l),
(0,480,l)
);
}
);
width = 120;
}
);
unicode = 124;
},
{
glyphname = braceright;
layers = (
{
guides = (
{
position = "{0, 420}";
},
{
position = "{0, 60}";
},
{
position = "{0, 120}";
},
{
position = "{0, 480}";
},
{
position = "{0, 270}";
},
{
position = "{0, 240}";
}
);
layerId = "F9FA6E1A-C3C7-41E3-A510-E095624E106C";
shapes = (
{
closed = 1;
nodes = (
(120,0,l),
(120,210,l),
(180,210,l),
(180,270,l),
(120,270,l),
(120,480,l),
(0,480,l),
(0,420,l),
(60,420,l),
(60,270,l),
(120,270,l),
(120,210,l),
(60,210,l),
(60,60,l),
(0,60,l),
(0,0,l)
);
}
);
width = 240;
}
);
unicode = 125;
},
{
glyphname = bracketleft;
layers = (
{
guides = (
{
angle = 90;
position = "{60, 0}";
},
{
position = "{0, 420}";
},
{
position = "{0, 60}";
}
);
layerId = "F9FA6E1A-C3C7-41E3-A510-E095624E106C";
shapes = (
{
closed = 1;
nodes = (
(120,420,l),
(120,480,l),
(0,480,l),
(0,0,l),
(120,0,l),
(120,60,l),
(60,60,l),
(60,420,l)
);
}
);
width = 180;
}
);
unicode = 91;
},
{
glyphname = bracketright;
layers = (
{
guides = (
{
angle = 90;
position = "{60, 0}";
},
{
position = "{0, 420}";
},
{
position = "{0, 60}";
}
);
layerId = "F9FA6E1A-C3C7-41E3-A510-E095624E106C";
shapes = (
{
closed = 1;
nodes = (
(0,420,l),
(60,420,l),
(60,60,l),
(0,60,l),
(0,0,l),
(120,0,l),
(120,480,l),
(0,480,l)
);
}
);
width = 180;
}
);
unicode = 93;
},
{
glyphname = quoteleft;
layers = (
{
guides = (
{
position = "{0, 420}";
},
{
position = "{0, 60}";
}
);
layerId = "F9FA6E1A-C3C7-41E3-A510-E095624E106C";
shapes = (
{
closed = 1;
nodes = (
(0,360,l),
(60,360,l),
(60,480,l),
(0,420,l)
);
}
);
width = 120;
}
);
unicode = 8216;
},
{
glyphname = quoteright;
layers = (
{
guides = (
{
position = "{0, 420}";
},
{
position = "{0, 60}";
}
);
layerId = "F9FA6E1A-C3C7-41E3-A510-E095624E106C";
shapes = (
{
closed = 1;
nodes = (
(60,480,l),
(60,420,l),
(0,360,l),
(0,480,l)
);
}
);
width = 120;
}
);
unicode = 8217;
},
{
glyphname = quotedblleft;
layers = (
{
guides = (
{
position = "{0, 420}";
},
{
position = "{0, 60}";
}
);
layerId = "F9FA6E1A-C3C7-41E3-A510-E095624E106C";
shapes = (
{
closed = 1;
nodes = (
(0,360,l),
(60,360,l),
(60,480,l),
(0,420,l)
);
},
{
closed = 1;
nodes = (
(120,360,l),
(180,360,l),
(180,480,l),
(120,420,l)
);
}
);
width = 240;
}
);
unicode = 8220;
},
{
glyphname = quotedblright;
layers = (
{
guides = (
{
position = "{0, 420}";
},
{
position = "{0, 60}";
}
);
layerId = "F9FA6E1A-C3C7-41E3-A510-E095624E106C";
shapes = (
{
closed = 1;
nodes = (
(180,480,l),
(120,480,l),
(120,360,l),
(180,420,l)
);
},
{
closed = 1;
nodes = (
(60,480,l),
(0,480,l),
(0,360,l),
(60,420,l)
);
}
);
width = 240;
}
);
unicode = 8221;
},
{
glyphname = quotesinglbase;
layers = (
{
guides = (
{
position = "{0, 420}";
},
{
position = "{0, 60}";
}
);
layerId = "F9FA6E1A-C3C7-41E3-A510-E095624E106C";
shapes = (
{
closed = 1;
nodes = (
(60,120,l),
(60,0,l),
(0,-60,l),
(0,120,l)
);
}
);
width = 120;
}
);
unicode = 8218;
},
{
glyphname = quotedblbase;
layers = (
{
guides = (
{
position = "{0, 420}";
},
{
position = "{0, 60}";
}
);
layerId = "F9FA6E1A-C3C7-41E3-A510-E095624E106C";
shapes = (
{
closed = 1;
nodes = (
(60,120,l),
(60,60,l),
(0,0,l),
(0,120,l)
);
},
{
closed = 1;
nodes = (
(180,120,l),
(180,60,l),
(120,0,l),
(120,120,l)
);
}
);
width = 240;
}
);
unicode = 8222;
},
{
glyphname = bullet;
layers = (
{
guides = (
{
position = "{0, 420}";
},
{
position = "{0, 60}";
},
{
position = "{0, 210}";
}
);
layerId = "F9FA6E1A-C3C7-41E3-A510-E095624E106C";
shapes = (
{
closed = 1;
nodes = (
(0,210,l),
(60,210,l),
(60,270,l),
(0,270,l)
);
}
);
width = 120;
}
);
unicode = 8226;
},
{
glyphname = underscore;
layers = (
{
guides = (
{
angle = 90;
position = "{60, 0}";
},
{
position = "{0, 420}";
},
{
angle = 90;
position = "{420, 0}";
},
{
position = "{0, 60}";
},
{
angle = 90;
position = "{240, 0}";
},
{
angle = 90;
position = "{210, 0}";
},
{
angle = 90;
position = "{270, 0}";
},
{
position = "{0, 0}";
},
{
position = "{0, -60}";
}
);
layerId = "F9FA6E1A-C3C7-41E3-A510-E095624E106C";
shapes = (
{
closed = 1;
nodes = (
(0,-120,l),
(480,-120,l),
(480,-60,l),
(0,-60,l)
);
}
);
width = 540;
}
);
unicode = 95;
},
{
glyphname = endash;
layers = (
{
guides = (
{
angle = 90;
position = "{60, 0}";
},
{
position = "{0, 420}";
},
{
angle = 90;
position = "{420, 0}";
},
{
position = "{0, 60}";
},
{
angle = 90;
position = "{240, 0}";
},
{
angle = 90;
position = "{210, 0}";
},
{
angle = 90;
position = "{270, 0}";
},
{
position = "{0, 0}";
},
{
position = "{0, -60}";
},
{
position = "{0, 480}";
},
{
position = "{0, 210}";
}
);
layerId = "F9FA6E1A-C3C7-41E3-A510-E095624E106C";
shapes = (
{
closed = 1;
nodes = (
(0,210,l),
(240,210,l),
(240,270,l),
(0,270,l)
);
}
);
width = 300;
}
);
unicode = 8211;
},
{
glyphname = emdash;
layers = (
{
guides = (
{
angle = 90;
position = "{60, 0}";
},
{
position = "{0, 420}";
},
{
angle = 90;
position = "{420, 0}";
},
{
position = "{0, 60}";
},
{
angle = 90;
position = "{240, 0}";
},
{
angle = 90;
position = "{210, 0}";
},
{
angle = 90;
position = "{270, 0}";
},
{
position = "{0, 0}";
},
{
position = "{0, -60}";
},
{
position = "{0, 480}";
},
{
position = "{0, 210}";
}
);
layerId = "F9FA6E1A-C3C7-41E3-A510-E095624E106C";
shapes = (
{
closed = 1;
nodes = (
(0,210,l),
(480,210,l),
(480,270,l),
(0,270,l)
);
}
);
width = 540;
}
);
unicode = 8212;
},
{
glyphname = macron;
layers = (
{
guides = (
{
angle = 90;
position = "{60, 0}";
},
{
position = "{0, 420}";
},
{
angle = 90;
position = "{420, 0}";
},
{
position = "{0, 60}";
},
{
angle = 90;
position = "{240, 0}";
},
{
angle = 90;
position = "{210, 0}";
},
{
angle = 90;
position = "{270, 0}";
},
{
position = "{0, 0}";
},
{
position = "{0, -60}";
},
{
position = "{0, 540}";
}
);
layerId = "F9FA6E1A-C3C7-41E3-A510-E095624E106C";
shapes = (
{
closed = 1;
nodes = (
(0,420,l),
(180,420,l),
(180,480,l),
(0,480,l)
);
}
);
width = 240;
}
);
unicode = 175;
},
{
glyphname = logicalnot;
layers = (
{
guides = (
{
position = "{0, 420}";
},
{
position = "{0, 60}";
},
{
position = "{0, 120}";
},
{
position = "{0, 480}";
},
{
position = "{0, 270}";
},
{
position = "{0, 240}";
}
);
layerId = "F9FA6E1A-C3C7-41E3-A510-E095624E106C";
shapes = (
{
closed = 1;
nodes = (
(300,270,l),
(0,270,l),
(0,210,l),
(240,210,l),
(240,90,l),
(300,90,l)
);
}
);
width = 360;
}
);
unicode = 172;
},
{
glyphname = trademark;
layers = (
{
guides = (
{
position = "{0, 420}";
},
{
position = "{0, 60}";
},
{
position = "{0, 120}";
},
{
position = "{0, 480}";
},
{
position = "{0, 270}";
},
{
position = "{0, 375}";
},
{
angle = 90;
position = "{420, 0}";
},
{
angle = 90;
position = "{210, 0}";
}
);
layerId = "F9FA6E1A-C3C7-41E3-A510-E095624E106C";
shapes = (
{
closed = 1;
nodes = (
(222,480,l),
(0,480,l),
(0,420,l),
(60,420,l),
(60,270,l),
(120,270,l),
(120,420,l),
(180,420,l),
(180,270,l),
(240,270,l),
(240,378,l),
(300,318,l),
(360,378,l),
(360,270,l),
(420,270,l),
(420,480,l),
(378,480,l),
(300,402,l)
);
}
);
width = 480;
}
);
unicode = 8482;
},
{
glyphname = registered;
layers = (
{
guides = (
{
angle = 90;
position = "{60, 0}";
},
{
position = "{0, 420}";
},
{
angle = 90;
position = "{420, 0}";
},
{
position = "{0, 60}";
},
{
angle = 90;
position = "{240, 0}";
},
{
angle = 90;
position = "{210, 0}";
},
{
angle = 90;
position = "{270, 0}";
},
{
angle = 90;
position = "{120, 0}";
},
{
angle = 90;
position = "{360, 0}";
},
{
position = "{0, 360}";
},
{
position = "{0, 120}";
},
{
angle = 90;
position = "{180, 0}";
},
{
angle = 90;
position = "{300, 0}";
},
{
position = "{0, 300}";
},
{
position = "{0, 180}";
}
);
layerId = "F9FA6E1A-C3C7-41E3-A510-E095624E106C";
shapes = (
{
closed = 1;
nodes = (
(480,480,l),
(480,0,l),
(270,0,l),
(270,60,l),
(420,60,l),
(420,420,l),
(270,420,l),
(270,480,l)
);
},
{
closed = 1;
nodes = (
(210,60,l),
(210,0,l),
(0,0,l),
(0,480,l),
(210,480,l),
(210,420,l),
(60,420,l),
(60,60,l)
);
},
{
closed = 1;
nodes = (
(282,240,l),
(360,162,l),
(360,120,l),
(318,120,l),
(258,180,l),
(180,180,l),
(180,120,l),
(120,120,l),
(120,360,l),
(360,360,l),
(360,240,l),
(300,240,l),
(300,300,l),
(180,300,l),
(180,240,l)
);
}
);
width = 540;
}
);
unicode = 174;
},
{
glyphname = copyright;
layers = (
{
guides = (
{
angle = 90;
position = "{60, 0}";
},
{
position = "{0, 420}";
},
{
angle = 90;
position = "{420, 0}";
},
{
position = "{0, 60}";
},
{
angle = 90;
position = "{240, 0}";
},
{
angle = 90;
position = "{210, 0}";
},
{
angle = 90;
position = "{270, 0}";
},
{
angle = 90;
position = "{120, 0}";
},
{
angle = 90;
position = "{360, 0}";
},
{
position = "{0, 360}";
},
{
position = "{0, 120}";
},
{
angle = 90;
position = "{180, 0}";
},
{
angle = 90;
position = "{300, 0}";
},
{
position = "{0, 300}";
},
{
position = "{0, 180}";
}
);
layerId = "F9FA6E1A-C3C7-41E3-A510-E095624E106C";
shapes = (
{
closed = 1;
nodes = (
(480,480,l),
(480,0,l),
(270,0,l),
(270,60,l),
(420,60,l),
(420,420,l),
(270,420,l),
(270,480,l)
);
},
{
closed = 1;
nodes = (
(210,60,l),
(210,0,l),
(0,0,l),
(0,480,l),
(210,480,l),
(210,420,l),
(60,420,l),
(60,60,l)
);
},
{
closed = 1;
nodes = (
(120,360,l),
(360,360,l),
(360,240,l),
(300,240,l),
(300,300,l),
(180,300,l),
(180,180,l),
(360,180,l),
(360,120,l),
(120,120,l)
);
}
);
width = 540;
}
);
unicode = 169;
},
{
glyphname = currency;
layers = (
{
guides = (
{
angle = 90;
position = "{0, 0}";
},
{
position = "{0, 420}";
},
{
angle = 90;
position = "{360, 0}";
},
{
position = "{0, 60}";
},
{
angle = 90;
position = "{180, 0}";
},
{
angle = 90;
position = "{150, 0}";
},
{
angle = 90;
position = "{210, 0}";
},
{
angle = 90;
position = "{60, 0}";
},
{
angle = 90;
position = "{300, 0}";
},
{
position = "{0, 360}";
},
{
position = "{0, 120}";
},
{
angle = 90;
position = "{120, 0}";
},
{
angle = 90;
position = "{240, 0}";
},
{
position = "{0, 300}";
},
{
position = "{0, 180}";
}
);
layerId = "F9FA6E1A-C3C7-41E3-A510-E095624E106C";
shapes = (
{
closed = 1;
nodes = (
(240,180,l),
(240,300,l),
(120,300,l),
(120,180,l)
);
},
{
closed = 1;
nodes = (
(102,120,l),
(42,60,l),
(0,103,l),
(60,163,l),
(60,318,l),
(0,378,l),
(42,420,l),
(102,360,l),
(258,360,l),
(318,420,l),
(360,378,l),
(300,318,l),
(300,163,l),
(360,103,l),
(318,60,l),
(258,120,l)
);
}
);
width = 420;
}
);
unicode = 164;
},
{
glyphname = cent;
layers = (
{
guides = (
{
angle = 90;
position = "{60, 0}";
},
{
position = "{0, 420}";
},
{
angle = 90;
position = "{420, 0}";
},
{
position = "{0, 60}";
},
{
angle = 90;
position = "{240, 0}";
},
{
angle = 90;
position = "{210, 0}";
},
{
angle = 90;
position = "{270, 0}";
},
{
position = "{0, 240}";
},
{
position = "{0, 270}";
},
{
position = "{0, 210}";
}
);
layerId = "F9FA6E1A-C3C7-41E3-A510-E095624E106C";
shapes = (
{
closed = 1;
nodes = (
(60,60,l),
(60,420,l),
(420,420,l),
(420,300,l),
(480,300,l),
(480,480,l),
(270,480,l),
(270,540,l),
(210,540,l),
(210,480,l),
(0,480,l),
(0,0,l),
(210,0,l),
(210,-60,l),
(270,-60,l),
(270,0,l),
(480,0,l),
(480,180,l),
(420,180,l),
(420,60,l)
);
}
);
width = 540;
}
);
unicode = 162;
},
{
glyphname = sterling;
layers = (
{
guides = (
{
angle = 90;
position = "{60, 0}";
},
{
position = "{0, 420}";
},
{
angle = 90;
position = "{420, 0}";
},
{
position = "{0, 60}";
},
{
angle = 90;
position = "{240, 0}";
},
{
angle = 90;
position = "{210, 0}";
},
{
angle = 90;
position = "{270, 0}";
},
{
position = "{0, 240}";
},
{
position = "{0, 270}";
},
{
position = "{0, 210}";
}
);
layerId = "F9FA6E1A-C3C7-41E3-A510-E095624E106C";
shapes = (
{
closed = 1;
nodes = (
(120,210,l),
(120,60,l),
(420,60,l),
(420,120,l),
(480,120,l),
(480,0,l),
(0,0,l),
(0,60,l),
(60,60,l),
(60,210,l),
(0,210,l),
(0,270,l),
(60,270,l),
(60,480,l),
(480,480,l),
(480,360,l),
(420,360,l),
(420,420,l),
(120,420,l),
(120,270,l),
(420,270,l),
(420,210,l)
);
}
);
width = 540;
}
);
unicode = 163;
},
{
glyphname = yen;
layers = (
{
guides = (
{
angle = 90;
position = "{60, 0}";
},
{
position = "{0, 420}";
},
{
angle = 90;
position = "{420, 0}";
},
{
position = "{0, 60}";
},
{
angle = 90;
position = "{240, 0}";
},
{
angle = 90;
position = "{210, 0}";
},
{
angle = 90;
position = "{270, 0}";
}
);
layerId = "F9FA6E1A-C3C7-41E3-A510-E095624E106C";
shapes = (
{
closed = 1;
nodes = (
(312,270,l),
(480,270,l),
(480,210,l),
(270,210,l),
(270,150,l),
(480,150,l),
(480,90,l),
(270,90,l),
(270,0,l),
(210,0,l),
(210,90,l),
(0,90,l),
(0,150,l),
(210,150,l),
(210,210,l),
(0,210,l),
(0,270,l),
(168,270,l),
(0,437,l),
(0,480,l),
(210,480,l),
(210,420,l),
(102,420,l),
(240,282,l),
(378,420,l),
(270,420,l),
(270,480,l),
(480,480,l),
(480,438,l)
);
}
);
width = 540;
}
);
unicode = 165;
},
{
glyphname = florin;
layers = (
{
guides = (
{
position = "{0, 420}";
},
{
position = "{0, 60}";
},
{
position = "{0, 120}";
},
{
position = "{0, 480}";
},
{
position = "{0, 270}";
}
);
layerId = "F9FA6E1A-C3C7-41E3-A510-E095624E106C";
shapes = (
{
closed = 1;
nodes = (
(120,-60,l),
(0,-60,l),
(0,0,l),
(60,0,l),
(60,315,l),
(0,315,l),
(0,375,l),
(60,375,l),
(60,480,l),
(180,480,l),
(180,420,l),
(120,420,l),
(120,375,l),
(180,375,l),
(180,315,l),
(120,315,l)
);
}
);
width = 240;
}
);
unicode = 402;
},
{
glyphname = minus;
layers = (
{
guides = (
{
position = "{0, 420}";
},
{
position = "{0, 60}";
},
{
position = "{0, 120}";
},
{
position = "{0, 480}";
},
{
position = "{0, 270}";
},
{
position = "{0, 240}";
}
);
layerId = "F9FA6E1A-C3C7-41E3-A510-E095624E106C";
shapes = (
{
closed = 1;
nodes = (
(300,210,l),
(300,270,l),
(0,270,l),
(0,210,l)
);
}
);
width = 360;
}
);
unicode = 8722;
},
{
glyphname = plusminus;
layers = (
{
guides = (
{
position = "{0, 420}";
},
{
position = "{0, 60}";
},
{
position = "{0, 120}";
},
{
position = "{0, 480}";
},
{
position = "{0, 270}";
},
{
position = "{0, 240}";
}
);
layerId = "F9FA6E1A-C3C7-41E3-A510-E095624E106C";
shapes = (
{
closed = 1;
nodes = (
(180,210,l),
(300,210,l),
(300,270,l),
(180,270,l),
(180,390,l),
(120,390,l),
(120,270,l),
(0,270,l),
(0,210,l),
(120,210,l),
(120,90,l),
(180,90,l)
);
},
{
closed = 1;
nodes = (
(300,0,l),
(300,60,l),
(0,60,l),
(0,0,l)
);
}
);
width = 360;
}
);
unicode = 177;
},
{
glyphname = multiply;
layers = (
{
guides = (
{
position = "{0, 420}";
},
{
position = "{0, 60}";
},
{
position = "{0, 120}";
},
{
position = "{0, 480}";
},
{
position = "{0, 270}";
},
{
position = "{0, 240}";
},
{
angle = 90;
position = "{150, 0}";
}
);
layerId = "F9FA6E1A-C3C7-41E3-A510-E095624E106C";
shapes = (
{
closed = 1;
nodes = (
(150.127,197.275,l),
(256.192,91.21,l),
(298.618,133.636,l),
(192.553,239.701,l),
(298.618,345.766,l),
(256.192,388.192,l),
(150.127,282.127,l),
(44.062,388.192,l),
(1.636,345.766,l),
(107.701,239.701,l),
(1.636,133.636,l),
(44.062,91.21,l)
);
}
);
width = 360;
}
);
unicode = 215;
},
{
glyphname = divide;
layers = (
{
guides = (
{
position = "{0, 420}";
},
{
position = "{0, 60}";
},
{
position = "{0, 120}";
},
{
position = "{0, 480}";
},
{
position = "{0, 270}";
},
{
position = "{0, 240}";
}
);
layerId = "F9FA6E1A-C3C7-41E3-A510-E095624E106C";
shapes = (
{
closed = 1;
nodes = (
(120,90,l),
(180,90,l),
(180,150,l),
(120,150,l)
);
},
{
closed = 1;
nodes = (
(300,210,l),
(0,210,l),
(0,270,l),
(300,270,l)
);
},
{
closed = 1;
nodes = (
(120,330,l),
(180,330,l),
(180,390,l),
(120,390,l)
);
}
);
width = 360;
}
);
unicode = 247;
},
{
glyphname = brokenbar;
layers = (
{
guides = (
{
position = "{0, 420}";
},
{
position = "{0, 60}";
},
{
position = "{0, 120}";
},
{
position = "{0, 480}";
},
{
position = "{0, 240}";
},
{
position = "{0, 300}";
},
{
position = "{0, 210}";
}
);
layerId = "F9FA6E1A-C3C7-41E3-A510-E095624E106C";
shapes = (
{
closed = 1;
nodes = (
(0,480,l),
(60,480,l),
(60,0,l),
(0,0,l)
);
},
{
closed = 1;
nodes = (
(0,210,l),
(60,210,l),
(60,270,l),
(0,270,l)
);
}
);
width = 120;
}
);
unicode = 166;
},
{
glyphname = ellipsis;
layers = (
{
guides = (
{
position = "{0, 420}";
},
{
position = "{0, 60}";
}
);
layerId = "F9FA6E1A-C3C7-41E3-A510-E095624E106C";
shapes = (
{
closed = 1;
nodes = (
(0,0,l),
(60,0,l),
(60,60,l),
(0,60,l)
);
},
{
closed = 1;
nodes = (
(120,0,l),
(180,0,l),
(180,60,l),
(120,60,l)
);
},
{
closed = 1;
nodes = (
(240,0,l),
(300,0,l),
(300,60,l),
(240,60,l)
);
}
);
width = 360;
}
);
unicode = 8230;
},
{
glyphname = periodcentered;
layers = (
{
guides = (
{
position = "{0, 420}";
},
{
position = "{0, 60}";
},
{
position = "{0, 210}";
}
);
layerId = "F9FA6E1A-C3C7-41E3-A510-E095624E106C";
shapes = (
{
closed = 1;
nodes = (
(0,210,l),
(60,210,l),
(60,270,l),
(0,270,l)
);
}
);
width = 120;
}
);
unicode = 183;
},
{
glyphname = exclamdown;
layers = (
{
guides = (
{
position = "{0, 420}";
},
{
position = "{0, 60}";
},
{
position = "{0, 120}";
},
{
position = "{0, 270}";
}
);
layerId = "F9FA6E1A-C3C7-41E3-A510-E095624E106C";
shapes = (
{
closed = 1;
nodes = (
(0,270,l),
(0,210,l),
(60,210,l),
(60,270,l)
);
},
{
closed = 1;
nodes = (
(0,150,l),
(0,-210,l),
(60,-210,l),
(60,150,l)
);
}
);
width = 120;
}
);
unicode = 161;
},
{
glyphname = questiondown;
layers = (
{
guides = (
{
position = "{0, 420}";
},
{
position = "{0, 60}";
},
{
angle = 90;
position = "{480, 0}";
},
{
angle = 90;
position = "{240, 0}";
},
{
angle = 90;
position = "{210, 0}";
},
{
angle = 90;
position = "{270, 0}";
},
{
position = "{0, 270}";
},
{
position = "{0, 210}";
},
{
position = "{0, 480}";
}
);
layerId = "F9FA6E1A-C3C7-41E3-A510-E095624E106C";
shapes = (
{
closed = 1;
nodes = (
(210,-150,l),
(60,-150,l),
(60,-60,l),
(0,-60,l),
(0,-210,l),
(210,-210,l)
);
},
{
closed = 1;
nodes = (
(270,-210,l),
(480,-210,l),
(480,60,l),
(270,60,l),
(270,150,l),
(210,150,l),
(210,0,l),
(420,0,l),
(420,-150,l),
(270,-150,l)
);
},
{
closed = 1;
nodes = (
(210,210,l),
(270,210,l),
(270,270,l),
(210,270,l)
);
}
);
width = 540;
}
);
unicode = 191;
},
{
glyphname = degree;
layers = (
{
guides = (
{
position = "{0, 420}";
},
{
position = "{0, 60}";
},
{
position = "{0, 120}";
},
{
position = "{0, 480}";
},
{
position = "{0, 300}";
},
{
position = "{0, 375}";
},
{
angle = 90;
position = "{420, 0}";
},
{
angle = 90;
position = "{180, 0}";
}
);
layerId = "F9FA6E1A-C3C7-41E3-A510-E095624E106C";
shapes = (
{
closed = 1;
nodes = (
(180,300,l),
(0,300,l),
(0,480,l),
(180,480,l)
);
},
{
closed = 1;
nodes = (
(60,360,l),
(120,360,l),
(120,420,l),
(60,420,l)
);
}
);
width = 270;
}
);
unicode = 176;
},
{
glyphname = ordfeminine;
layers = (
{
guides = (
{
position = "{0, 420}";
},
{
position = "{0, 60}";
},
{
position = "{0, 120}";
},
{
position = "{0, 480}";
},
{
position = "{0, 270}";
},
{
position = "{0, 375}";
},
{
angle = 90;
position = "{420, 0}";
},
{
angle = 90;
position = "{210, 0}";
}
);
layerId = "F9FA6E1A-C3C7-41E3-A510-E095624E106C";
shapes = (
{
closed = 1;
nodes = (
(150,420,l),
(60,420,l),
(60,480,l),
(210,480,l),
(210,270,l),
(150,270,l)
);
},
{
closed = 1;
nodes = (
(0,270,l),
(0,420,l),
(60,420,l),
(60,330,l),
(120,330,l),
(120,270,l)
);
}
);
width = 270;
}
);
unicode = 170;
},
{
glyphname = ordmasculine;
layers = (
{
guides = (
{
position = "{0, 420}";
},
{
position = "{0, 60}";
},
{
position = "{0, 120}";
},
{
position = "{0, 480}";
},
{
position = "{0, 0}";
},
{
position = "{0, 375}";
},
{
angle = 90;
position = "{420, 0}";
},
{
angle = 90;
position = "{210, 0}";
showMeasurement = 1;
}
);
layerId = "F9FA6E1A-C3C7-41E3-A510-E095624E106C";
shapes = (
{
closed = 0;
nodes = (
(0,480,l),
(0,420,l)
);
},
{
closed = 1;
nodes = (
(210,270,l),
(210,480,l),
(0,480,l),
(0,270,l)
);
},
{
closed = 1;
nodes = (
(150,330,l),
(60,330,l),
(60,420,l),
(150,420,l)
);
}
);
width = 270;
}
);
unicode = 186;
},
{
glyphname = onesuperior;
layers = (
{
guides = (
{
position = "{0, 420}";
},
{
position = "{0, 60}";
},
{
position = "{0, 120}";
},
{
position = "{0, 480}";
},
{
position = "{0, 270}";
},
{
position = "{0, 375}";
},
{
angle = 90;
position = "{330, 0}";
},
{
angle = 90;
position = "{120, 0}";
}
);
layerId = "F9FA6E1A-C3C7-41E3-A510-E095624E106C";
shapes = (
{
closed = 1;
nodes = (
(120,270,l),
(60,270,l),
(60,420,l),
(0,420,l),
(0,480,l),
(120,480,l)
);
}
);
width = 180;
}
);
unicode = 185;
},
{
glyphname = twosuperior;
layers = (
{
guides = (
{
position = "{0, 420}";
showMeasurement = 1;
},
{
position = "{0, 60}";
},
{
position = "{0, 120}";
},
{
position = "{0, 480}";
},
{
position = "{0, 270}";
},
{
position = "{0, 375}";
},
{
angle = 90;
position = "{420, 0}";
},
{
angle = 90;
position = "{210, 0}";
}
);
layerId = "F9FA6E1A-C3C7-41E3-A510-E095624E106C";
shapes = (
{
closed = 1;
nodes = (
(108,420,l),
(0,420,l),
(0,480,l),
(168,480,l),
(210,438,l),
(102,330,l),
(210,330,l),
(210,270,l),
(0,270,l),
(0,313,l)
);
}
);
width = 270;
}
);
unicode = 178;
},
{
glyphname = threesuperior;
layers = (
{
guides = (
{
position = "{0, 420}";
},
{
position = "{0, 60}";
},
{
position = "{0, 120}";
},
{
position = "{0, 480}";
},
{
position = "{0, 270}";
},
{
position = "{0, 375}";
showMeasurement = 1;
},
{
angle = 90;
position = "{420, 0}";
},
{
angle = 90;
position = "{210, 0}";
}
);
layerId = "F9FA6E1A-C3C7-41E3-A510-E095624E106C";
shapes = (
{
closed = 1;
nodes = (
(150,405,l),
(30,405,l),
(30,345,l),
(150,345,l),
(150,330,l),
(0,330,l),
(0,270,l),
(210,270,l),
(210,437,l),
(168,480,l),
(0,480,l),
(0,420,l),
(150,420,l)
);
}
);
width = 270;
}
);
unicode = 179;
},
{
glyphname = fraction;
layers = (
{
guides = (
{
position = "{0, 480}";
}
);
layerId = "F9FA6E1A-C3C7-41E3-A510-E095624E106C";
shapes = (
{
closed = 1;
nodes = (
(0,43,l),
(438,480,l),
(480,480,l),
(480,438,l),
(42,0,l),
(0,0,l)
);
}
);
width = 540;
}
);
unicode = 8260;
},
{
glyphname = onequarter;
layers = (
{
guides = (
{
position = "{0, 480}";
}
);
layerId = "F9FA6E1A-C3C7-41E3-A510-E095624E106C";
shapes = (
{
closed = 1;
nodes = (
(0,43,l),
(438,480,l),
(480,480,l),
(480,438,l),
(42,0,l),
(0,0,l)
);
},
{
closed = 1;
nodes = (
(390,135,l),
(390,210,l),
(450,210,l),
(450,135,l),
(480,135,l),
(480,75,l),
(450,75,l),
(450,0,l),
(390,0,l),
(390,75,l),
(270,75,l),
(270,150,l),
(330,210,l),
(330,135,l)
);
},
{
closed = 1;
nodes = (
(120,270,l),
(60,270,l),
(60,420,l),
(0,420,l),
(0,480,l),
(120,480,l)
);
}
);
width = 540;
}
);
unicode = 188;
},
{
glyphname = onehalf;
layers = (
{
guides = (
{
position = "{0, 480}";
}
);
layerId = "F9FA6E1A-C3C7-41E3-A510-E095624E106C";
shapes = (
{
closed = 1;
nodes = (
(0,43,l),
(438,480,l),
(480,480,l),
(480,438,l),
(42,0,l),
(0,0,l)
);
},
{
closed = 1;
nodes = (
(120,270,l),
(60,270,l),
(60,420,l),
(0,420,l),
(0,480,l),
(120,480,l)
);
},
{
closed = 1;
nodes = (
(378,150,l),
(270,150,l),
(330,210,l),
(438,210,l),
(480,168,l),
(372,60,l),
(480,60,l),
(480,0,l),
(270,0,l),
(270,43,l)
);
}
);
width = 540;
}
);
unicode = 189;
},
{
glyphname = threequarters;
layers = (
{
guides = (
{
position = "{0, 480}";
}
);
layerId = "F9FA6E1A-C3C7-41E3-A510-E095624E106C";
shapes = (
{
closed = 1;
nodes = (
(0,43,l),
(438,480,l),
(480,480,l),
(480,438,l),
(42,0,l),
(0,0,l)
);
},
{
closed = 1;
nodes = (
(150,420,l),
(0,420,l),
(0,480,l),
(168,480,l),
(210,437,l),
(210,330,l),
(150,270,l),
(0,270,l),
(0,330,l),
(150,330,l),
(150,345,l),
(30,345,l),
(30,405,l),
(150,405,l)
);
},
{
closed = 1;
nodes = (
(330,135,l),
(330,210,l),
(270,150,l),
(270,75,l),
(390,75,l),
(390,0,l),
(450,0,l),
(450,75,l),
(480,75,l),
(480,135,l),
(450,135,l),
(450,210,l),
(390,210,l),
(390,135,l)
);
}
);
width = 540;
}
);
unicode = 190;
},
{
glyphname = perthousand;
layers = (
{
guides = (
{
position = "{0, 480}";
},
{
angle = 90;
position = "{480, 0}";
},
{
angle = 90;
position = "{60, 0}";
},
{
position = "{0, 420}";
},
{
angle = 90;
position = "{240, 0}";
},
{
angle = 90;
position = "{210, 0}";
},
{
angle = 90;
position = "{270, 0}";
showMeasurement = 1;
},
{
position = "{0, 240}";
},
{
position = "{0, 270}";
}
);
layerId = "F9FA6E1A-C3C7-41E3-A510-E095624E106C";
shapes = (
{
closed = 1;
nodes = (
(690,60,l),
(690,150,l),
(600,150,l),
(600,60,l)
);
},
{
closed = 1;
nodes = (
(540,210,l),
(750,210,l),
(750,0,l),
(540,0,l)
);
},
{
closed = 1;
nodes = (
(60,420,l),
(60,330,l),
(150,330,l),
(150,420,l)
);
},
{
closed = 1;
nodes = (
(210,330,l),
(150,270,l),
(0,270,l),
(0,480,l),
(210,480,l)
);
},
{
closed = 1;
nodes = (
(420,60,l),
(420,150,l),
(330,150,l),
(330,60,l)
);
},
{
closed = 1;
nodes = (
(270,0,l),
(270,150,l),
(330,210,l),
(480,210,l),
(480,0,l)
);
},
{
closed = 1;
nodes = (
(0,0,l),
(210,0,l),
(210,60,l),
(102,60,l),
(480,438,l),
(480,480,l),
(270,480,l),
(270,420,l),
(378,420,l),
(0,43,l)
);
}
);
width = 810;
}
);
unicode = 8240;
},
{
glyphname = mu;
layers = (
{
guides = (
{
angle = 90;
position = "{60, 0}";
},
{
position = "{0, 420}";
},
{
position = "{0, 60}";
},
{
angle = 90;
position = "{210, 0}";
},
{
angle = 90;
position = "{270, 0}";
},
{
position = "{0, 270}";
},
{
position = "{0, 210}";
},
{
angle = 90;
position = "{330, 0}";
}
);
layerId = "F9FA6E1A-C3C7-41E3-A510-E095624E106C";
shapes = (
{
closed = 1;
nodes = (
(0,-180,l),
(0,270,l),
(60,270,l),
(60,60,l),
(210,60,l),
(150,0,l),
(60,0,l),
(60,-180,l)
);
},
{
closed = 1;
nodes = (
(210,60,l),
(210,270,l),
(270,270,l),
(270,84,l),
(312,43,l),
(312,0,l),
(270,0,l)
);
}
);
width = 372;
}
);
unicode = 956;
},
{
glyphname = paragraph;
layers = (
{
guides = (
{
position = "{0, 420}";
},
{
angle = 90;
position = "{270, 0}";
},
{
position = "{0, 60}";
},
{
angle = 90;
position = "{60, 0}";
},
{
position = "{0, 240}";
},
{
position = "{0, 270}";
},
{
position = "{0, 210}";
}
);
layerId = "F9FA6E1A-C3C7-41E3-A510-E095624E106C";
shapes = (
{
closed = 1;
nodes = (
(150,210,l),
(150,-120,l),
(210,-120,l),
(210,420,l),
(270,420,l),
(270,-120,l),
(330,-120,l),
(330,420,l),
(390,420,l),
(390,480,l),
(0,480,l),
(0,210,l)
);
}
);
width = 450;
}
);
unicode = 182;
},
{
glyphname = section;
layers = (
{
guides = (
{
angle = 90;
position = "{60, 0}";
},
{
position = "{0, 420}";
},
{
angle = 90;
position = "{420, 0}";
},
{
position = "{0, 60}";
},
{
angle = 90;
position = "{240, 0}";
},
{
angle = 90;
position = "{210, 0}";
},
{
angle = 90;
position = "{270, 0}";
},
{
position = "{0, 240}";
},
{
position = "{0, 270}";
},
{
position = "{0, 210}";
},
{
position = "{0, 480}";
}
);
layerId = "F9FA6E1A-C3C7-41E3-A510-E095624E106C";
shapes = (
{
closed = 1;
nodes = (
(210,60,l),
(0,60,l),
(0,0,l),
(270,0,l),
(270,180,l),
(60,180,l),
(60,270,l),
(0,270,l),
(0,120,l),
(210,120,l)
);
},
{
closed = 1;
nodes = (
(0,480,l),
(0,302,l),
(210,302,l),
(210,212,l),
(270,212,l),
(270,362,l),
(60,362,l),
(60,420,l),
(270,420,l),
(270,480,l)
);
}
);
width = 330;
}
);
unicode = 167;
},
{
glyphname = dagger;
layers = (
{
guides = (
{
position = "{0, 420}";
},
{
position = "{0, 60}";
},
{
position = "{0, 120}";
},
{
position = "{0, 480}";
},
{
position = "{0, 270}";
}
);
layerId = "F9FA6E1A-C3C7-41E3-A510-E095624E106C";
shapes = (
{
closed = 1;
nodes = (
(180,315,l),
(300,315,l),
(300,375,l),
(180,375,l),
(180,480,l),
(120,480,l),
(120,375,l),
(0,375,l),
(0,315,l),
(120,315,l),
(120,0,l),
(180,0,l)
);
}
);
width = 360;
}
);
unicode = 8224;
},
{
glyphname = daggerdbl;
layers = (
{
guides = (
{
position = "{0, 420}";
},
{
position = "{0, 60}";
},
{
position = "{0, 480}";
},
{
position = "{0, 270}";
},
{
position = "{0, 375}";
},
{
position = "{0, 105}";
}
);
layerId = "F9FA6E1A-C3C7-41E3-A510-E095624E106C";
shapes = (
{
closed = 1;
nodes = (
(120,165,l),
(0,165,l),
(0,105,l),
(120,105,l),
(120,0,l),
(180,0,l),
(180,105,l),
(300,105,l),
(300,165,l),
(180,165,l),
(180,315,l),
(300,315,l),
(300,375,l),
(180,375,l),
(180,480,l),
(120,480,l),
(120,375,l),
(0,375,l),
(0,315,l),
(120,315,l)
);
}
);
width = 360;
}
);
unicode = 8225;
},
{
glyphname = guilsinglleft;
layers = (
{
guides = (
{
position = "{0, 420}";
},
{
position = "{0, 60}";
},
{
position = "{0, 120}";
},
{
position = "{0, 480}";
},
{
position = "{0, 270}";
},
{
position = "{0, 240}";
},
{
angle = 90;
position = "{150, 0}";
},
{
angle = 90;
position = "{301, 0}";
}
);
layerId = "F9FA6E1A-C3C7-41E3-A510-E095624E106C";
shapes = (
{
closed = 1;
nodes = (
(0,240,l),
(151,391,l),
(193,348,l),
(84,240,l),
(192,133,l),
(150,90,l)
);
}
);
width = 253;
}
);
unicode = 8249;
},
{
glyphname = guilsinglright;
layers = (
{
guides = (
{
position = "{0, 420}";
},
{
position = "{0, 60}";
},
{
position = "{0, 120}";
},
{
position = "{0, 480}";
},
{
position = "{0, 270}";
},
{
position = "{0, 240}";
},
{
angle = 90;
position = "{150, 0}";
},
{
angle = 90;
position = "{301, 0}";
}
);
layerId = "F9FA6E1A-C3C7-41E3-A510-E095624E106C";
shapes = (
{
closed = 1;
nodes = (
(193,240,l),
(42,391,l),
(0,348,l),
(109,240,l),
(1,133,l),
(43,90,l)
);
}
);
width = 253;
}
);
unicode = 8250;
},
{
glyphname = guillemotleft;
layers = (
{
guides = (
{
position = "{0, 420}";
},
{
position = "{0, 60}";
},
{
position = "{0, 120}";
},
{
position = "{0, 480}";
},
{
position = "{0, 270}";
},
{
position = "{0, 240}";
},
{
angle = 90;
position = "{150, 0}";
},
{
angle = 90;
position = "{301, 0}";
},
{
angle = 90;
position = "{168, 0}";
}
);
layerId = "F9FA6E1A-C3C7-41E3-A510-E095624E106C";
shapes = (
{
closed = 1;
nodes = (
(0,240,l),
(151,391,l),
(193,348,l),
(84,240,l),
(192,133,l),
(150,90,l)
);
},
{
closed = 1;
nodes = (
(168,240,l),
(319,391,l),
(361,348,l),
(252,240,l),
(360,133,l),
(318,90,l)
);
}
);
width = 421;
}
);
unicode = 171;
},
{
glyphname = guillemotright;
layers = (
{
guides = (
{
position = "{0, 420}";
},
{
position = "{0, 60}";
},
{
position = "{0, 120}";
},
{
position = "{0, 480}";
},
{
position = "{0, 270}";
},
{
position = "{0, 240}";
},
{
angle = 90;
position = "{150, 0}";
},
{
angle = 90;
position = "{301, 0}";
},
{
angle = 90;
position = "{168, 0}";
}
);
layerId = "F9FA6E1A-C3C7-41E3-A510-E095624E106C";
shapes = (
{
closed = 1;
nodes = (
(361,240,l),
(210,391,l),
(168,348,l),
(277,240,l),
(169,133,l),
(211,90,l)
);
},
{
closed = 1;
nodes = (
(193,240,l),
(42,391,l),
(0,348,l),
(109,240,l),
(1,133,l),
(43,90,l)
);
}
);
width = 421;
}
);
unicode = 187;
},
{
glyphname = dotaccent;
layers = (
{
guides = (
{
position = "{0, 420}";
},
{
position = "{0, 60}";
}
);
layerId = "F9FA6E1A-C3C7-41E3-A510-E095624E106C";
shapes = (
{
closed = 1;
nodes = (
(0,420,l),
(60,420,l),
(60,480,l),
(0,480,l)
);
}
);
width = 120;
}
);
unicode = 729;
},
{
glyphname = dotlessi;
layers = (
{
guides = (
{
position = "{0, 420}";
},
{
position = "{0, 60}";
},
{
position = "{0, 120}";
},
{
position = "{0, 480}";
},
{
position = "{0, 270}";
}
);
layerId = "F9FA6E1A-C3C7-41E3-A510-E095624E106C";
shapes = (
{
closed = 1;
nodes = (
(0,270,l),
(60,270,l),
(60,0,l),
(0,0,l)
);
}
);
width = 120;
}
);
unicode = 305;
},
{
glyphname = circumflex;
layers = (
{
guides = (
{
position = "{0, 420}";
},
{
position = "{0, 60}";
},
{
position = "{0, 120}";
},
{
position = "{0, 480}";
},
{
position = "{0, 270}";
},
{
position = "{0, 240}";
},
{
angle = 90;
position = "{135, 0}";
},
{
angle = 90;
position = "{269, 0}";
},
{
angle = 90;
position = "{1, 0}";
},
{
position = "{0, 304}";
}
);
layerId = "F9FA6E1A-C3C7-41E3-A510-E095624E106C";
shapes = (
{
closed = 1;
nodes = (
(135,480,l),
(270,345,l),
(227,303,l),
(135,396,l),
(43,303,l),
(0,345,l)
);
}
);
width = 330;
}
);
unicode = 710;
},
{
glyphname = dieresis;
layers = (
{
guides = (
{
position = "{0, 420}";
},
{
position = "{0, 60}";
}
);
layerId = "F9FA6E1A-C3C7-41E3-A510-E095624E106C";
shapes = (
{
closed = 1;
nodes = (
(0,420,l),
(60,420,l),
(60,480,l),
(0,480,l)
);
},
{
closed = 1;
nodes = (
(120,420,l),
(180,420,l),
(180,480,l),
(120,480,l)
);
}
);
width = 240;
}
);
unicode = 168;
},
{
glyphname = fi;
layers = (
{
guides = (
{
position = "{0, 420}";
},
{
position = "{0, 60}";
},
{
position = "{0, 120}";
},
{
position = "{0, 480}";
},
{
position = "{0, 270}";
}
);
layerId = "F9FA6E1A-C3C7-41E3-A510-E095624E106C";
shapes = (
{
closed = 1;
nodes = (
(60,375,l),
(60,420,l),
(120,420,l),
(120,480,l),
(0,480,l),
(0,375,l),
(-60,375,l),
(-60,315,l),
(0,315,l),
(0,0,l),
(60,0,l),
(60,315,l),
(180,315,l),
(180,375,l)
);
},
{
closed = 1;
nodes = (
(120,270,l),
(180,270,l),
(180,0,l),
(120,0,l)
);
}
);
width = 240;
}
);
unicode = 64257;
},
{
glyphname = fl;
layers = (
{
guides = (
{
position = "{0, 420}";
},
{
position = "{0, 60}";
},
{
position = "{0, 120}";
},
{
position = "{0, 480}";
},
{
position = "{0, 270}";
}
);
layerId = "F9FA6E1A-C3C7-41E3-A510-E095624E106C";
shapes = (
{
closed = 1;
nodes = (
(120,315,l),
(120,0,l),
(180,0,l),
(180,480,l),
(0,480,l),
(0,375,l),
(-60,375,l),
(-60,315,l),
(0,315,l),
(0,0,l),
(60,0,l),
(60,315,l)
);
},
{
closed = 1;
nodes = (
(120,375,l),
(60,375,l),
(60,420,l),
(120,420,l)
);
}
);
width = 240;
}
);
unicode = 64258;
},
{
glyphname = Thorn;
layers = (
{
guides = (
{
angle = 90;
position = "{60, 0}";
},
{
position = "{0, 420}";
},
{
angle = 90;
position = "{420, 0}";
},
{
position = "{0, 60}";
},
{
angle = 90;
position = "{240, 0}";
},
{
angle = 90;
position = "{210, 0}";
},
{
angle = 90;
position = "{270, 0}";
},
{
position = "{0, 240}";
},
{
position = "{0, 270}";
},
{
position = "{0, 210}";
}
);
layerId = "F9FA6E1A-C3C7-41E3-A510-E095624E106C";
shapes = (
{
closed = 1;
nodes = (
(210,315,l),
(210,165,l),
(60,165,l),
(60,315,l)
);
},
{
closed = 1;
nodes = (
(210,315,l),
(210,375,l),
(60,375,l),
(60,480,l),
(0,480,l),
(0,0,l),
(60,0,l),
(60,105,l),
(210,105,l),
(210,165,l),
(270,165,l),
(270,315,l)
);
}
);
width = 330;
}
);
unicode = 222;
},
{
glyphname = thorn;
layers = (
{
guides = (
{
angle = 90;
position = "{60, 0}";
},
{
position = "{0, 420}";
},
{
angle = 90;
position = "{420, 0}";
},
{
position = "{0, 60}";
},
{
angle = 90;
position = "{240, 0}";
},
{
angle = 90;
position = "{210, 0}";
},
{
angle = 90;
position = "{270, 0}";
},
{
position = "{0, 240}";
},
{
position = "{0, 270}";
},
{
position = "{0, 210}";
}
);
layerId = "F9FA6E1A-C3C7-41E3-A510-E095624E106C";
shapes = (
{
closed = 1;
nodes = (
(270,315,l),
(270,60,l),
(60,60,l),
(60,315,l)
);
},
{
closed = 1;
nodes = (
(270,315,l),
(270,375,l),
(60,375,l),
(60,480,l),
(0,480,l),
(0,-120,l),
(60,-120,l),
(60,0,l),
(270,0,l),
(270,60,l),
(330,60,l),
(330,315,l)
);
}
);
width = 390;
}
);
unicode = 254;
},
{
glyphname = AE;
layers = (
{
guides = (
{
angle = 90;
position = "{60, 0}";
},
{
position = "{0, 420}";
},
{
angle = 90;
position = "{420, 0}";
},
{
position = "{0, 60}";
},
{
angle = 90;
position = "{240, 0}";
},
{
angle = 90;
position = "{210, 0}";
},
{
angle = 90;
position = "{270, 0}";
},
{
position = "{0, 240}";
},
{
position = "{0, 270}";
},
{
position = "{0, 210}";
}
);
layerId = "F9FA6E1A-C3C7-41E3-A510-E095624E106C";
shapes = (
{
closed = 1;
nodes = (
(480,360,l),
(420,360,l),
(420,420,l),
(270,420,l),
(270,480,l),
(480,480,l)
);
},
{
closed = 1;
nodes = (
(480,120,l),
(480,0,l),
(270,0,l),
(270,60,l),
(420,60,l),
(420,120,l)
);
},
{
closed = 1;
nodes = (
(210,252,l),
(60,102,l),
(60,420,l),
(210,420,l),
(210,480,l),
(0,480,l),
(0,0,l),
(42,0,l),
(210,168,l),
(210,60,l),
(270,60,l),
(270,210,l),
(420,210,l),
(420,270,l),
(270,270,l),
(270,420,l),
(210,420,l)
);
}
);
width = 540;
}
);
unicode = 198;
},
{
glyphname = OE;
layers = (
{
guides = (
{
angle = 90;
position = "{60, 0}";
},
{
position = "{0, 420}";
},
{
angle = 90;
position = "{420, 0}";
},
{
position = "{0, 60}";
},
{
angle = 90;
position = "{240, 0}";
},
{
angle = 90;
position = "{210, 0}";
},
{
angle = 90;
position = "{270, 0}";
},
{
position = "{0, 240}";
},
{
position = "{0, 270}";
},
{
position = "{0, 210}";
}
);
layerId = "F9FA6E1A-C3C7-41E3-A510-E095624E106C";
shapes = (
{
closed = 1;
nodes = (
(480,360,l),
(420,360,l),
(420,420,l),
(270,420,l),
(270,480,l),
(480,480,l)
);
},
{
closed = 1;
nodes = (
(480,120,l),
(480,0,l),
(270,0,l),
(270,60,l),
(420,60,l),
(420,120,l)
);
},
{
closed = 1;
nodes = (
(210,210,l),
(210,420,l),
(270,420,l),
(270,270,l),
(420,270,l),
(420,210,l),
(270,210,l),
(270,60,l),
(210,60,l)
);
},
{
closed = 1;
nodes = (
(210,0,l),
(0,0,l),
(0,480,l),
(210,480,l),
(210,420,l),
(60,420,l),
(60,60,l),
(210,60,l)
);
}
);
width = 540;
}
);
unicode = 338;
},
{
glyphname = franc;
layers = (
{
guides = (
{
angle = 90;
position = "{120, 0}";
},
{
position = "{0, 420}";
},
{
angle = 90;
position = "{480, 0}";
},
{
position = "{0, 60}";
},
{
angle = 90;
position = "{300, 0}";
},
{
angle = 90;
position = "{270, 0}";
},
{
angle = 90;
position = "{330, 0}";
},
{
position = "{0, 240}";
},
{
position = "{0, 270}";
},
{
position = "{0, 210}";
}
);
layerId = "F9FA6E1A-C3C7-41E3-A510-E095624E106C";
shapes = (
{
closed = 1;
nodes = (
(540,360,l),
(480,360,l),
(480,420,l),
(330,420,l),
(330,480,l),
(540,480,l)
);
},
{
closed = 1;
nodes = (
(120,60,l),
(180,60,l),
(180,120,l),
(120,120,l),
(120,210,l),
(330,210,l),
(330,270,l),
(120,270,l),
(120,420,l),
(270,420,l),
(270,480,l),
(60,480,l),
(60,120,l),
(0,120,l),
(0,60,l),
(60,60,l),
(60,0,l),
(120,0,l)
);
}
);
width = 600;
}
);
unicode = 8355;
},
{
glyphname = lira;
layers = (
{
guides = (
{
angle = 90;
position = "{60, 0}";
},
{
position = "{0, 420}";
},
{
angle = 90;
position = "{420, 0}";
},
{
position = "{0, 60}";
},
{
angle = 90;
position = "{240, 0}";
},
{
angle = 90;
position = "{210, 0}";
},
{
angle = 90;
position = "{270, 0}";
},
{
position = "{0, 240}";
},
{
position = "{0, 270}";
},
{
position = "{0, 210}";
}
);
layerId = "F9FA6E1A-C3C7-41E3-A510-E095624E106C";
shapes = (
{
closed = 1;
nodes = (
(420,210,l),
(420,150,l),
(120,150,l),
(120,60,l),
(420,60,l),
(420,120,l),
(480,120,l),
(480,0,l),
(0,0,l),
(0,60,l),
(60,60,l),
(60,150,l),
(0,150,l),
(0,210,l),
(60,210,l),
(60,270,l),
(0,270,l),
(0,330,l),
(60,330,l),
(60,480,l),
(480,480,l),
(480,360,l),
(420,360,l),
(420,420,l),
(120,420,l),
(120,330,l),
(420,330,l),
(420,270,l),
(120,270,l),
(120,210,l)
);
}
);
width = 540;
}
);
unicode = 8356;
},
{
glyphname = peseta;
layers = (
{
guides = (
{
angle = 90;
position = "{60, 0}";
},
{
position = "{0, 420}";
},
{
angle = 90;
position = "{420, 0}";
},
{
position = "{0, 60}";
},
{
angle = 90;
position = "{240, 0}";
},
{
angle = 90;
position = "{210, 0}";
},
{
angle = 90;
position = "{270, 0}";
},
{
position = "{0, 240}";
},
{
position = "{0, 270}";
},
{
position = "{0, 210}";
}
);
layerId = "F9FA6E1A-C3C7-41E3-A510-E095624E106C";
shapes = (
{
closed = 1;
nodes = (
(270,315,l),
(270,210,l),
(60,210,l),
(60,60,l),
(120,60,l),
(120,0,l),
(0,0,l),
(0,480,l),
(210,480,l),
(210,420,l),
(60,420,l),
(60,270,l),
(210,270,l),
(210,420,l),
(270,420,l),
(270,375,l),
(360,375,l),
(360,480,l),
(420,480,l),
(420,375,l),
(480,375,l),
(480,315,l),
(420,315,l),
(420,60,l),
(480,60,l),
(480,0,l),
(360,0,l),
(360,315,l)
);
}
);
width = 540;
}
);
unicode = 8359;
},
{
glyphname = pi;
layers = (
{
guides = (
{
angle = 90;
position = "{60, 0}";
},
{
position = "{0, 420}";
},
{
position = "{0, 60}";
},
{
angle = 90;
position = "{240, 0}";
},
{
angle = 90;
position = "{210, 0}";
},
{
angle = 90;
position = "{270, 0}";
showMeasurement = 1;
},
{
position = "{0, 240}";
},
{
position = "{0, 270}";
},
{
position = "{0, 210}";
},
{
angle = 90;
position = "{480, 0}";
}
);
layerId = "F9FA6E1A-C3C7-41E3-A510-E095624E106C";
shapes = (
{
closed = 1;
nodes = (
(330,0,l),
(210,0,l),
(210,210,l),
(120,210,l),
(120,0,l),
(60,0,l),
(60,210,l),
(0,210,l),
(0,270,l),
(330,270,l),
(330,210,l),
(270,210,l),
(270,60,l),
(330,60,l)
);
}
);
width = 390;
}
);
unicode = 960;
},
{
glyphname = oslash;
rightMetricsKey = "=-42+60";
layers = (
{
guides = (
{
angle = 90;
position = "{60, 0}";
},
{
position = "{0, 420}";
},
{
position = "{0, 60}";
},
{
angle = 90;
position = "{240, 0}";
},
{
angle = 90;
position = "{210, 0}";
},
{
angle = 90;
position = "{270, 0}";
},
{
position = "{0, 240}";
},
{
position = "{0, 270}";
},
{
position = "{0, 210}";
},
{
angle = 90;
position = "{-60, 0}";
}
);
layerId = "F9FA6E1A-C3C7-41E3-A510-E095624E106C";
shapes = (
{
closed = 0;
nodes = (
(0,270,l),
(0,43,l),
(-42,1,l),
(-42,-42,l),
(0,-42,l),
(41,0,l),
(270,0,l),
(270,229,l),
(312,271,l),
(312,313,l),
(270,313,l),
(227,270,l),
(0,270,l)
);
},
{
closed = 1;
nodes = (
(210,169,l),
(210,60,l),
(101,60,l)
);
},
{
closed = 1;
nodes = (
(167,210,l),
(60,103,l),
(60,210,l)
);
}
);
width = 330;
}
);
unicode = 248;
},
{
glyphname = oe;
layers = (
{
guides = (
{
angle = 90;
position = "{60, 0}";
},
{
position = "{0, 420}";
},
{
angle = 90;
position = "{420, 0}";
},
{
position = "{0, 60}";
},
{
angle = 90;
position = "{240, 0}";
},
{
angle = 90;
position = "{210, 0}";
},
{
angle = 90;
position = "{270, 0}";
},
{
position = "{0, 240}";
},
{
position = "{0, 270}";
},
{
position = "{0, 210}";
}
);
layerId = "F9FA6E1A-C3C7-41E3-A510-E095624E106C";
shapes = (
{
closed = 1;
nodes = (
(378,210,l),
(270,102,l),
(270,210,l)
);
},
{
closed = 1;
nodes = (
(210,60,l),
(60,60,l),
(60,210,l),
(210,210,l)
);
},
{
closed = 1;
nodes = (
(0,0,l),
(480,0,l),
(480,120,l),
(420,120,l),
(420,60,l),
(312,60,l),
(480,227,l),
(480,270,l),
(0,270,l)
);
}
);
width = 540;
}
);
unicode = 339;
},
{
glyphname = ae;
layers = (
{
guides = (
{
angle = 90;
position = "{60, 0}";
},
{
position = "{0, 420}";
},
{
angle = 90;
position = "{420, 0}";
},
{
position = "{0, 60}";
},
{
angle = 90;
position = "{240, 0}";
},
{
angle = 90;
position = "{210, 0}";
},
{
angle = 90;
position = "{270, 0}";
},
{
position = "{0, 240}";
},
{
position = "{0, 270}";
showMeasurement = 1;
},
{
position = "{0, 210}";
}
);
layerId = "F9FA6E1A-C3C7-41E3-A510-E095624E106C";
shapes = (
{
closed = 1;
nodes = (
(378,210,l),
(270,210,l),
(270,102,l)
);
},
{
closed = 1;
nodes = (
(210,0,l),
(210,210,l),
(60,210,l),
(60,270,l),
(480,270,l),
(480,227,l),
(312,60,l),
(420,60,l),
(420,120,l),
(480,120,l),
(480,0,l)
);
},
{
closed = 1;
nodes = (
(60,210,l),
(60,60,l),
(150,60,l),
(150,0,l),
(0,0,l),
(0,210,l)
);
}
);
width = 540;
}
);
unicode = 230;
},
{
glyphname = germandbls;
layers = (
{
guides = (
{
angle = 90;
position = "{60, 0}";
},
{
position = "{0, 420}";
},
{
angle = 90;
position = "{420, 0}";
},
{
position = "{0, 60}";
},
{
angle = 90;
position = "{240, 0}";
},
{
angle = 90;
position = "{210, 0}";
},
{
angle = 90;
position = "{270, 0}";
},
{
position = "{0, 240}";
},
{
position = "{0, 270}";
},
{
position = "{0, 210}";
}
);
layerId = "F9FA6E1A-C3C7-41E3-A510-E095624E106C";
shapes = (
{
closed = 1;
nodes = (
(60,0,l),
(0,0,l),
(0,480,l),
(270,480,l),
(270,270,l),
(210,270,l),
(210,420,l),
(60,420,l),
(60,270,l),
(210,270,l),
(210,210,l),
(60,210,l)
);
},
{
closed = 1;
nodes = (
(210,210,l),
(270,210,l),
(270,0,l),
(120,0,l),
(120,60,l),
(210,60,l)
);
}
);
width = 330;
}
);
unicode = 223;
},
{
glyphname = Rho;
layers = (
{
guides = (
{
angle = 90;
position = "{60, 0}";
},
{
position = "{0, 420}";
},
{
angle = 90;
position = "{420, 0}";
},
{
position = "{0, 60}";
},
{
angle = 90;
position = "{240, 0}";
},
{
angle = 90;
position = "{210, 0}";
},
{
angle = 90;
position = "{270, 0}";
},
{
position = "{0, 240}";
},
{
position = "{0, 270}";
},
{
position = "{0, 210}";
}
);
layerId = "F9FA6E1A-C3C7-41E3-A510-E095624E106C";
shapes = (
{
closed = 1;
nodes = (
(60,270,l),
(420,270,l),
(420,210,l),
(60,210,l),
(60,60,l),
(120,60,l),
(120,0,l),
(0,0,l),
(0,480,l),
(210,480,l),
(210,420,l),
(60,420,l)
);
},
{
closed = 1;
nodes = (
(420,270,l),
(480,270,l),
(480,480,l),
(270,480,l),
(270,420,l),
(420,420,l)
);
}
);
width = 540;
}
);
unicode = 929;
},
{
glyphname = Omicron;
layers = (
{
guides = (
{
angle = 90;
position = "{60, 0}";
},
{
position = "{0, 420}";
},
{
angle = 90;
position = "{420, 0}";
},
{
position = "{0, 60}";
},
{
angle = 90;
position = "{240, 0}";
},
{
angle = 90;
position = "{210, 0}";
},
{
angle = 90;
position = "{270, 0}";
}
);
layerId = "F9FA6E1A-C3C7-41E3-A510-E095624E106C";
shapes = (
{
closed = 1;
nodes = (
(210,420,l),
(210,480,l),
(0,480,l),
(0,0,l),
(210,0,l),
(210,60,l),
(60,60,l),
(60,420,l)
);
},
{
closed = 1;
nodes = (
(270,0,l),
(480,0,l),
(480,480,l),
(270,480,l),
(270,420,l),
(420,420,l),
(420,60,l),
(270,60,l)
);
}
);
width = 540;
}
);
unicode = 927;
},
{
glyphname = Nu;
layers = (
{
guides = (
{
angle = 90;
position = "{60, 0}";
},
{
position = "{0, 420}";
},
{
angle = 90;
position = "{420, 0}";
},
{
position = "{0, 60}";
},
{
angle = 90;
position = "{240, 0}";
},
{
angle = 90;
position = "{210, 0}";
},
{
angle = 90;
position = "{270, 0}";
}
);
layerId = "F9FA6E1A-C3C7-41E3-A510-E095624E106C";
shapes = (
{
closed = 1;
nodes = (
(420,103,l),
(420,420,l),
(360,420,l),
(360,480,l),
(480,480,l),
(480,0,l),
(438,0,l),
(60,378,l),
(60,60,l),
(120,60,l),
(120,0,l),
(0,0,l),
(0,480,l),
(42,480,l)
);
}
);
width = 540;
}
);
unicode = 925;
},
{
glyphname = Theta;
layers = (
{
guides = (
{
angle = 90;
position = "{60, 0}";
},
{
position = "{0, 420}";
},
{
angle = 90;
position = "{420, 0}";
},
{
position = "{0, 60}";
},
{
angle = 90;
position = "{240, 0}";
},
{
angle = 90;
position = "{210, 0}";
},
{
angle = 90;
position = "{270, 0}";
},
{
angle = 90;
position = "{120, 0}";
},
{
angle = 90;
position = "{360, 0}";
},
{
position = "{0, 270}";
}
);
layerId = "F9FA6E1A-C3C7-41E3-A510-E095624E106C";
shapes = (
{
closed = 1;
nodes = (
(210,420,l),
(210,480,l),
(0,480,l),
(0,0,l),
(210,0,l),
(210,60,l),
(60,60,l),
(60,420,l)
);
},
{
closed = 1;
nodes = (
(270,0,l),
(480,0,l),
(480,480,l),
(270,480,l),
(270,420,l),
(420,420,l),
(420,60,l),
(270,60,l)
);
},
{
closed = 1;
nodes = (
(120,210,l),
(360,210,l),
(360,270,l),
(120,270,l)
);
}
);
width = 540;
}
);
unicode = 920;
},
{
glyphname = Gamma;
layers = (
{
guides = (
{
position = "{0, 420}";
},
{
position = "{0, 60}";
},
{
angle = 90;
position = "{480, 0}";
},
{
angle = 90;
position = "{240, 0}";
},
{
angle = 90;
position = "{209, 0}";
},
{
angle = 90;
position = "{270, 0}";
}
);
layerId = "F9FA6E1A-C3C7-41E3-A510-E095624E106C";
shapes = (
{
closed = 1;
nodes = (
(270,420,l),
(270,480,l),
(480,480,l),
(480,300,l),
(420,300,l),
(420,420,l)
);
},
{
closed = 1;
nodes = (
(209,480,l),
(209,420,l),
(60,420,l),
(60,60,l),
(120,60,l),
(120,0,l),
(0,0,l),
(0,480,l)
);
}
);
width = 540;
}
);
unicode = 915;
},
{
glyphname = Xi;
layers = (
{
guides = (
{
angle = 90;
position = "{60, 0}";
},
{
position = "{0, 420}";
},
{
angle = 90;
position = "{420, 0}";
},
{
position = "{0, 60}";
},
{
angle = 90;
position = "{240, 0}";
},
{
angle = 90;
position = "{210, 0}";
},
{
angle = 90;
position = "{270, 0}";
},
{
angle = 90;
position = "{120, 0}";
},
{
angle = 90;
position = "{360, 0}";
},
{
position = "{0, 270}";
}
);
layerId = "F9FA6E1A-C3C7-41E3-A510-E095624E106C";
shapes = (
{
closed = 1;
nodes = (
(420,60,l),
(270,60,l),
(270,0,l),
(480,0,l),
(480,120,l),
(420,120,l)
);
},
{
closed = 1;
nodes = (
(120,210,l),
(360,210,l),
(360,270,l),
(120,270,l)
);
},
{
closed = 1;
nodes = (
(0,360,l),
(60,360,l),
(60,420,l),
(210,420,l),
(210,480,l),
(0,480,l)
);
},
{
closed = 1;
nodes = (
(60,60,l),
(210,60,l),
(210,0,l),
(0,0,l),
(0,120,l),
(60,120,l)
);
},
{
closed = 1;
nodes = (
(480,360,l),
(480,480,l),
(270,480,l),
(270,420,l),
(420,420,l),
(420,360,l)
);
}
);
width = 540;
}
);
unicode = 926;
},
{
glyphname = Pi;
layers = (
{
layerId = "F9FA6E1A-C3C7-41E3-A510-E095624E106C";
shapes = (
{
closed = 1;
nodes = (
(270,420,l),
(270,480,l),
(480,480,l),
(480,420,l),
(420,420,l),
(420,60,l),
(480,60,l),
(480,0,l),
(300,0,l),
(300,60,l),
(360,60,l),
(360,420,l)
);
},
{
closed = 1;
nodes = (
(209,480,l),
(209,420,l),
(120,420,l),
(120,60,l),
(180,60,l),
(180,0,l),
(0,0,l),
(0,60,l),
(60,60,l),
(60,420,l),
(0,420,l),
(0,480,l)
);
}
);
width = 540;
}
);
unicode = 928;
},
{
glyphname = notequal;
layers = (
{
guides = (
{
position = "{0, 420}";
},
{
position = "{0, 60}";
},
{
position = "{0, 120}";
},
{
position = "{0, 480}";
},
{
position = "{0, 270}";
},
{
position = "{0, 240}";
}
);
layerId = "F9FA6E1A-C3C7-41E3-A510-E095624E106C";
shapes = (
{
closed = 1;
nodes = (
(300,270,l),
(300,330,l),
(0,330,l),
(0,270,l)
);
},
{
closed = 1;
nodes = (
(300,150,l),
(300,210,l),
(0,210,l),
(0,150,l)
);
},
{
closed = 1;
nodes = (
(-30,60,l),
(12,60,l),
(330,378,l),
(330,420,l),
(288,420,l),
(-30,103,l)
);
}
);
width = 360;
}
);
unicode = 8800;
},
{
glyphname = uni2015;
layers = (
{
guides = (
{
angle = 90;
position = "{60, 0}";
},
{
position = "{0, 420}";
},
{
angle = 90;
position = "{420, 0}";
},
{
position = "{0, 60}";
},
{
angle = 90;
position = "{240, 0}";
},
{
angle = 90;
position = "{210, 0}";
},
{
angle = 90;
position = "{270, 0}";
},
{
position = "{0, 0}";
},
{
position = "{0, -60}";
},
{
position = "{0, 480}";
},
{
position = "{0, 210}";
}
);
layerId = "F9FA6E1A-C3C7-41E3-A510-E095624E106C";
shapes = (
{
closed = 1;
nodes = (
(0,210,l),
(480,210,l),
(480,270,l),
(0,270,l)
);
}
);
width = 540;
}
);
unicode = 8213;
},
{
glyphname = Tau;
layers = (
{
guides = (
{
position = "{0, 420}";
},
{
position = "{0, 60}";
},
{
angle = 90;
position = "{480, 0}";
},
{
angle = 90;
position = "{240, 0}";
},
{
angle = 90;
position = "{209, 0}";
},
{
angle = 90;
position = "{270, 0}";
}
);
layerId = "F9FA6E1A-C3C7-41E3-A510-E095624E106C";
shapes = (
{
closed = 1;
nodes = (
(149,60,l),
(149,0,l),
(330,0,l),
(330,60,l),
(270,60,l),
(270,420,l),
(420,420,l),
(420,360,l),
(480,360,l),
(480,480,l),
(0,481,l),
(0,361,l),
(60,361,l),
(60,421,l),
(209,420,l),
(209,60,l)
);
}
);
width = 540;
}
);
unicode = 932;
},
{
glyphname = lessequal;
layers = (
{
guides = (
{
position = "{0, 420}";
},
{
position = "{0, 60}";
},
{
position = "{0, 120}";
},
{
position = "{0, 480}";
},
{
position = "{0, 270}";
},
{
position = "{0, 240}";
},
{
angle = 90;
position = "{150, 0}";
},
{
angle = 90;
position = "{240, 0}";
}
);
layerId = "F9FA6E1A-C3C7-41E3-A510-E095624E106C";
shapes = (
{
closed = 1;
nodes = (
(240,85,l),
(84,240,l),
(240,396,l),
(198,439,l),
(0,240,l),
(197,43,l),
(0,43,l),
(0,-17,l),
(240,-17,l)
);
}
);
width = 300;
}
);
unicode = 8804;
},
{
glyphname = greaterequal;
layers = (
{
guides = (
{
position = "{0, 420}";
},
{
position = "{0, 60}";
},
{
position = "{0, 120}";
},
{
position = "{0, 480}";
},
{
position = "{0, 270}";
},
{
position = "{0, 240}";
},
{
angle = 90;
position = "{150, 0}";
},
{
angle = 90;
position = "{240, 0}";
}
);
layerId = "F9FA6E1A-C3C7-41E3-A510-E095624E106C";
shapes = (
{
closed = 1;
nodes = (
(0,85,l),
(0,-17,l),
(240,-17,l),
(240,43,l),
(43,43,l),
(240,240,l),
(42,439,l),
(0,396,l),
(156,240,l)
);
}
);
width = 300;
}
);
unicode = 8805;
},
{
glyphname = uni0394;
layers = (
{
guides = (
{
angle = 90;
position = "{60, 0}";
},
{
position = "{0, 420}";
},
{
angle = 90;
position = "{420, 0}";
},
{
position = "{0, 60}";
},
{
angle = 90;
position = "{240, 0}";
},
{
angle = 90;
position = "{210, 0}";
},
{
angle = 90;
position = "{270, 0}";
}
);
layerId = "F9FA6E1A-C3C7-41E3-A510-E095624E106C";
shapes = (
{
closed = 1;
nodes = (
(0,0,l),
(0,43,l),
(438,480,l),
(480,480,l),
(480,0,l)
);
},
{
closed = 1;
nodes = (
(102,60,l),
(420,60,l),
(420,378,l)
);
}
);
width = 540;
}
);
unicode = 916;
},
{
glyphname = Lambda;
layers = (
{
guides = (
{
angle = 90;
position = "{60, 0}";
},
{
position = "{0, 420}";
},
{
angle = 90;
position = "{420, 0}";
},
{
position = "{0, 60}";
},
{
angle = 90;
position = "{240, 0}";
},
{
angle = 90;
position = "{210, 0}";
},
{
angle = 90;
position = "{270, 0}";
}
);
layerId = "F9FA6E1A-C3C7-41E3-A510-E095624E106C";
shapes = (
{
closed = 1;
nodes = (
(0,43,l),
(438,480,l),
(480,480,l),
(480,0,l),
(360,0,l),
(360,60,l),
(420,60,l),
(420,378,l),
(42,0,l),
(0,0,l)
);
}
);
width = 540;
}
);
unicode = 923;
},
{
glyphname = Beta;
layers = (
{
guides = (
{
angle = 90;
position = "{60, 0}";
},
{
position = "{0, 420}";
},
{
angle = 90;
position = "{420, 0}";
},
{
position = "{0, 60}";
},
{
angle = 90;
position = "{240, 0}";
},
{
angle = 90;
position = "{210, 0}";
},
{
angle = 90;
position = "{270, 0}";
},
{
position = "{0, 240}";
},
{
position = "{0, 270}";
},
{
position = "{0, 210}";
}
);
layerId = "F9FA6E1A-C3C7-41E3-A510-E095624E106C";
shapes = (
{
closed = 1;
nodes = (
(420,270,l),
(420,420,l),
(270,420,l),
(270,480,l),
(480,480,l),
(480,270,l)
);
},
{
closed = 1;
nodes = (
(60,270,l),
(420,270,l),
(420,210,l),
(60,210,l),
(60,60,l),
(210,60,l),
(210,0,l),
(0,0,l),
(0,480,l),
(210,480,l),
(210,420,l),
(60,420,l)
);
},
{
closed = 1;
nodes = (
(420,210,l),
(480,210,l),
(480,0,l),
(270,0,l),
(270,60,l),
(420,60,l)
);
}
);
width = 540;
}
);
unicode = 914;
},
{
glyphname = Epsilon;
layers = (
{
guides = (
{
angle = 90;
position = "{60, 0}";
},
{
position = "{0, 420}";
},
{
angle = 90;
position = "{420, 0}";
},
{
position = "{0, 60}";
},
{
angle = 90;
position = "{240, 0}";
},
{
angle = 90;
position = "{210, 0}";
},
{
angle = 90;
position = "{270, 0}";
},
{
position = "{0, 240}";
},
{
position = "{0, 270}";
},
{
position = "{0, 210}";
}
);
layerId = "F9FA6E1A-C3C7-41E3-A510-E095624E106C";
shapes = (
{
closed = 1;
nodes = (
(480,360,l),
(420,360,l),
(420,420,l),
(270,420,l),
(270,480,l),
(480,480,l)
);
},
{
closed = 1;
nodes = (
(0,480,l),
(210,480,l),
(210,420,l),
(60,420,l),
(60,270,l),
(420,270,l),
(420,210,l),
(60,210,l),
(60,60,l),
(210,60,l),
(210,0,l),
(0,0,l)
);
},
{
closed = 1;
nodes = (
(480,120,l),
(480,0,l),
(270,0,l),
(270,60,l),
(420,60,l),
(420,120,l)
);
}
);
width = 540;
}
);
unicode = 917;
},
{
glyphname = Zeta;
layers = (
{
guides = (
{
angle = 90;
position = "{60, 0}";
},
{
position = "{0, 420}";
},
{
angle = 90;
position = "{420, 0}";
},
{
position = "{0, 60}";
},
{
angle = 90;
position = "{240, 0}";
},
{
angle = 90;
position = "{210, 0}";
},
{
angle = 90;
position = "{270, 0}";
},
{
position = "{0, 240}";
}
);
layerId = "F9FA6E1A-C3C7-41E3-A510-E095624E106C";
shapes = (
{
closed = 1;
nodes = (
(480,120,l),
(480,0,l),
(270,0,l),
(270,60,l),
(420,60,l),
(420,120,l)
);
},
{
closed = 1;
nodes = (
(0,360,l),
(0,480,l),
(210,480,l),
(210,420,l),
(60,420,l),
(60,360,l)
);
},
{
closed = 1;
nodes = (
(240,282,l),
(0,42,l),
(0,0,l),
(210,0,l),
(210,60,l),
(102,60,l),
(240,198,l),
(480,437,l),
(480,480,l),
(270,480,l),
(270,420,l),
(378,420,l)
);
}
);
width = 540;
}
);
unicode = 918;
},
{
glyphname = Eta;
layers = (
{
guides = (
{
angle = 90;
position = "{60, 0}";
},
{
position = "{0, 420}";
},
{
angle = 90;
position = "{420, 0}";
},
{
position = "{0, 60}";
},
{
angle = 90;
position = "{240, 0}";
},
{
angle = 90;
position = "{210, 0}";
},
{
angle = 90;
position = "{270, 0}";
},
{
position = "{0, 240}";
},
{
position = "{0, 270}";
},
{
position = "{0, 210}";
}
);
layerId = "F9FA6E1A-C3C7-41E3-A510-E095624E106C";
shapes = (
{
closed = 1;
nodes = (
(420,210,l),
(60,210,l),
(60,60,l),
(120,60,l),
(120,0,l),
(0,0,l),
(0,480,l),
(120,480,l),
(120,420,l),
(60,420,l),
(60,270,l),
(420,270,l),
(420,420,l),
(360,420,l),
(360,480,l),
(480,480,l),
(480,0,l),
(360,0,l),
(360,60,l),
(420,60,l)
);
}
);
width = 540;
}
);
unicode = 919;
},
{
glyphname = Iota;
layers = (
{
guides = (
{
position = "{0, 420}";
},
{
position = "{0, 60}";
},
{
angle = 90;
position = "{480, 0}";
},
{
angle = 90;
position = "{240, 0}";
},
{
angle = 90;
position = "{209, 0}";
},
{
angle = 90;
position = "{270, 0}";
}
);
layerId = "F9FA6E1A-C3C7-41E3-A510-E095624E106C";
shapes = (
{
closed = 1;
nodes = (
(0,0,l),
(480,0,l),
(480,120,l),
(420,120,l),
(420,60,l),
(270,60,l),
(270,420,l),
(420,420,l),
(420,360,l),
(480,360,l),
(480,480,l),
(0,481,l),
(0,361,l),
(60,361,l),
(60,421,l),
(209,420,l),
(209,60,l),
(60,60,l),
(60,120,l),
(0,120,l)
);
}
);
width = 540;
}
);
unicode = 921;
},
{
glyphname = Kappa;
layers = (
{
guides = (
{
angle = 90;
position = "{60, 0}";
},
{
position = "{0, 420}";
},
{
angle = 90;
position = "{420, 0}";
},
{
position = "{0, 60}";
},
{
angle = 90;
position = "{240, 0}";
},
{
angle = 90;
position = "{210, 0}";
},
{
angle = 90;
position = "{270, 0}";
},
{
position = "{0, 240}";
},
{
position = "{0, 270}";
},
{
position = "{0, 210}";
}
);
layerId = "F9FA6E1A-C3C7-41E3-A510-E095624E106C";
shapes = (
{
closed = 1;
nodes = (
(420,270,l),
(420,420,l),
(360,420,l),
(360,480,l),
(480,480,l),
(480,270,l)
);
},
{
closed = 1;
nodes = (
(60,270,l),
(420,270,l),
(420,210,l),
(60,210,l),
(60,60,l),
(120,60,l),
(120,0,l),
(0,0,l),
(0,480,l),
(120,480,l),
(120,420,l),
(60,420,l)
);
},
{
closed = 1;
nodes = (
(420,210,l),
(480,210,l),
(480,0,l),
(360,0,l),
(360,60,l),
(420,60,l)
);
}
);
width = 540;
}
);
unicode = 922;
},
{
glyphname = Mu;
layers = (
{
guides = (
{
angle = 90;
position = "{60, 0}";
},
{
position = "{0, 420}";
},
{
angle = 90;
position = "{420, 0}";
},
{
position = "{0, 60}";
},
{
angle = 90;
position = "{240, 0}";
},
{
angle = 90;
position = "{210, 0}";
},
{
angle = 90;
position = "{270, 0}";
}
);
layerId = "F9FA6E1A-C3C7-41E3-A510-E095624E106C";
shapes = (
{
closed = 1;
nodes = (
(438,480,l),
(240,282,l),
(42,480,l),
(0,480,l),
(0,1,l),
(120,1,l),
(120,61,l),
(60,61,l),
(60,377,l),
(240,198,l),
(420,378,l),
(420,60,l),
(360,60,l),
(360,0,l),
(480,0,l),
(480,479,l)
);
}
);
width = 540;
}
);
unicode = 924;
},
{
glyphname = eta;
layers = (
{
guides = (
{
angle = 90;
position = "{60, 0}";
},
{
position = "{0, 420}";
},
{
position = "{0, 60}";
},
{
angle = 90;
position = "{210, 0}";
},
{
angle = 90;
position = "{270, 0}";
},
{
position = "{0, 270}";
},
{
position = "{0, 210}";
}
);
layerId = "F9FA6E1A-C3C7-41E3-A510-E095624E106C";
shapes = (
{
closed = 1;
nodes = (
(60,0,l),
(0,0,l),
(0,270,l),
(210,270,l),
(210,210,l),
(60,210,l)
);
},
{
closed = 1;
nodes = (
(210,-180,l),
(210,210,l),
(270,210,l),
(270,-180,l)
);
}
);
width = 330;
}
);
unicode = 951;
},
{
glyphname = omicron;
layers = (
{
guides = (
{
angle = 90;
position = "{60, 0}";
},
{
position = "{0, 420}";
},
{
angle = 90;
position = "{420, 0}";
},
{
position = "{0, 60}";
},
{
angle = 90;
position = "{240, 0}";
},
{
angle = 90;
position = "{210, 0}";
},
{
angle = 90;
position = "{270, 0}";
},
{
position = "{0, 240}";
},
{
position = "{0, 270}";
},
{
position = "{0, 210}";
}
);
layerId = "F9FA6E1A-C3C7-41E3-A510-E095624E106C";
shapes = (
{
closed = 1;
nodes = (
(210,60,l),
(60,60,l),
(60,210,l),
(210,210,l)
);
},
{
closed = 1;
nodes = (
(270,0,l),
(270,270,l),
(0,270,l),
(0,0,l)
);
}
);
width = 330;
}
);
unicode = 959;
},
{
glyphname = nu;
layers = (
{
guides = (
{
angle = 90;
position = "{60, 0}";
},
{
position = "{0, 420}";
},
{
position = "{0, 60}";
},
{
angle = 90;
position = "{240, 0}";
},
{
angle = 90;
position = "{210, 0}";
},
{
angle = 90;
position = "{270, 0}";
},
{
position = "{0, 240}";
},
{
position = "{0, 270}";
},
{
position = "{0, 210}";
}
);
layerId = "F9FA6E1A-C3C7-41E3-A510-E095624E106C";
shapes = (
{
closed = 1;
nodes = (
(228,0,l),
(270,0,l),
(270,270,l),
(150,270,l),
(150,210,l),
(210,210,l),
(210,103,l),
(42,270,l),
(0,270,l),
(0,228,l)
);
}
);
width = 330;
}
);
unicode = 957;
},
{
glyphname = Sigma;
layers = (
{
guides = (
{
angle = 90;
position = "{60, 0}";
},
{
position = "{0, 420}";
},
{
angle = 90;
position = "{420, 0}";
},
{
position = "{0, 60}";
},
{
angle = 90;
position = "{240, 0}";
},
{
angle = 90;
position = "{210, 0}";
},
{
angle = 90;
position = "{270, 0}";
}
);
layerId = "F9FA6E1A-C3C7-41E3-A510-E095624E106C";
shapes = (
{
closed = 1;
nodes = (
(0,41,l),
(1,-1,l),
(480,-1,l),
(480,119,l),
(420,119,l),
(420,59,l),
(102,59,l),
(282,239,l),
(103,419,l),
(419,419,l),
(419,359,l),
(479,359,l),
(479,479,l),
(0,479,l),
(0,437,l),
(198,239,l)
);
}
);
width = 540;
}
);
unicode = 931;
},
{
glyphname = Phi;
layers = (
{
guides = (
{
angle = 90;
position = "{60, 0}";
},
{
position = "{0, 420}";
},
{
angle = 90;
position = "{420, 0}";
},
{
position = "{0, 60}";
},
{
angle = 90;
position = "{240, 0}";
},
{
angle = 90;
position = "{210, 0}";
},
{
angle = 90;
position = "{270, 0}";
}
);
layerId = "F9FA6E1A-C3C7-41E3-A510-E095624E106C";
shapes = (
{
closed = 1;
nodes = (
(210,150,l),
(60,150,l),
(60,330,l),
(210,330,l)
);
},
{
closed = 1;
nodes = (
(270,90,l),
(480,90,l),
(480,390,l),
(270,390,l),
(270,420,l),
(330,420,l),
(330,480,l),
(150,480,l),
(150,420,l),
(210,420,l),
(210,390,l),
(0,390,l),
(0,90,l),
(210,90,l),
(210,60,l),
(150,60,l),
(150,0,l),
(330,0,l),
(330,60,l),
(270,60,l)
);
},
{
closed = 1;
nodes = (
(270,330,l),
(420,330,l),
(420,150,l),
(270,150,l)
);
}
);
width = 540;
}
);
unicode = 934;
},
{
glyphname = Psi;
layers = (
{
guides = (
{
position = "{0, 420}";
},
{
position = "{0, 60}";
},
{
angle = 90;
position = "{480, 0}";
},
{
angle = 90;
position = "{240, 0}";
},
{
angle = 90;
position = "{209, 0}";
},
{
angle = 90;
position = "{270, 0}";
},
{
position = "{0, 480}";
},
{
position = "{0, 270}";
}
);
layerId = "F9FA6E1A-C3C7-41E3-A510-E095624E106C";
shapes = (
{
closed = 1;
nodes = (
(60,420,l),
(120,420,l),
(120,480,l),
(0,480,l),
(0,271,l),
(209,269,l),
(210,480,l),
(270,480,l),
(270,270,l),
(480,270,l),
(480,480,l),
(360,480,l),
(360,420,l),
(420,420,l),
(420,209,l),
(270,209,l),
(270,60,l),
(330,60,l),
(330,0,l),
(149,0,l),
(149,60,l),
(209,60,l),
(209,209,l),
(60,210,l)
);
}
);
width = 540;
}
);
unicode = 936;
},
{
glyphname = Upsilon;
layers = (
{
guides = (
{
angle = 90;
position = "{60, 0}";
},
{
position = "{0, 420}";
},
{
angle = 90;
position = "{420, 0}";
},
{
position = "{0, 60}";
},
{
angle = 90;
position = "{240, 0}";
},
{
angle = 90;
position = "{210, 0}";
},
{
angle = 90;
position = "{270, 0}";
},
{
position = "{0, 240}";
},
{
position = "{0, 270}";
},
{
position = "{0, 210}";
}
);
layerId = "F9FA6E1A-C3C7-41E3-A510-E095624E106C";
shapes = (
{
closed = 1;
nodes = (
(270,228,l),
(270,0,l),
(210,0,l),
(210,228,l),
(0,437,l),
(0,480,l),
(210,480,l),
(210,420,l),
(102,420,l),
(240,282,l),
(378,420,l),
(270,420,l),
(270,480,l),
(480,480,l),
(480,438,l)
);
},
{
closed = 1;
nodes = (
(150,60,l),
(210,60,l),
(210,0,l),
(150,0,l)
);
},
{
closed = 1;
nodes = (
(270,60,l),
(330,60,l),
(330,0,l),
(270,0,l)
);
}
);
width = 540;
}
);
unicode = (933,939);
},
{
glyphname = Chi;
layers = (
{
guides = (
{
angle = 90;
position = "{60, 0}";
},
{
position = "{0, 420}";
},
{
angle = 90;
position = "{420, 0}";
},
{
position = "{0, 60}";
},
{
angle = 90;
position = "{240, 0}";
},
{
angle = 90;
position = "{210, 0}";
},
{
angle = 90;
position = "{270, 0}";
},
{
position = "{0, 240}";
}
);
layerId = "F9FA6E1A-C3C7-41E3-A510-E095624E106C";
shapes = (
{
closed = 1;
nodes = (
(270,420,l),
(270,480,l),
(480,480,l),
(480,437,l),
(282,240,l),
(480,42,l),
(480,0,l),
(270,0,l),
(270,60,l),
(378,60,l),
(240,198,l),
(102,60,l),
(102,60,o),
(210,60,o),
(210,60,c),
(210,0,l),
(0,0,l),
(0,42,l),
(198,240,l),
(0,437,l),
(0,480,l),
(210,480,l),
(210,420,l),
(102,420,l),
(240,282,l),
(378,420,l)
);
}
);
width = 540;
}
);
unicode = 935;
},
{
glyphname = beta;
layers = (
{
guides = (
{
angle = 90;
position = "{60, 0}";
},
{
position = "{0, 420}";
},
{
angle = 90;
position = "{420, 0}";
},
{
position = "{0, 60}";
},
{
angle = 90;
position = "{240, 0}";
},
{
angle = 90;
position = "{210, 0}";
},
{
angle = 90;
position = "{270, 0}";
},
{
position = "{0, 240}";
},
{
position = "{0, 270}";
},
{
position = "{0, 210}";
},
{
position = "{0, -180}";
}
);
layerId = "F9FA6E1A-C3C7-41E3-A510-E095624E106C";
shapes = (
{
closed = 1;
nodes = (
(60,0,l),
(60,-120,l),
(120,-120,l),
(120,-180,l),
(0,-180,l),
(0,480,l),
(270,480,l),
(270,270,l),
(210,270,l),
(210,420,l),
(60,420,l),
(60,270,l),
(210,270,l),
(210,210,l),
(270,210,l),
(270,0,l),
(120,0,l),
(120,60,l),
(210,60,l),
(210,210,l),
(60,210,l),
(60,60,l)
);
}
);
width = 330;
}
);
unicode = 946;
},
{
glyphname = alpha;
layers = (
{
guides = (
{
angle = 90;
position = "{60, 0}";
},
{
position = "{0, 420}";
},
{
angle = 90;
position = "{420, 0}";
},
{
position = "{0, 60}";
},
{
angle = 90;
position = "{240, 0}";
},
{
angle = 90;
position = "{210, 0}";
},
{
angle = 90;
position = "{270, 0}";
},
{
position = "{0, 240}";
},
{
position = "{0, 270}";
},
{
position = "{0, 210}";
}
);
layerId = "F9FA6E1A-C3C7-41E3-A510-E095624E106C";
shapes = (
{
closed = 1;
nodes = (
(150,0,l),
(0,0,l),
(0,210,l),
(60,210,l),
(60,60,l),
(210,60,l)
);
},
{
closed = 1;
nodes = (
(210,60,l),
(210,210,l),
(60,210,l),
(60,270,l),
(270,270,l),
(270,84,l),
(312,43,l),
(312,0,l),
(270,0,l)
);
}
);
width = 372;
}
);
unicode = 945;
},
{
glyphname = rho;
layers = (
{
guides = (
{
angle = 90;
position = "{60, 0}";
},
{
position = "{0, 420}";
},
{
angle = 90;
position = "{420, 0}";
},
{
position = "{0, 60}";
},
{
angle = 90;
position = "{240, 0}";
},
{
angle = 90;
position = "{210, 0}";
},
{
angle = 90;
position = "{270, 0}";
},
{
position = "{0, 240}";
},
{
position = "{0, 270}";
},
{
position = "{0, 210}";
}
);
layerId = "F9FA6E1A-C3C7-41E3-A510-E095624E106C";
shapes = (
{
closed = 1;
nodes = (
(270,270,l),
(270,0,l),
(60,0,l),
(60,-180,l),
(0,-180,l),
(0,210,l),
(60,210,l),
(60,270,l)
);
},
{
closed = 1;
nodes = (
(210,210,l),
(60,210,l),
(60,60,l),
(210,60,l)
);
}
);
width = 330;
}
);
unicode = 961;
},
{
glyphname = phi;
layers = (
{
guides = (
{
angle = 90;
position = "{60, 0}";
},
{
position = "{0, 420}";
},
{
angle = 90;
position = "{420, 0}";
},
{
position = "{0, 60}";
},
{
angle = 90;
position = "{240, 0}";
},
{
angle = 90;
position = "{210, 0}";
},
{
angle = 90;
position = "{270, 0}";
},
{
position = "{0, 240}";
},
{
position = "{0, 270}";
},
{
position = "{0, 210}";
},
{
position = "{0, -180}";
}
);
layerId = "F9FA6E1A-C3C7-41E3-A510-E095624E106C";
shapes = (
{
closed = 1;
nodes = (
(195,210,l),
(195,60,l),
(270,60,l),
(270,210,l)
);
},
{
closed = 1;
nodes = (
(135,-180,l),
(135,-120,l),
(135,-120,l),
(135,0,l),
(60,0,l),
(0,0,l),
(0,270,l),
(60,270,l),
(60,60,l),
(135,60,l),
(135,270,l),
(330,270,l),
(330,0,l),
(195,0,l),
(195,-120,l),
(195,-120,l),
(195,-180,l)
);
}
);
width = 390;
}
);
unicode = 966;
},
{
glyphname = sigma;
layers = (
{
guides = (
{
angle = 90;
position = "{60, 0}";
},
{
position = "{0, 420}";
},
{
angle = 90;
position = "{420, 0}";
},
{
position = "{0, 60}";
},
{
angle = 90;
position = "{240, 0}";
},
{
angle = 90;
position = "{210, 0}";
},
{
angle = 90;
position = "{270, 0}";
},
{
position = "{0, 240}";
},
{
position = "{0, 270}";
},
{
position = "{0, 210}";
}
);
layerId = "F9FA6E1A-C3C7-41E3-A510-E095624E106C";
shapes = (
{
closed = 1;
nodes = (
(330,210,l),
(330,270,l),
(0,270,l),
(0,0,l),
(270,0,l),
(270,210,l),
(210,210,l),
(210,60,l),
(60,60,l),
(60,210,l),
(210,210,l)
);
}
);
width = 390;
}
);
unicode = 963;
},
{
glyphname = tau;
layers = (
{
guides = (
{
angle = 90;
position = "{60, 0}";
},
{
position = "{0, 420}";
},
{
position = "{0, 60}";
},
{
angle = 90;
position = "{240, 0}";
},
{
angle = 90;
position = "{210, 0}";
},
{
angle = 90;
position = "{270, 0}";
showMeasurement = 1;
},
{
position = "{0, 240}";
},
{
position = "{0, 270}";
},
{
position = "{0, 210}";
},
{
angle = 90;
position = "{480, 0}";
},
{
angle = 90;
position = "{135, 0}";
},
{
angle = 90;
position = "{104, 0}";
}
);
layerId = "F9FA6E1A-C3C7-41E3-A510-E095624E106C";
shapes = (
{
closed = 1;
nodes = (
(0,210,l),
(0,270,l),
(270,270,l),
(270,210,l),
(164,210,l),
(164,60,l),
(224,60,l),
(224,0,l),
(104,0,l),
(104,210,l)
);
}
);
width = 330;
}
);
unicode = 964;
},
{
glyphname = theta;
layers = (
{
guides = (
{
angle = 90;
position = "{60, 0}";
},
{
position = "{0, 420}";
},
{
angle = 90;
position = "{420, 0}";
},
{
position = "{0, 60}";
},
{
angle = 90;
position = "{240, 0}";
},
{
angle = 90;
position = "{210, 0}";
},
{
angle = 90;
position = "{270, 0}";
},
{
position = "{0, 240}";
},
{
position = "{0, 270}";
},
{
position = "{0, 210}";
},
{
position = "{0, 480}";
}
);
layerId = "F9FA6E1A-C3C7-41E3-A510-E095624E106C";
shapes = (
{
closed = 1;
nodes = (
(210,60,l),
(60,60,l),
(60,210,l),
(210,210,l)
);
},
{
closed = 1;
nodes = (
(210,270,l),
(60,270,l),
(60,420,l),
(210,420,l)
);
},
{
closed = 1;
nodes = (
(270,480,l),
(60,480,l),
(0,480,l),
(0,420,l),
(0,0,l),
(210,0,l),
(270,0,l),
(270,60,l)
);
}
);
width = 330;
}
);
unicode = 952;
},
{
glyphname = lambda;
layers = (
{
guides = (
{
angle = 90;
position = "{60, 0}";
},
{
position = "{0, 420}";
},
{
angle = 90;
position = "{420, 0}";
},
{
position = "{0, 60}";
},
{
angle = 90;
position = "{240, 0}";
},
{
angle = 90;
position = "{210, 0}";
},
{
angle = 90;
position = "{270, 0}";
},
{
position = "{0, 240}";
},
{
position = "{0, 270}";
},
{
position = "{0, 210}";
},
{
position = "{0, 480}";
}
);
layerId = "F9FA6E1A-C3C7-41E3-A510-E095624E106C";
shapes = (
{
closed = 1;
nodes = (
(210,252,l),
(0,42,l),
(0,0,l),
(43,0,l),
(210,168,l),
(210,0,l),
(270,0,l),
(270,480,l),
(150,480,l),
(150,420,l),
(210,420,l)
);
}
);
width = 330;
}
);
unicode = 955;
},
{
glyphname = kappa;
layers = (
{
guides = (
{
angle = 90;
position = "{60, 0}";
},
{
position = "{0, 420}";
},
{
angle = 90;
position = "{420, 0}";
},
{
position = "{0, 60}";
},
{
angle = 90;
position = "{240, 0}";
},
{
angle = 90;
position = "{210, 0}";
},
{
angle = 90;
position = "{270, 0}";
},
{
position = "{0, 240}";
},
{
position = "{0, 270}";
},
{
position = "{0, 210}";
},
{
position = "{0, 480}";
}
);
layerId = "F9FA6E1A-C3C7-41E3-A510-E095624E106C";
shapes = (
{
closed = 1;
nodes = (
(167,60,l),
(120,60,l),
(120,0,l),
(270,0,l),
(270,42,l),
(72,240,l),
(270,438,l),
(270,480,l),
(120,480,l),
(120,420,l),
(167,420,l),
(60,312,l),
(60,420,l),
(60,420,l),
(60,480,l),
(0,480,l),
(0,0,l),
(60,0,l),
(60,60,l),
(60,60,l),
(60,168,l)
);
}
);
width = 330;
}
);
unicode = 954;
},
{
glyphname = gamma;
layers = (
{
guides = (
{
angle = 90;
position = "{120, 0}";
},
{
position = "{0, 420}";
},
{
angle = 90;
position = "{480, 0}";
},
{
position = "{0, 60}";
},
{
angle = 90;
position = "{300, 0}";
},
{
angle = 90;
position = "{270, 0}";
},
{
angle = 90;
position = "{330, 0}";
},
{
position = "{0, 240}";
},
{
position = "{0, 270}";
},
{
position = "{0, 210}";
},
{
position = "{0, 480}";
}
);
layerId = "F9FA6E1A-C3C7-41E3-A510-E095624E106C";
shapes = (
{
closed = 1;
nodes = (
(120,0,l),
(120,228,l),
(330,438,l),
(330,480,l),
(287,480,l),
(120,312,l),
(120,480,l),
(0,480,l),
(0,420,l),
(60,420,l),
(60,0,l)
);
}
);
width = 390;
}
);
unicode = 947;
},
{
glyphname = iota;
layers = (
{
guides = (
{
position = "{0, 420}";
},
{
position = "{0, 60}";
},
{
position = "{0, 120}";
},
{
position = "{0, 480}";
},
{
position = "{0, 270}";
}
);
layerId = "F9FA6E1A-C3C7-41E3-A510-E095624E106C";
shapes = (
{
closed = 1;
nodes = (
(0,270,l),
(60,270,l),
(60,60,l),
(120,60,l),
(120,0,l),
(0,0,l)
);
}
);
width = 180;
}
);
unicode = 953;
},
{
glyphname = epsilon;
layers = (
{
guides = (
{
position = "{0, 420}";
},
{
position = "{0, 60}";
},
{
position = "{0, 120}";
},
{
position = "{0, 480}";
},
{
position = "{0, 270}";
},
{
position = "{0, 375}";
showMeasurement = 1;
},
{
angle = 90;
position = "{420, 0}";
},
{
angle = 90;
position = "{210, 0}";
}
);
layerId = "F9FA6E1A-C3C7-41E3-A510-E095624E106C";
shapes = (
{
closed = 1;
nodes = (
(60,165,l),
(60,210,l),
(210,210,l),
(210,270,l),
(0,270,l),
(0,165,l),
(60,165,l),
(60,105,l),
(0,105,l),
(0,0,l),
(210,0,l),
(210,60,l),
(60,60,l),
(60,105,l),
(150,105,l),
(150,165,l)
);
}
);
width = 270;
}
);
unicode = 949;
},
{
glyphname = chi;
layers = (
{
guides = (
{
angle = 90;
position = "{30, 0}";
},
{
position = "{0, 420}";
},
{
angle = 90;
position = "{390, 0}";
},
{
position = "{0, 60}";
},
{
angle = 90;
position = "{210, 0}";
},
{
angle = 90;
position = "{180, 0}";
},
{
angle = 90;
position = "{240, 0}";
},
{
position = "{0, 240}";
},
{
position = "{0, 270}";
},
{
position = "{0, 210}";
},
{
position = "{0, 480}";
},
{
angle = 90;
position = "{0, 0}";
}
);
layerId = "F9FA6E1A-C3C7-41E3-A510-E095624E106C";
shapes = (
{
closed = 1;
nodes = (
(180,60,l),
(180,275,l),
(300,395,l),
(300,480,l),
(180,359,l),
(180,480,l),
(0,480,l),
(0,420,l),
(120,420,l),
(120,205,l),
(0,85,l),
(0,0,l),
(120,121,l),
(120,0,l),
(300,0,l),
(300,60,l)
);
}
);
width = 360;
}
);
unicode = 967;
},
{
glyphname = psi;
layers = (
{
guides = (
{
angle = 90;
position = "{60, 0}";
},
{
position = "{0, 420}";
},
{
angle = 90;
position = "{420, 0}";
},
{
position = "{0, 60}";
},
{
angle = 90;
position = "{240, 0}";
},
{
angle = 90;
position = "{210, 0}";
},
{
angle = 90;
position = "{270, 0}";
},
{
position = "{0, 240}";
},
{
position = "{0, 270}";
},
{
position = "{0, 210}";
},
{
position = "{0, -180}";
}
);
layerId = "F9FA6E1A-C3C7-41E3-A510-E095624E106C";
shapes = (
{
closed = 1;
nodes = (
(195,420,l),
(195,60,l),
(270,60,l),
(270,270,l),
(330,270,l),
(330,0,l),
(195,0,l),
(195,-120,l),
(195,-120,l),
(195,-180,l),
(135,-180,l),
(135,-120,l),
(135,-120,l),
(135,0,l),
(60,0,l),
(0,0,l),
(0,270,l),
(60,270,l),
(60,60,l),
(135,60,l),
(135,420,l),
(135,420,l),
(135,480,l),
(195,480,l)
);
}
);
width = 390;
}
);
unicode = 968;
},
{
glyphname = delta;
layers = (
{
guides = (
{
angle = 90;
position = "{60, 0}";
},
{
position = "{0, 420}";
},
{
position = "{0, 60}";
},
{
angle = 90;
position = "{240, 0}";
},
{
angle = 90;
position = "{210, 0}";
},
{
angle = 90;
position = "{270, 0}";
},
{
position = "{0, 240}";
},
{
position = "{0, 270}";
},
{
position = "{0, 210}";
},
{
position = "{0, 480}";
}
);
layerId = "F9FA6E1A-C3C7-41E3-A510-E095624E106C";
shapes = (
{
closed = 1;
nodes = (
(270,252,l),
(270,0,l),
(0,0,l),
(0,270,l),
(120,270,l),
(120,210,l),
(60,210,l),
(60,60,l),
(210,60,l),
(210,228,l),
(0,438,l),
(0,480,l),
(270,480,l),
(270,360,l),
(210,360,l),
(210,420,l),
(103,420,l)
);
}
);
width = 330;
}
);
unicode = 948;
},
{
glyphname = sigma1;
layers = (
{
guides = (
{
angle = 90;
position = "{60, 0}";
},
{
position = "{0, 420}";
},
{
position = "{0, 60}";
},
{
angle = 90;
position = "{210, 0}";
},
{
angle = 90;
position = "{270, 0}";
},
{
position = "{0, 270}";
},
{
position = "{0, 210}";
},
{
position = "{0, -180}";
}
);
layerId = "F9FA6E1A-C3C7-41E3-A510-E095624E106C";
shapes = (
{
closed = 1;
nodes = (
(210,0,l),
(0,0,l),
(0,270,l),
(270,270,l),
(270,120,l),
(210,120,l),
(210,210,l),
(60,210,l),
(60,60,l),
(270,60,l),
(270,-120,l),
(150,-120,l),
(150,-60,l),
(210,-60,l)
);
}
);
width = 330;
}
);
unicode = 962;
},
{
glyphname = upsilon;
layers = (
{
guides = (
{
angle = 90;
position = "{60, 0}";
},
{
position = "{0, 420}";
},
{
position = "{0, 60}";
},
{
angle = 90;
position = "{210, 0}";
},
{
angle = 90;
position = "{270, 0}";
},
{
position = "{0, 270}";
},
{
position = "{0, 210}";
}
);
layerId = "F9FA6E1A-C3C7-41E3-A510-E095624E106C";
shapes = (
{
closed = 1;
nodes = (
(60,270,l),
(60,60,l),
(210,60,l),
(210,0,l),
(0,0,l),
(0,270,l)
);
},
{
closed = 1;
nodes = (
(210,270,l),
(270,270,l),
(270,60,l),
(210,60,l)
);
}
);
width = 330;
}
);
unicode = 965;
},
{
glyphname = zeta;
layers = (
{
guides = (
{
angle = 90;
position = "{60, 0}";
},
{
position = "{0, 420}";
},
{
position = "{0, 60}";
},
{
angle = 90;
position = "{210, 0}";
},
{
angle = 90;
position = "{270, 0}";
},
{
position = "{0, 270}";
},
{
position = "{0, 210}";
},
{
position = "{0, -180}";
},
{
position = "{0, 480}";
}
);
layerId = "F9FA6E1A-C3C7-41E3-A510-E095624E106C";
shapes = (
{
closed = 1;
nodes = (
(168,420,l),
(0,252,l),
(0,0,l),
(210,0,l),
(210,-60,l),
(150,-60,l),
(150,-120,l),
(270,-120,l),
(270,60,l),
(60,60,l),
(60,227,l),
(270,438,l),
(270,480,l),
(0,480,l),
(0,420,l)
);
}
);
width = 330;
}
);
unicode = 950;
},
{
glyphname = xi;
layers = (
{
guides = (
{
angle = 90;
position = "{60, 0}";
},
{
position = "{0, 420}";
},
{
position = "{0, 60}";
},
{
angle = 90;
position = "{210, 0}";
},
{
angle = 90;
position = "{270, 0}";
},
{
position = "{0, 270}";
},
{
position = "{0, 210}";
},
{
position = "{0, -180}";
},
{
position = "{0, 480}";
}
);
layerId = "F9FA6E1A-C3C7-41E3-A510-E095624E106C";
shapes = (
{
closed = 1;
nodes = (
(104,60,l),
(270,227,l),
(270,270,l),
(210,270,l),
(103,270,l),
(270,438,l),
(270,480,l),
(0,480,l),
(0,420,l),
(168,420,l),
(0,252,l),
(0,210,l),
(169,210,l),
(0,41,l),
(0,0,l),
(210,0,l),
(210,-60,l),
(150,-60,l),
(150,-120,l),
(270,-120,l),
(270,60,l)
);
}
);
width = 330;
}
);
unicode = 958;
},
{
glyphname = uni03A9;
layers = (
{
guides = (
{
angle = 90;
position = "{60, 0}";
},
{
position = "{0, 420}";
},
{
angle = 90;
position = "{420, 0}";
},
{
position = "{0, 60}";
},
{
angle = 90;
position = "{240, 0}";
},
{
angle = 90;
position = "{210, 0}";
},
{
angle = 90;
position = "{270, 0}";
},
{
angle = 90;
position = "{150, 0}";
}
);
layerId = "F9FA6E1A-C3C7-41E3-A510-E095624E106C";
shapes = (
{
closed = 1;
nodes = (
(150,60,l),
(150,120,l),
(0,120,l),
(0,480,l),
(210,480,l),
(210,420,l),
(60,420,l),
(60,180,l),
(210,180,l),
(210,0,l),
(0,0,l),
(0,60,l)
);
},
{
closed = 1;
nodes = (
(330,60,l),
(330,120,l),
(480,120,l),
(480,480,l),
(270,480,l),
(270,420,l),
(420,420,l),
(420,180,l),
(270,180,l),
(270,0,l),
(480,0,l),
(480,60,l)
);
}
);
width = 540;
}
);
unicode = 937;
},
{
glyphname = approxequal;
layers = (
{
guides = (
{
position = "{0, 420}";
},
{
position = "{0, 60}";
},
{
position = "{0, 120}";
},
{
position = "{0, 480}";
},
{
position = "{0, 270}";
},
{
position = "{0, 240}";
},
{
angle = 90;
position = "{300, 0}";
},
{
angle = 90;
position = "{360, 0}";
},
{
position = "{0, 377}";
}
);
layerId = "F9FA6E1A-C3C7-41E3-A510-E095624E106C";
shapes = (
{
closed = 1;
nodes = (
(247,240,l),
(312,305,l),
(269,347,l),
(204,281,l),
(139,347,l),
(54,347,l),
(-11,283,l),
(31,240,l),
(96,306,l),
(161,240,l)
);
},
{
closed = 1;
nodes = (
(247,133,l),
(312,198,l),
(269,240,l),
(204,174,l),
(139,240,l),
(54,240,l),
(-11,176,l),
(31,133,l),
(96,199,l),
(161,133,l)
);
}
);
width = 360;
}
);
unicode = 8776;
},
{
glyphname = ring;
layers = (
{
guides = (
{
position = "{0, 420}";
},
{
position = "{0, 60}";
},
{
position = "{0, 120}";
},
{
position = "{0, 480}";
},
{
position = "{0, 300}";
},
{
position = "{0, 375}";
},
{
angle = 90;
position = "{420, 0}";
},
{
angle = 90;
position = "{180, 0}";
}
);
layerId = "F9FA6E1A-C3C7-41E3-A510-E095624E106C";
shapes = (
{
closed = 1;
nodes = (
(180,300,l),
(0,300,l),
(0,480,l),
(180,480,l)
);
},
{
closed = 1;
nodes = (
(60,360,l),
(120,360,l),
(120,420,l),
(60,420,l)
);
}
);
width = 270;
}
);
unicode = 730;
},
{
glyphname = Oslash;
layers = (
{
guides = (
{
angle = 90;
position = "{60, 0}";
},
{
position = "{0, 420}";
},
{
angle = 90;
position = "{420, 0}";
},
{
position = "{0, 60}";
},
{
angle = 90;
position = "{240, 0}";
},
{
angle = 90;
position = "{210, 0}";
},
{
angle = 90;
position = "{270, 0}";
}
);
layerId = "F9FA6E1A-C3C7-41E3-A510-E095624E106C";
shapes = (
{
closed = 1;
nodes = (
(210,420,l),
(210,480,l),
(0,480,l),
(0,0,l),
(210,0,l),
(210,60,l),
(60,60,l),
(60,420,l)
);
},
{
closed = 1;
nodes = (
(270,0,l),
(480,0,l),
(480,480,l),
(270,480,l),
(270,420,l),
(420,420,l),
(420,60,l),
(270,60,l)
);
},
{
closed = 1;
nodes = (
(-42,-42,l),
(0,-42,l),
(522,480,l),
(522,522,l),
(480,522,l),
(-42,1,l)
);
}
);
width = 540;
}
);
unicode = 216;
},
{
glyphname = asciitilde;
layers = (
{
guides = (
{
position = "{0, 240}";
},
{
position = "{0, 294}";
},
{
position = "{0, 187}";
}
);
layerId = "F9FA6E1A-C3C7-41E3-A510-E095624E106C";
shapes = (
{
closed = 1;
nodes = (
(247,187,l),
(312,252,l),
(269,294,l),
(204,228,l),
(139,294,l),
(54,294,l),
(-11,230,l),
(31,187,l),
(96,253,l),
(161,187,l)
);
}
);
width = 360;
}
);
unicode = 126;
},
{
glyphname = tilde;
layers = (
{
guides = (
{
position = "{0, 480}";
}
);
layerId = "F9FA6E1A-C3C7-41E3-A510-E095624E106C";
shapes = (
{
closed = 1;
nodes = (
(247,373,l),
(161,373,l),
(96,439,l),
(31,373,l),
(-11,416,l),
(54,480,l),
(139,480,l),
(204,414,l),
(269,480,l),
(312,438,l)
);
}
);
width = 360;
}
);
unicode = 732;
},
{
glyphname = summation;
layers = (
{
guides = (
{
angle = 90;
position = "{60, 0}";
},
{
position = "{0, 420}";
},
{
angle = 90;
position = "{420, 0}";
},
{
position = "{0, 60}";
},
{
angle = 90;
position = "{240, 0}";
},
{
angle = 90;
position = "{210, 0}";
},
{
angle = 90;
position = "{270, 0}";
}
);
layerId = "F9FA6E1A-C3C7-41E3-A510-E095624E106C";
shapes = (
{
closed = 1;
nodes = (
(0,41,l),
(1,-1,l),
(480,-1,l),
(480,60,l),
(420,60,l),
(420,59,l),
(102,59,l),
(282,239,l),
(103,419,l),
(419,419,l),
(419,420,l),
(479,420,l),
(479,479,l),
(0,479,l),
(0,437,l),
(198,239,l)
);
}
);
width = 540;
}
);
unicode = 8721;
},
{
glyphname = tonos;
layers = (
{
guides = (
{
position = "{0, 420}";
},
{
position = "{0, 60}";
},
{
position = "{0, 480}";
}
);
layerId = "F9FA6E1A-C3C7-41E3-A510-E095624E106C";
shapes = (
{
closed = 1;
nodes = (
(78,480,l),
(0,402,l),
(0,360,l),
(43,360,l),
(120,438,l)
);
}
);
width = 180;
}
);
unicode = 900;
},
{
glyphname = Alpha;
layers = (
{
guides = (
{
angle = 90;
position = "{60, 0}";
},
{
position = "{0, 420}";
},
{
angle = 90;
position = "{420, 0}";
},
{
position = "{0, 60}";
},
{
angle = 90;
position = "{240, 0}";
},
{
angle = 90;
position = "{210, 0}";
},
{
angle = 90;
position = "{270, 0}";
}
);
layerId = "F9FA6E1A-C3C7-41E3-A510-E095624E106C";
shapes = (
{
closed = 1;
nodes = (
(222,180,l),
(420,378,l),
(420,60,l),
(360,60,l),
(360,0,l),
(480,0,l),
(480,480,l),
(438,480,l),
(0,43,l),
(0,0,l),
(42,0,l),
(162,120,l),
(360,120,l),
(360,180,l)
);
}
);
width = 540;
}
);
unicode = 913;
},
{
glyphname = omega;
layers = (
{
guides = (
{
angle = 90;
position = "{60, 0}";
},
{
position = "{0, 420}";
},
{
position = "{0, 60}";
},
{
angle = 90;
position = "{210, 0}";
},
{
angle = 90;
position = "{270, 0}";
},
{
position = "{0, 270}";
},
{
position = "{0, 210}";
},
{
angle = 90;
position = "{120, 0}";
showMeasurement = 1;
}
);
layerId = "F9FA6E1A-C3C7-41E3-A510-E095624E106C";
shapes = (
{
closed = 1;
nodes = (
(135,0,l),
(135,60,l),
(195,60,l),
(195,0,l),
(330,0,l),
(330,270,l),
(210,270,l),
(210,210,l),
(270,210,l),
(270,60,l),
(195,60,l),
(195,180,l),
(135,180,l),
(135,60,l),
(60,60,l),
(60,210,l),
(120,210,l),
(120,270,l),
(0,270,l),
(0,0,l)
);
}
);
width = 390;
}
);
unicode = 969;
},
{
glyphname = acute;
layers = (
{
guides = (
{
position = "{0, 420}";
},
{
position = "{0, 60}";
},
{
position = "{0, 480}";
}
);
layerId = "F9FA6E1A-C3C7-41E3-A510-E095624E106C";
shapes = (
{
closed = 1;
nodes = (
(78,480,l),
(0,402,l),
(0,360,l),
(43,360,l),
(120,438,l)
);
}
);
width = 180;
}
);
unicode = 180;
},
{
glyphname = grave;
layers = (
{
guides = (
{
position = "{0, 420}";
},
{
position = "{0, 60}";
},
{
position = "{0, 480}";
}
);
layerId = "F9FA6E1A-C3C7-41E3-A510-E095624E106C";
shapes = (
{
closed = 1;
nodes = (
(42,480,l),
(0,438,l),
(77,360,l),
(120,360,l),
(120,402,l)
);
}
);
width = 180;
}
);
unicode = 96;
},
{
glyphname = hungarumlaut;
layers = (
{
guides = (
{
position = "{0, 420}";
},
{
position = "{0, 60}";
},
{
position = "{0, 480}";
}
);
layerId = "F9FA6E1A-C3C7-41E3-A510-E095624E106C";
shapes = (
{
closed = 1;
nodes = (
(78,480,l),
(0,402,l),
(0,360,l),
(43,360,l),
(120,438,l)
);
},
{
closed = 1;
nodes = (
(198,480,l),
(120,402,l),
(120,360,l),
(163,360,l),
(240,438,l)
);
}
);
width = 300;
}
);
unicode = 733;
},
{
glyphname = caron;
layers = (
{
guides = (
{
position = "{0, 420}";
},
{
position = "{0, 60}";
},
{
position = "{0, 120}";
},
{
position = "{0, 480}";
},
{
position = "{0, 270}";
},
{
position = "{0, 240}";
},
{
angle = 90;
position = "{135, 0}";
},
{
angle = 90;
position = "{269, 0}";
},
{
angle = 90;
position = "{1, 0}";
},
{
position = "{0, 304}";
}
);
layerId = "F9FA6E1A-C3C7-41E3-A510-E095624E106C";
shapes = (
{
closed = 1;
nodes = (
(135,303,l),
(0,438,l),
(43,480,l),
(135,387,l),
(227,480,l),
(270,438,l)
);
}
);
width = 330;
}
);
unicode = 711;
},
{
glyphname = anoteleia;
layers = (
{
guides = (
{
position = "{0, 315}";
},
{
position = "{0, 375}";
},
{
position = "{0, 340}";
}
);
layerId = "F9FA6E1A-C3C7-41E3-A510-E095624E106C";
shapes = (
{
closed = 1;
nodes = (
(0,375,l),
(60,375,l),
(60,315,l),
(0,315,l)
);
}
);
width = 120;
}
);
unicode = 903;
},
{
glyphname = perispomenicomb;
layers = (
{
guides = (
{
position = "{0, 480}";
}
);
layerId = "F9FA6E1A-C3C7-41E3-A510-E095624E106C";
shapes = (
{
closed = 1;
nodes = (
(247,373,l),
(161,373,l),
(96,439,l),
(31,373,l),
(-11,416,l),
(54,480,l),
(139,480,l),
(204,414,l),
(269,480,l),
(312,438,l)
);
}
);
width = 360;
}
);
unicode = 834;
},
{
glyphname = koroniscomb;
layers = (
{
guides = (
{
position = "{0, 420}";
},
{
position = "{0, 60}";
},
{
position = "{0, 480}";
}
);
layerId = "F9FA6E1A-C3C7-41E3-A510-E095624E106C";
shapes = (
{
closed = 1;
nodes = (
(78,480,l),
(0,402,l),
(0,360,l),
(43,360,l),
(120,438,l)
);
}
);
width = 180;
}
);
unicode = 835;
},
{
glyphname = iotasubcomb;
layers = (
{
layerId = "F9FA6E1A-C3C7-41E3-A510-E095624E106C";
shapes = (
{
closed = 1;
nodes = (
(0,-120,l),
(60,-180,l),
(120,-180,l),
(120,-120,l),
(60,-120,l),
(60,-60,l),
(0,-60,l)
);
}
);
width = 333;
}
);
unicode = 837;
},
{
glyphname = estimated;
layers = (
{
guides = (
{
angle = 90;
position = "{60, 0}";
},
{
position = "{0, 420}";
},
{
position = "{0, 60}";
},
{
angle = 90;
position = "{240, 0}";
},
{
angle = 90;
position = "{210, 0}";
},
{
angle = 90;
position = "{270, 0}";
},
{
position = "{0, 240}";
},
{
position = "{0, 270}";
},
{
position = "{0, 210}";
}
);
layerId = "F9FA6E1A-C3C7-41E3-A510-E095624E106C";
shapes = (
{
closed = 1;
nodes = (
(270,227,l),
(270,270,l),
(0,270,l),
(0,0,l),
(270,0,l),
(270,120,l),
(210,120,l),
(210,60,l),
(102,60,l)
);
},
{
closed = 1;
nodes = (
(168,210,l),
(60,102,l),
(60,210,l)
);
}
);
width = 330;
}
);
unicode = 8494;
},
{
glyphname = partialdiff;
layers = (
{
guides = (
{
angle = 90;
position = "{60, 0}";
},
{
position = "{0, 420}";
},
{
angle = 90;
position = "{420, 0}";
},
{
position = "{0, 60}";
},
{
angle = 90;
position = "{240, 0}";
},
{
angle = 90;
position = "{210, 0}";
},
{
angle = 90;
position = "{270, 0}";
},
{
position = "{0, 240}";
},
{
position = "{0, 270}";
},
{
position = "{0, 210}";
},
{
position = "{0, 480}";
}
);
layerId = "F9FA6E1A-C3C7-41E3-A510-E095624E106C";
shapes = (
{
closed = 1;
nodes = (
(210,60,l),
(60,60,l),
(60,210,l),
(210,210,l)
);
},
{
closed = 1;
nodes = (
(60,360,l),
(60,420,l),
(210,420,l),
(210,270,l),
(0,270,l),
(0,0,l),
(210,0,l),
(270,0,l),
(270,60,l),
(270,480,l),
(60,480,l),
(0,480,l),
(0,360,l)
);
}
);
width = 330;
}
);
unicode = 8706;
},
{
glyphname = product;
layers = (
{
guides = (
{
angle = 90;
position = "{60, 0}";
},
{
position = "{0, 420}";
},
{
angle = 90;
position = "{420, 0}";
},
{
position = "{0, 60}";
},
{
angle = 90;
position = "{240, 0}";
},
{
angle = 90;
position = "{210, 0}";
},
{
angle = 90;
position = "{270, 0}";
}
);
layerId = "F9FA6E1A-C3C7-41E3-A510-E095624E106C";
shapes = (
{
closed = 1;
nodes = (
(480,0,l),
(480,478,l),
(0,478,l),
(0,0,l),
(60,0,l),
(60,418,l),
(420,418,l),
(420,0,l)
);
}
);
width = 540;
}
);
unicode = 8719;
},
{
glyphname = integral;
layers = (
{
guides = (
{
position = "{0, 420}";
},
{
position = "{0, 60}";
},
{
position = "{0, 120}";
},
{
position = "{0, 480}";
},
{
position = "{0, 270}";
},
{
position = "{0, -180}";
}
);
layerId = "F9FA6E1A-C3C7-41E3-A510-E095624E106C";
shapes = (
{
closed = 1;
nodes = (
(-60,-120,l),
(-60,-180,l),
(60,-180,l),
(60,420,l),
(120,420,l),
(120,480,l),
(0,480,l),
(0,-120,l)
);
}
);
width = 120;
}
);
unicode = 8747;
},
{
glyphname = micro;
layers = (
{
guides = (
{
angle = 90;
position = "{60, 0}";
},
{
position = "{0, 420}";
},
{
position = "{0, 60}";
},
{
angle = 90;
position = "{210, 0}";
},
{
angle = 90;
position = "{270, 0}";
},
{
position = "{0, 270}";
},
{
position = "{0, 210}";
},
{
angle = 90;
position = "{330, 0}";
}
);
layerId = "F9FA6E1A-C3C7-41E3-A510-E095624E106C";
shapes = (
{
closed = 1;
nodes = (
(0,-180,l),
(0,270,l),
(60,270,l),
(60,60,l),
(210,60,l),
(150,0,l),
(60,0,l),
(60,-180,l)
);
},
{
closed = 1;
nodes = (
(210,60,l),
(210,270,l),
(270,270,l),
(270,84,l),
(312,43,l),
(312,0,l),
(270,0,l)
);
}
);
width = 372;
}
);
unicode = 181;
},
{
glyphname = cedilla;
layers = (
{
layerId = "F9FA6E1A-C3C7-41E3-A510-E095624E106C";
shapes = (
{
closed = 1;
nodes = (
(60,-37,l),
(60,0,l),
(0,0,l),
(0,-60,l),
(48,-108,l),
(36,-120,l),
(0,-120,l),
(0,-180,l),
(60,-180,l),
(120,-121,l),
(120,-95,l)
);
}
);
width = 180;
}
);
unicode = 184;
},
{
glyphname = Alphatonos;
layers = (
{
guides = (
{
angle = 90;
position = "{60, 0}";
},
{
position = "{0, 420}";
},
{
angle = 90;
position = "{420, 0}";
},
{
position = "{0, 60}";
},
{
angle = 90;
position = "{240, 0}";
},
{
angle = 90;
position = "{210, 0}";
},
{
angle = 90;
position = "{270, 0}";
}
);
layerId = "F9FA6E1A-C3C7-41E3-A510-E095624E106C";
shapes = (
{
closed = 1;
nodes = (
(222,180,l),
(420,378,l),
(420,60,l),
(360,60,l),
(360,0,l),
(480,0,l),
(480,480,l),
(438,480,l),
(0,43,l),
(0,0,l),
(42,0,l),
(162,120,l),
(360,120,l),
(360,180,l)
);
},
{
closed = 1;
nodes = (
(275,480,l),
(197,402,l),
(197,360,l),
(240,360,l),
(317,438,l)
);
}
);
width = 540;
}
);
unicode = 902;
},
{
glyphname = Epsilontonos;
layers = (
{
guides = (
{
angle = 90;
position = "{240, 0}";
},
{
position = "{0, 420}";
},
{
angle = 90;
position = "{600, 0}";
},
{
position = "{0, 60}";
},
{
angle = 90;
position = "{420, 0}";
},
{
angle = 90;
position = "{390, 0}";
},
{
angle = 90;
position = "{450, 0}";
},
{
position = "{0, 240}";
},
{
position = "{0, 270}";
},
{
position = "{0, 210}";
}
);
layerId = "F9FA6E1A-C3C7-41E3-A510-E095624E106C";
shapes = (
{
closed = 1;
nodes = (
(660,360,l),
(600,360,l),
(600,420,l),
(450,420,l),
(450,480,l),
(660,480,l)
);
},
{
closed = 1;
nodes = (
(180,480,l),
(390,480,l),
(390,420,l),
(240,420,l),
(240,270,l),
(600,270,l),
(600,210,l),
(240,210,l),
(240,60,l),
(390,60,l),
(390,0,l),
(180,0,l)
);
},
{
closed = 1;
nodes = (
(660,120,l),
(660,0,l),
(450,0,l),
(450,60,l),
(600,60,l),
(600,120,l)
);
},
{
closed = 1;
nodes = (
(138,438,l),
(61,360,l),
(18,360,l),
(18,402,l),
(96,480,l)
);
}
);
width = 720;
}
);
unicode = 904;
},
{
glyphname = Etatonos;
layers = (
{
guides = (
{
angle = 90;
position = "{240, 0}";
},
{
position = "{0, 420}";
},
{
angle = 90;
position = "{600, 0}";
},
{
position = "{0, 60}";
},
{
angle = 90;
position = "{420, 0}";
},
{
angle = 90;
position = "{390, 0}";
},
{
angle = 90;
position = "{450, 0}";
},
{
position = "{0, 240}";
},
{
position = "{0, 270}";
},
{
position = "{0, 210}";
}
);
layerId = "F9FA6E1A-C3C7-41E3-A510-E095624E106C";
shapes = (
{
closed = 1;
nodes = (
(600,210,l),
(240,210,l),
(240,60,l),
(300,60,l),
(300,0,l),
(180,0,l),
(180,480,l),
(300,480,l),
(300,420,l),
(240,420,l),
(240,270,l),
(600,270,l),
(600,420,l),
(540,420,l),
(540,480,l),
(660,480,l),
(660,0,l),
(540,0,l),
(540,60,l),
(600,60,l)
);
},
{
closed = 1;
nodes = (
(138,438,l),
(61,360,l),
(18,360,l),
(18,402,l),
(96,480,l)
);
}
);
width = 720;
}
);
unicode = 905;
},
{
glyphname = Iotatonos;
layers = (
{
guides = (
{
position = "{0, 420}";
},
{
position = "{0, 60}";
},
{
angle = 90;
position = "{660, 0}";
},
{
angle = 90;
position = "{420, 0}";
},
{
angle = 90;
position = "{389, 0}";
},
{
angle = 90;
position = "{450, 0}";
}
);
layerId = "F9FA6E1A-C3C7-41E3-A510-E095624E106C";
shapes = (
{
closed = 1;
nodes = (
(180,0,l),
(660,0,l),
(660,120,l),
(600,120,l),
(600,60,l),
(450,60,l),
(450,420,l),
(600,420,l),
(600,360,l),
(660,360,l),
(660,480,l),
(180,481,l),
(180,361,l),
(240,361,l),
(240,421,l),
(389,420,l),
(389,60,l),
(240,60,l),
(240,120,l),
(180,120,l)
);
},
{
closed = 1;
nodes = (
(96,480,l),
(18,402,l),
(18,360,l),
(61,360,l),
(138,438,l)
);
}
);
width = 720;
}
);
unicode = 906;
},
{
glyphname = Omicrontonos;
layers = (
{
guides = (
{
angle = 90;
position = "{240, 0}";
},
{
position = "{0, 420}";
},
{
angle = 90;
position = "{600, 0}";
},
{
position = "{0, 60}";
},
{
angle = 90;
position = "{420, 0}";
},
{
angle = 90;
position = "{390, 0}";
},
{
angle = 90;
position = "{450, 0}";
}
);
layerId = "F9FA6E1A-C3C7-41E3-A510-E095624E106C";
shapes = (
{
closed = 1;
nodes = (
(390,420,l),
(390,480,l),
(180,480,l),
(180,0,l),
(390,0,l),
(390,60,l),
(240,60,l),
(240,420,l)
);
},
{
closed = 1;
nodes = (
(450,0,l),
(660,0,l),
(660,480,l),
(450,480,l),
(450,420,l),
(600,420,l),
(600,60,l),
(450,60,l)
);
},
{
closed = 1;
nodes = (
(96,480,l),
(18,402,l),
(18,360,l),
(61,360,l),
(138,438,l)
);
}
);
width = 720;
}
);
unicode = 908;
},
{
glyphname = Upsilontonos;
layers = (
{
guides = (
{
angle = 90;
position = "{240, 0}";
},
{
position = "{0, 420}";
},
{
angle = 90;
position = "{600, 0}";
},
{
position = "{0, 60}";
},
{
angle = 90;
position = "{420, 0}";
},
{
angle = 90;
position = "{390, 0}";
},
{
angle = 90;
position = "{450, 0}";
},
{
position = "{0, 240}";
},
{
position = "{0, 270}";
},
{
position = "{0, 210}";
}
);
layerId = "F9FA6E1A-C3C7-41E3-A510-E095624E106C";
shapes = (
{
closed = 1;
nodes = (
(450,228,l),
(450,0,l),
(390,0,l),
(390,228,l),
(180,437,l),
(180,480,l),
(390,480,l),
(390,420,l),
(282,420,l),
(420,282,l),
(558,420,l),
(450,420,l),
(450,480,l),
(660,480,l),
(660,438,l)
);
},
{
closed = 1;
nodes = (
(330,60,l),
(390,60,l),
(390,0,l),
(330,0,l)
);
},
{
closed = 1;
nodes = (
(450,60,l),
(510,60,l),
(510,0,l),
(450,0,l)
);
},
{
closed = 1;
nodes = (
(138,438,l),
(61,360,l),
(18,360,l),
(18,402,l),
(96,480,l)
);
}
);
width = 720;
}
);
unicode = 910;
},
{
glyphname = Omegatonos;
layers = (
{
guides = (
{
angle = 90;
position = "{240, 0}";
},
{
position = "{0, 420}";
},
{
angle = 90;
position = "{600, 0}";
},
{
position = "{0, 60}";
},
{
angle = 90;
position = "{420, 0}";
},
{
angle = 90;
position = "{390, 0}";
},
{
angle = 90;
position = "{450, 0}";
},
{
angle = 90;
position = "{330, 0}";
}
);
layerId = "F9FA6E1A-C3C7-41E3-A510-E095624E106C";
shapes = (
{
closed = 1;
nodes = (
(330,60,l),
(330,120,l),
(180,120,l),
(180,480,l),
(390,480,l),
(390,420,l),
(240,420,l),
(240,180,l),
(390,180,l),
(390,0,l),
(180,0,l),
(180,60,l)
);
},
{
closed = 1;
nodes = (
(510,60,l),
(510,120,l),
(660,120,l),
(660,480,l),
(450,480,l),
(450,420,l),
(600,420,l),
(600,180,l),
(450,180,l),
(450,0,l),
(660,0,l),
(660,60,l)
);
},
{
closed = 1;
nodes = (
(96,480,l),
(18,402,l),
(18,360,l),
(61,360,l),
(138,438,l)
);
}
);
width = 720;
}
);
unicode = 911;
},
{
glyphname = iotadieresistonos;
layers = (
{
guides = (
{
position = "{0, 420}";
},
{
position = "{0, 60}";
},
{
position = "{0, 120}";
},
{
position = "{0, 480}";
},
{
position = "{0, 270}";
},
{
position = "{0, 420}";
},
{
position = "{0, 60}";
},
{
position = "{0, 315}";
}
);
layerId = "F9FA6E1A-C3C7-41E3-A510-E095624E106C";
shapes = (
{
closed = 1;
nodes = (
(60,270,l),
(120,270,l),
(120,60,l),
(180,60,l),
(180,0,l),
(60,0,l)
);
},
{
closed = 1;
nodes = (
(0,315,l),
(60,315,l),
(60,375,l),
(0,375,l)
);
},
{
closed = 1;
nodes = (
(120,315,l),
(180,315,l),
(180,375,l),
(120,375,l)
);
},
{
closed = 1;
nodes = (
(180,498,l),
(103,420,l),
(60,420,l),
(60,462,l),
(138,540,l)
);
}
);
width = 240;
}
);
unicode = 912;
},
{
glyphname = increment;
layers = (
{
guides = (
{
angle = 90;
position = "{60, 0}";
},
{
position = "{0, 420}";
},
{
angle = 90;
position = "{420, 0}";
},
{
position = "{0, 60}";
},
{
angle = 90;
position = "{240, 0}";
},
{
angle = 90;
position = "{210, 0}";
},
{
angle = 90;
position = "{270, 0}";
}
);
layerId = "F9FA6E1A-C3C7-41E3-A510-E095624E106C";
shapes = (
{
closed = 1;
nodes = (
(0,0,l),
(0,43,l),
(438,480,l),
(480,480,l),
(480,0,l)
);
},
{
closed = 1;
nodes = (
(102,60,l),
(420,60,l),
(420,378,l)
);
}
);
width = 540;
}
);
unicode = 8710;
},
{
glyphname = breve;
rightMetricsKey = "=-3+60";
layers = (
{
layerId = "F9FA6E1A-C3C7-41E3-A510-E095624E106C";
shapes = (
{
closed = 1;
nodes = (
(-3,439,l),
(62,373,l),
(148,373,l),
(213,438,l),
(170,480,l),
(105,414,l),
(40,480,l)
);
}
);
width = 270;
}
);
unicode = 728;
},
{
glyphname = ogonek;
layers = (
{
layerId = "F9FA6E1A-C3C7-41E3-A510-E095624E106C";
shapes = (
{
closed = 1;
nodes = (
(60,-37,l),
(0,-95,l),
(0,-121,l),
(60,-180,l),
(120,-180,l),
(120,-120,l),
(84,-120,l),
(72,-108,l),
(120,-60,l),
(120,0,l),
(60,0,l)
);
}
);
width = 180;
}
);
unicode = 731;
},
{
glyphname = Ccedilla;
layers = (
{
guides = (
{
angle = 90;
position = "{60, 0}";
},
{
position = "{0, 420}";
},
{
angle = 90;
position = "{420, 0}";
},
{
position = "{0, 60}";
},
{
angle = 90;
position = "{240, 0}";
},
{
angle = 90;
position = "{210, 0}";
},
{
angle = 90;
position = "{270, 0}";
},
{
position = "{0, 240}";
},
{
position = "{0, 270}";
},
{
position = "{0, 210}";
}
);
layerId = "F9FA6E1A-C3C7-41E3-A510-E095624E106C";
shapes = (
{
closed = 1;
nodes = (
(270,420,l),
(270,480,l),
(480,480,l),
(480,300,l),
(420,300,l),
(420,420,l)
);
},
{
closed = 1;
nodes = (
(270,60,l),
(420,60,l),
(420,180,l),
(480,180,l),
(480,0,l),
(270,0,l),
(270,-37,l),
(330,-95,l),
(330,-121,l),
(270,-180,l),
(210,-180,l),
(210,-120,l),
(246,-120,l),
(258,-108,l),
(210,-60,l),
(210,0,l),
(0,0,l),
(0,480,l),
(210,480,l),
(210,420,l),
(60,420,l),
(60,60,l)
);
}
);
width = 540;
}
);
unicode = 199;
},
{
glyphname = infinity;
layers = (
{
guides = (
{
angle = 90;
position = "{60, 0}";
},
{
position = "{0, 420}";
},
{
angle = 90;
position = "{420, 0}";
},
{
position = "{0, 60}";
},
{
angle = 90;
position = "{240, 0}";
},
{
angle = 90;
position = "{210, 0}";
},
{
angle = 90;
position = "{270, 0}";
},
{
position = "{0, 240}";
},
{
position = "{0, 270}";
},
{
position = "{0, 210}";
},
{
position = "{0, 480}";
},
{
position = "{0, 105}";
}
);
layerId = "F9FA6E1A-C3C7-41E3-A510-E095624E106C";
shapes = (
{
closed = 1;
nodes = (
(270,105,l),
(270,165,l),
(210,165,l),
(210,105,l),
(60,105,l),
(0,105,l),
(0,165,l),
(0,375,l),
(210,375,l),
(210,315,l),
(270,315,l),
(270,375,l),
(420,375,l),
(480,375,l),
(480,315,l),
(480,105,l)
);
},
{
closed = 1;
nodes = (
(210,315,l),
(60,315,l),
(60,165,l),
(210,165,l)
);
},
{
closed = 1;
nodes = (
(420,315,l),
(270,315,l),
(270,165,l),
(420,165,l)
);
}
);
width = 540;
}
);
unicode = 8734;
},
{
glyphname = lozenge;
layers = (
{
guides = (
{
angle = 90;
position = "{480, 0}";
},
{
position = "{0, 480}";
},
{
angle = 90;
position = "{240, 0}";
},
{
position = "{0, 240}";
},
{
angle = 90;
position = "{60, 0}";
},
{
position = "{0, 420}";
}
);
layerId = "F9FA6E1A-C3C7-41E3-A510-E095624E106C";
shapes = (
{
closed = 1;
nodes = (
(240,0,l),
(480,240,l),
(240,480,l),
(0,240,l)
);
},
{
closed = 1;
nodes = (
(240,85,l),
(85,240,l),
(240,396,l),
(395,240,l)
);
}
);
width = 540;
}
);
unicode = 9674;
},
{
glyphname = apple;
layers = (
{
layerId = "F9FA6E1A-C3C7-41E3-A510-E095624E106C";
shapes = (
{
closed = 1;
nodes = (
(94.021,434.084,o),
(137.457,438.469,o),
(181.218,438.469,cs),
(196.434,438.469,o),
(209.85,461.537,o),
(209.85,473.568,cs),
(209.85,482.23,o),
(204.917,483.808,o),
(196.442,483.808,cs),
(154.398,483.808,o),
(112.596,479.146,o),
(70.586,479.146,cs),
(53.277,479.146,o),
(34.19,482.531,o),
(19.835,482.531,cs),
(4.591,482.531,o),
(-8.797,459.447,o),
(-8.797,447.432,cs),
(-8.797,442.863,o),
(-7.212,439.01,o),
(-2.025,437.593,cs),
(12.172,433.714,o),
(35.309,434.084,o),
(50.346,434.084,cs)
);
},
{
closed = 1;
nodes = (
(-34.315,349.566,o),
(-31.951,344.472,o),
(-25.586,344.472,cs),
(-22.871,344.472,o),
(-20.348,345.591,o),
(-18.082,346.815,cs),
(9.646,361.797,o),
(37.117,376.873,o),
(65.406,391.015,cs),
(88.636,402.628,o),
(112.569,413.251,o),
(135.668,425.019,cs),
(147.852,431.225,o),
(157.703,445.867,o),
(157.703,458.568,cs),
(157.703,463.434,o),
(155.339,468.528,o),
(148.974,468.528,cs),
(139.539,468.528,o),
(3.104,397.717,o),
(-13.86,387.185,cs),
(-25.151,380.175,o),
(-34.315,367.055,o),
(-34.315,354.432,cs)
);
},
{
closed = 1;
nodes = (
(75.696,364.173,o),
(82.577,338.227,o),
(85.541,312.628,cs),
(86.088,307.896,o),
(88.064,303.472,o),
(94.24,303.472,cs),
(108.863,303.472,o),
(122.199,327.096,o),
(122.199,338.568,cs),
(122.199,363.519,o),
(112.584,387.557,o),
(112.584,412.507,cs),
(112.584,416.887,o),
(113.323,421.218,o),
(113.323,425.568,cs),
(113.323,430.503,o),
(110.872,435.528,o),
(104.594,435.528,cs),
(84.399,435.528,o),
(75.696,404.163,o),
(75.696,389.885,cs)
);
},
{
closed = 1;
nodes = (
(182.038,344.469,o),
(195.426,367.552,o),
(195.426,379.568,cs),
(195.426,383.539,o),
(194.392,386.816,o),
(190.414,388.903,cs),
(180.861,393.912,o),
(131.195,409.531,o),
(120.8,409.531,cs),
(105.556,409.531,o),
(92.168,386.448,o),
(92.168,374.432,cs),
(92.168,369.578,o),
(93.747,366.327,o),
(98.94,364.593,cs),
(106.122,362.194,o),
(163.997,344.469,o),
(166.794,344.469,cs)
);
},
{
closed = 1;
nodes = (
(355.371,356.469,o),
(377.742,361.268,o),
(398.883,366.91,cs),
(439.756,377.817,o),
(455.119,413.76,o),
(455.119,449.274,cs),
(455.119,468.407,o),
(451.312,488.517,o),
(434.925,502.024,cs),
(419.518,514.723,o),
(396.891,523.562,o),
(375.906,523.562,cs),
(356.093,523.562,o),
(341.805,505.047,o),
(341.805,488.432,cs),
(341.805,479.015,o),
(347.075,478.502,o),
(355.907,478.502,cs),
(388.672,478.502,o),
(418.394,458.137,o),
(418.394,427.089,cs),
(418.394,422.489,o),
(418.047,417.885,o),
(417.651,413.301,c),
(406.092,406.828,o),
(367.803,401.538,o),
(353.642,401.538,cs),
(312.875,401.538,o),
(295.537,433.184,o),
(295.537,465.908,cs),
(295.537,478.452,o),
(301.938,490.104,o),
(301.938,502.568,cs),
(301.938,507.434,o),
(299.574,512.528,o),
(293.209,512.528,cs),
(267.703,512.528,o),
(258.835,460.248,o),
(258.835,443.072,cs),
(258.835,422.406,o),
(262.341,395.28,o),
(278.653,379.587,cs),
(292.712,366.06,o),
(312.334,356.469,o),
(333.219,356.469,cs)
);
},
{
closed = 1;
nodes = (
(370.505,429.472,ls),
(385.254,429.772,o),
(398.465,452.866,o),
(398.465,464.568,cs),
(398.465,478.964,o),
(381.721,474.29,o),
(371.534,474.29,cs),
(344.992,474.29,o),
(337.04,486.528,o),
(330.932,486.528,cs),
(316.309,486.528,o),
(302.973,462.904,o),
(302.973,451.432,cs),
(302.973,433.812,o),
(336.412,429.226,o),
(351.05,429.226,c)
);
},
{
closed = 1;
nodes = (
(511.634,388.51,o),
(509.29,393.528,o),
(502.905,393.528,cs),
(477.815,393.528,o),
(232.4,370.9,o),
(225.153,366.981,cs),
(212.941,360.378,o),
(203.118,346.509,o),
(203.118,333.432,cs),
(203.118,328.566,o),
(205.482,323.472,o),
(211.847,323.472,c),
(212.538,323.517,l),
(241.26,326.538,o),
(488.035,349.158,o),
(489.598,350.019,cs),
(501.869,356.774,o),
(511.634,370.304,o),
(511.634,383.568,cs)
);
},
{
closed = 1;
nodes = (
(340.104,312.698,o),
(338.234,299.634,o),
(338.234,286.505,cs),
(338.234,279.077,o),
(338.502,253.472,o),
(350.534,253.472,cs),
(365.157,253.472,o),
(378.494,277.094,o),
(378.494,288.568,cs),
(378.494,296.428,o),
(374.924,303.886,o),
(374.924,311.755,cs),
(374.924,323.715,o),
(376.848,335.599,o),
(376.848,347.559,cs),
(376.848,354.926,o),
(378.397,376.528,o),
(366.436,376.528,cs),
(351.814,376.528,o),
(338.477,352.906,o),
(338.477,341.432,cs),
(338.477,336.189,o),
(340.104,331.072,o),
(340.104,325.827,cs)
);
},
{
closed = 1;
nodes = (
(440.626,333.509,o),
(438.17,338.528,o),
(431.897,338.528,c),
(430.498,338.394,l),
(399.427,333.779,o),
(350.681,330.011,o),
(350.681,291.432,cs),
(350.681,286.491,o),
(353.137,281.472,o),
(359.41,281.472,cs),
(362.178,281.472,o),
(364.574,282.65,o),
(366.915,283.815,cs),
(382.079,291.364,o),
(398.468,290.334,o),
(414.788,293.736,cs),
(428.727,296.642,o),
(440.626,316.415,o),
(440.626,328.568,cs)
);
},
{
closed = 1;
nodes = (
(277.731,213.402,o),
(278.099,202.472,o),
(287.293,202.472,cs),
(302.377,202.472,o),
(316.113,227.294,o),
(315.158,239.15,cs),
(314.91,242.224,o),
(314.466,245.261,o),
(314.466,248.351,cs),
(314.466,275.516,o),
(326.347,301.399,o),
(326.347,328.568,cs),
(326.347,333.494,o),
(323.906,338.528,o),
(317.618,338.528,cs),
(303.093,338.528,o),
(290.352,315.557,o),
(289.664,304.26,cs),
(287.914,275.55,o),
(277.731,248.226,o),
(277.731,219.338,cs)
);
},
{
closed = 1;
nodes = (
(480.504,226.469,o),
(493.882,249.567,o),
(493.882,261.568,cs),
(493.882,265.815,o),
(492.454,269.659,o),
(487.72,271.281,cs),
(474.658,275.756,o),
(444.692,278.053,o),
(429.584,280.261,cs),
(398.672,284.778,o),
(368.574,290.747,o),
(337.937,296.281,c),
(335.37,296.528,l),
(320.734,296.528,o),
(307.411,272.887,o),
(307.411,261.432,cs),
(307.411,256.985,o),
(308.783,253.551,o),
(313.573,251.719,cs),
(321.961,248.509,o),
(455.42,226.469,o),
(465.25,226.469,cs)
);
},
{
closed = 1;
nodes = (
(240.916,309.556,o),
(238.477,314.528,o),
(232.187,314.528,cs),
(176.357,314.528,o),
(93.7,307.054,o),
(40.712,292.09,cs),
(27.005,288.219,o),
(15.612,269.891,o),
(15.612,257.432,cs),
(15.612,252.506,o),
(18.053,247.472,o),
(24.341,247.472,cs),
(29.621,247.472,o),
(46.84,252.77,o),
(53.455,254.159,cs),
(97.351,263.377,o),
(146.333,267.747,o),
(191.37,267.747,cs),
(217.14,267.747,o),
(240.916,277.338,o),
(240.916,304.568,cs)
);
},
{
closed = 1;
nodes = (
(182.19,219.833,o),
(181.088,208.271,o),
(177.777,196.547,cs),
(177.022,193.876,o),
(176.49,191.198,o),
(176.49,188.432,cs),
(176.49,183.488,o),
(178.949,178.472,o),
(185.219,178.472,cs),
(214.173,178.472,o),
(218.88,238.089,o),
(218.88,256.818,c),
(218.721,293.74,ls),
(218.722,298.896,o),
(216.876,304.528,o),
(209.997,304.528,cs),
(195.561,304.528,o),
(182.535,281.542,o),
(182.042,270.26,cs),
(181.484,257.492,o),
(182.19,244.681,o),
(182.19,231.909,cs)
);
},
{
closed = 1;
nodes = (
(69.978,206.97,o),
(79.406,181.419,o),
(110.2,181.419,cs),
(136.925,181.419,o),
(168.266,224.159,o),
(168.266,246.24,cs),
(168.266,256.084,o),
(159.87,270.531,o),
(147.428,270.531,cs),
(132.178,270.531,o),
(118.796,247.44,o),
(118.796,235.432,c),
(118.796,234.717,o),
(120.458,229.59,o),
(120.742,228.59,c),
(120.535,228.664,l),
(98.599,244.414,o),
(113.363,265.528,o),
(97.937,265.528,cs),
(83.301,265.528,o),
(69.978,241.895,o),
(69.978,230.432,cs)
);
},
{
closed = 1;
nodes = (
(258.668,194.476,o),
(256.247,199.528,o),
(249.939,199.528,c),
(248.54,199.394,l),
(181.94,188.186,o),
(115.18,180.004,o),
(48.398,169.954,cs),
(24.019,166.286,o),
(-1.973,167.396,o),
(-15.451,144.98,cs),
(-18.672,139.622,o),
(-21.001,133.585,o),
(-21.001,127.432,cs),
(-21.001,122.524,o),
(-18.581,117.472,o),
(-12.272,117.472,c),
(-10.15,117.736,l),
(56.578,129.2,o),
(123.65,136.936,o),
(190.575,147.2,cs),
(214.767,150.911,o),
(239.731,149.827,o),
(253.118,172.02,cs),
(256.345,177.37,o),
(258.668,183.421,o),
(258.668,189.568,cs)
);
},
{
closed = 1;
nodes = (
(192.596,72.571,o),
(190.36,41.415,o),
(184.042,33.85,cs),
(180.254,29.315,o),
(164.155,25.833,o),
(157.974,25.833,cs),
(149.696,25.833,o),
(142.582,30.528,o),
(134.551,30.528,cs),
(119.923,30.528,o),
(106.591,6.899,o),
(106.591,-4.568,cs),
(106.591,-17.806,o),
(127.111,-19.242,o),
(137.899,-19.242,cs),
(150.827,-19.242,o),
(162.964,-15.383,o),
(174.214,-9.823,cs),
(218.008,11.821,o),
(229.287,66.288,o),
(229.287,107.49,cs),
(229.287,126.493,o),
(228.317,147.35,o),
(225.288,166.15,cs),
(224.564,170.646,o),
(222.434,174.528,o),
(216.654,174.528,cs),
(202.026,174.528,o),
(188.694,150.899,o),
(188.694,139.432,cs),
(188.694,120.436,o),
(192.596,101.635,o),
(192.596,82.638,cs)
);
},
{
closed = 1;
nodes = (
(16.652,32.9,o),
(35.345,25.964,o),
(59.537,25.964,cs),
(105.089,25.964,o),
(132.046,66.341,o),
(132.046,103.943,cs),
(132.046,109.592,o),
(129.429,120.697,o),
(123.844,123.903,cs),
(119.752,126.251,o),
(106.837,132.528,o),
(102.375,132.528,cs),
(87.752,132.528,o),
(74.416,108.904,o),
(74.416,97.432,cs),
(74.416,87.189,o),
(85.653,85.209,o),
(93.897,81.577,c),
(94.145,80.75,o),
(95.055,78.471,o),
(95.055,77.718,c),
(95.055,76.214,o),
(94.744,74.705,o),
(94.534,73.218,c),
(90.964,71.107,o),
(86.747,71.033,o),
(82.633,71.033,cs),
(73.032,71.033,o),
(53.352,71.23,o),
(53.352,83.532,cs),
(53.352,87.647,o),
(58.958,95.209,o),
(58.958,102.568,cs),
(58.958,107.503,o),
(56.507,112.528,o),
(50.229,112.528,cs),
(28.222,112.528,o),
(16.652,73.104,o),
(16.652,57.463,cs)
);
},
{
closed = 1;
nodes = (
(236.403,83.524,o),
(238.823,78.472,o),
(245.132,78.472,cs),
(253.096,78.472,o),
(260.65,86.651,o),
(264.845,91.977,cs),
(286.338,119.269,o),
(352.975,159.226,o),
(352.975,192.568,cs),
(352.975,197.476,o),
(350.555,202.528,o),
(344.246,202.528,cs),
(331.423,202.528,o),
(319.893,181.805,o),
(312.021,174.09,cs),
(290.686,153.179,o),
(236.403,118.662,o),
(236.403,88.432,cs)
);
},
{
closed = 1;
nodes = (
(282.249,103.449,l),
(282.249,77.295,o),
(277.614,51.327,o),
(277.614,25.087,cs),
(277.614,19.071,o),
(277.639,6.472,o),
(287.293,6.472,cs),
(301.964,6.472,o),
(315.807,30.767,o),
(315.222,42.372,cs),
(314.968,47.416,o),
(314.501,52.428,o),
(314.501,57.483,cs),
(314.501,81.186,o),
(318.942,104.652,o),
(318.942,128.394,cs),
(318.942,134.802,o),
(320.628,148.528,o),
(309.852,148.528,cs),
(294.868,148.528,o),
(281.61,124.338,o),
(281.922,112.628,cs)
);
},
{
closed = 1;
nodes = (
(388.402,134.469,o),
(401.793,157.549,o),
(401.793,169.568,cs),
(401.793,176.581,o),
(387.285,192.531,o),
(379.313,192.531,cs),
(364.072,192.531,o),
(350.681,169.451,o),
(350.681,157.432,cs),
(350.681,153.993,o),
(351.464,151.466,o),
(354.163,148.976,cs),
(357.701,145.712,o),
(368.474,134.469,o),
(373.161,134.469,cs)
);
},
{
closed = 1;
nodes = (
(334.039,11.497,o),
(336.49,6.472,o),
(342.768,6.472,cs),
(355.853,6.472,o),
(367.988,26.232,o),
(370.176,36.299,cs),
(376.584,65.776,o),
(388.479,98.637,o),
(388.479,128.568,cs),
(388.479,133.503,o),
(386.029,138.528,o),
(379.75,138.528,cs),
(365.793,138.528,o),
(353.222,116.803,o),
(351.91,105.981,cs),
(348.955,81.606,o),
(334.039,33.829,o),
(334.039,16.432,cs)
);
},
{
closed = 1;
nodes = (
(453.813,86.387,o),
(456.352,74.404,o),
(456.352,62.291,cs),
(456.352,49.615,o),
(456.929,46.934,o),
(441.923,44.97,cs),
(430.348,43.454,o),
(418.678,44.531,o),
(407.051,44.531,cs),
(391.819,44.531,o),
(378.419,21.456,o),
(378.419,9.432,cs),
(378.419,0.609,o),
(385.213,-1.329,o),
(393.629,-1.329,cs),
(410.296,-1.329,o),
(428.602,-0.935,o),
(444.208,4.862,cs),
(473.886,15.886,o),
(493.055,56.956,o),
(493.055,84.339,cs),
(493.055,117.157,o),
(491.025,197.077,o),
(458.305,215.419,cs),
(454.203,217.718,o),
(447.915,221.528,o),
(442.992,221.528,cs),
(428.368,221.528,o),
(415.032,197.904,o),
(415.032,186.432,cs),
(415.032,175.096,o),
(431.888,173.956,o),
(438.884,164.943,cs),
(448.247,152.88,o),
(453.813,113.792,o),
(453.813,98.501,cs)
);
}
);
width = 480;
}
);
unicode = 63743;
},
{
glyphname = radical;
layers = (
{
guides = (
{
angle = 90;
position = "{60, 0}";
},
{
position = "{0, 420}";
},
{
angle = 90;
position = "{420, 0}";
},
{
position = "{0, 60}";
},
{
angle = 90;
position = "{240, 0}";
},
{
angle = 90;
position = "{210, 0}";
},
{
angle = 90;
position = "{270, 0}";
},
{
position = "{0, 240}";
},
{
position = "{0, 270}";
},
{
position = "{0, 210}";
},
{
position = "{0, 480}";
},
{
angle = 90;
position = "{-60, 0}";
}
);
layerId = "F9FA6E1A-C3C7-41E3-A510-E095624E106C";
shapes = (
{
closed = 1;
nodes = (
(81,210,l),
(210,84,l),
(210,480,l),
(270,480,l),
(270,0,l),
(210,0,l),
(82,127,l),
(42,87,l),
(0,129,l)
);
}
);
width = 330;
}
);
unicode = 8730;
},
{
glyphname = Lslash;
layers = (
{
guides = (
{
position = "{0, 420}";
},
{
position = "{0, 60}";
},
{
angle = 90;
position = "{480, 0}";
},
{
angle = 90;
position = "{240, 0}";
},
{
angle = 90;
position = "{209, 0}";
},
{
angle = 90;
position = "{270, 0}";
},
{
angle = 90;
position = "{210, 0}";
},
{
position = "{0, 420}";
},
{
angle = 90;
position = "{570, 0}";
},
{
position = "{0, 60}";
},
{
angle = 90;
position = "{390, 0}";
},
{
angle = 90;
position = "{360, 0}";
},
{
angle = 90;
position = "{420, 0}";
},
{
position = "{0, 0}";
},
{
position = "{0, -60}";
},
{
position = "{0, 480}";
},
{
position = "{0, 210}";
}
);
layerId = "F9FA6E1A-C3C7-41E3-A510-E095624E106C";
shapes = (
{
closed = 1;
nodes = (
(-90,102,l),
(138,329,l),
(180,329,l),
(180,287,l),
(-48,59,l),
(-90,59,l)
);
},
{
alignment = -1;
ref = L;
}
);
width = 540;
}
);
unicode = 321;
},
{
glyphname = lslash;
layers = (
{
guides = (
{
position = "{0, 420}";
},
{
position = "{0, 60}";
},
{
position = "{0, 120}";
},
{
position = "{0, 480}";
},
{
position = "{0, 270}";
},
{
angle = 90;
position = "{0, 0}";
},
{
position = "{0, 420}";
},
{
angle = 90;
position = "{360, 0}";
},
{
position = "{0, 60}";
},
{
angle = 90;
position = "{180, 0}";
},
{
angle = 90;
position = "{150, 0}";
},
{
angle = 90;
position = "{210, 0}";
},
{
position = "{0, 0}";
},
{
position = "{0, -60}";
},
{
position = "{0, 480}";
},
{
position = "{0, 210}";
}
);
layerId = "F9FA6E1A-C3C7-41E3-A510-E095624E106C";
shapes = (
{
closed = 1;
nodes = (
(-90,163,l),
(108,360,l),
(150,360,l),
(150,318,l),
(-48,120,l),
(-90,120,l)
);
},
{
alignment = -1;
ref = l;
}
);
width = 120;
}
);
unicode = 322;
},
{
glyphname = macronmod;
layers = (
{
guides = (
{
position = "{0, 270}";
}
);
layerId = "F9FA6E1A-C3C7-41E3-A510-E095624E106C";
shapes = (
{
closed = 1;
nodes = (
(210,420,l),
(0,420,l),
(0,480,l),
(210,480,l)
);
}
);
width = 270;
}
);
unicode = 713;
},
{
glyphname = divisionslash;
layers = (
{
guides = (
{
position = "{0, 480}";
}
);
layerId = "F9FA6E1A-C3C7-41E3-A510-E095624E106C";
shapes = (
{
closed = 1;
nodes = (
(0,43,l),
(438,480,l),
(480,480,l),
(480,438,l),
(42,0,l),
(0,0,l)
);
}
);
width = 540;
}
);
unicode = 8725;
},
{
glyphname = bulletoperator;
layers = (
{
guides = (
{
position = "{0, 420}";
},
{
position = "{0, 60}";
},
{
position = "{0, 240}";
}
);
layerId = "F9FA6E1A-C3C7-41E3-A510-E095624E106C";
shapes = (
{
closed = 1;
nodes = (
(0.524,193.482,l),
(90.62,193.482,l),
(90.62,283.578,l),
(0.524,283.578,l)
);
}
);
width = 181;
}
);
unicode = 8729;
},
{
glyphname = Scedilla;
layers = (
{
guides = (
{
angle = 90;
position = "{60, 0}";
},
{
position = "{0, 420}";
},
{
angle = 90;
position = "{420, 0}";
},
{
position = "{0, 60}";
},
{
angle = 90;
position = "{240, 0}";
},
{
angle = 90;
position = "{210, 0}";
},
{
angle = 90;
position = "{270, 0}";
},
{
position = "{0, 240}";
},
{
position = "{0, 270}";
},
{
position = "{0, 210}";
}
);
layerId = "F9FA6E1A-C3C7-41E3-A510-E095624E106C";
shapes = (
{
closed = 1;
nodes = (
(480,360,l),
(420,360,l),
(420,420,l),
(270,420,l),
(270,480,l),
(480,480,l)
);
},
{
closed = 1;
nodes = (
(60,270,l),
(60,420,l),
(210,420,l),
(210,480,l),
(0,480,l),
(0,270,l)
);
},
{
closed = 1;
nodes = (
(420,60,l),
(420,210,l),
(480,210,l),
(480,0,l),
(270,0,l),
(270,-37,l),
(330,-95,l),
(330,-121,l),
(270,-180,l),
(210,-180,l),
(210,-120,l),
(246,-120,l),
(258,-108,l),
(210,-60,l),
(210,0,l),
(0,0,l),
(0,120,l),
(60,120,l),
(60,60,l)
);
},
{
closed = 1;
nodes = (
(60,270,l),
(420,270,l),
(420,210,l),
(60,210,l)
);
}
);
width = 540;
}
);
unicode = 350;
},
{
glyphname = Lcaron;
layers = (
{
guides = (
{
position = "{0, 420}";
},
{
position = "{0, 60}";
},
{
angle = 90;
position = "{480, 0}";
},
{
angle = 90;
position = "{240, 0}";
},
{
angle = 90;
position = "{209, 0}";
},
{
angle = 90;
position = "{270, 0}";
},
{
position = "{0, 620}";
},
{
position = "{0, 260}";
}
);
layerId = "F9FA6E1A-C3C7-41E3-A510-E095624E106C";
shapes = (
{
closed = 1;
nodes = (
(287,480,l),
(209,402,l),
(209,360,l),
(252,360,l),
(329,438,l)
);
},
{
alignment = -1;
ref = L;
}
);
width = 540;
}
);
unicode = 317;
},
{
glyphname = IJ;
layers = (
{
guides = (
{
position = "{0, 420}";
},
{
position = "{0, 60}";
},
{
angle = 90;
position = "{480, 0}";
},
{
angle = 90;
position = "{240, 0}";
},
{
angle = 90;
position = "{210, 0}";
},
{
angle = 90;
position = "{270, 0}";
},
{
position = "{0, 480}";
}
);
layerId = "F9FA6E1A-C3C7-41E3-A510-E095624E106C";
shapes = (
{
closed = 1;
nodes = (
(270,60,l),
(420,60,l),
(420,420,l),
(360,420,l),
(360,480,l),
(480,480,l),
(480,0,l),
(210,0,l),
(210,180,l),
(270,180,l)
);
},
{
closed = 1;
nodes = (
(0,480,l),
(180,480,l),
(180,420,l),
(120,420,l),
(120,60,l),
(180,60,l),
(180,0,l),
(0,0,l),
(0,60,l),
(60,60,l),
(60,420,l),
(0,420,l)
);
}
);
width = 540;
}
);
unicode = 306;
},
{
glyphname = longs_t;
layers = (
{
guides = (
{
position = "{0, 420}";
},
{
position = "{0, 60}";
},
{
position = "{0, 120}";
},
{
position = "{0, 480}";
},
{
position = "{0, 270}";
}
);
layerId = "F9FA6E1A-C3C7-41E3-A510-E095624E106C";
shapes = (
{
closed = 1;
nodes = (
(0,0,l),
(60,0,l),
(60,420,l),
(180,420,l),
(180,480,l),
(0,480,l)
);
},
{
alignment = -1;
pos = (180,0);
ref = t;
}
);
width = 300;
}
);
unicode = 64261;
},
{
glyphname = lcaron;
layers = (
{
guides = (
{
position = "{0, 420}";
},
{
position = "{0, 60}";
},
{
position = "{0, 120}";
},
{
position = "{0, 480}";
},
{
position = "{0, 270}";
},
{
position = "{0, 620}";
},
{
position = "{0, 260}";
},
{
position = "{0, 320}";
},
{
position = "{0, 680}";
},
{
position = "{0, 470}";
},
{
position = "{0, 440}";
},
{
angle = 90;
position = "{135, 0}";
},
{
angle = 90;
position = "{269, 0}";
},
{
angle = 90;
position = "{1, 0}";
},
{
position = "{0, 504}";
}
);
layerId = "F9FA6E1A-C3C7-41E3-A510-E095624E106C";
shapes = (
{
closed = 1;
nodes = (
(168,480,l),
(90,402,l),
(90,360,l),
(133,360,l),
(210,438,l)
);
},
{
alignment = -1;
ref = l;
}
);
width = 210;
}
);
unicode = 318;
},
{
glyphname = jcircumflex;
layers = (
{
guides = (
{
angle = 90;
position = "{60, 0}";
},
{
position = "{0, 420}";
},
{
angle = 90;
position = "{420, 0}";
},
{
position = "{0, 60}";
},
{
angle = 90;
position = "{240, 0}";
},
{
angle = 90;
position = "{210, 0}";
},
{
angle = 90;
position = "{270, 0}";
},
{
position = "{0, 240}";
},
{
position = "{0, 270}";
},
{
position = "{0, 210}";
},
{
position = "{0, 420}";
},
{
position = "{0, 60}";
},
{
position = "{0, 120}";
},
{
position = "{0, 480}";
},
{
position = "{0, 270}";
},
{
position = "{0, 240}";
},
{
angle = 90;
position = "{60, 0}";
},
{
angle = 90;
position = "{194, 0}";
},
{
angle = 90;
position = "{0, 0}";
},
{
position = "{0, 304}";
}
);
layerId = "F9FA6E1A-C3C7-41E3-A510-E095624E106C";
shapes = (
{
closed = 1;
nodes = (
(-60,-180,l),
(60,-180,l),
(60,270,l),
(0,270,l),
(0,-120,l),
(-60,-120,l)
);
},
{
alignment = -1;
pos = (-106,-1);
ref = circumflex;
}
);
width = 120;
}
);
unicode = 309;
},
{
glyphname = dcaron;
layers = (
{
guides = (
{
angle = 90;
position = "{60, 0}";
},
{
position = "{0, 420}";
},
{
angle = 90;
position = "{420, 0}";
},
{
position = "{0, 60}";
},
{
angle = 90;
position = "{240, 0}";
},
{
angle = 90;
position = "{210, 0}";
},
{
angle = 90;
position = "{270, 0}";
},
{
position = "{0, 240}";
},
{
position = "{0, 270}";
},
{
position = "{0, 210}";
},
{
position = "{0, 620}";
},
{
position = "{0, 260}";
},
{
position = "{0, 320}";
},
{
position = "{0, 680}";
},
{
position = "{0, 470}";
},
{
position = "{0, 440}";
},
{
angle = 90;
position = "{345, 0}";
},
{
angle = 90;
position = "{479, 0}";
},
{
position = "{0, 504}";
}
);
layerId = "F9FA6E1A-C3C7-41E3-A510-E095624E106C";
shapes = (
{
closed = 1;
nodes = (
(438,480,l),
(360,402,l),
(360,360,l),
(403,360,l),
(480,438,l)
);
},
{
alignment = -1;
ref = d;
}
);
width = 540;
}
);
unicode = 271;
},
{
glyphname = kgreenlandic;
layers = (
{
guides = (
{
angle = 90;
position = "{60, 0}";
},
{
position = "{0, 420}";
},
{
angle = 90;
position = "{420, 0}";
},
{
position = "{0, 60}";
},
{
angle = 90;
position = "{240, 0}";
},
{
angle = 90;
position = "{210, 0}";
},
{
angle = 90;
position = "{270, 0}";
},
{
position = "{0, 240}";
},
{
position = "{0, 270}";
},
{
position = "{0, 210}";
}
);
layerId = "F9FA6E1A-C3C7-41E3-A510-E095624E106C";
shapes = (
{
closed = 1;
nodes = (
(0,0,l),
(60,0,l),
(60,167,l),
(228,0,l),
(228,0,o),
(270,0,o),
(270,0,c),
(270,42,l),
(102,210,l),
(210,210,l),
(210,150,l),
(270,150,l),
(270,270,l),
(0,270,l)
);
}
);
width = 330;
}
);
unicode = 312;
},
{
glyphname = Dcroat;
layers = (
{
guides = (
{
angle = 90;
position = "{60, 0}";
},
{
position = "{0, 420}";
},
{
angle = 90;
position = "{420, 0}";
},
{
position = "{0, 60}";
},
{
angle = 90;
position = "{240, 0}";
},
{
angle = 90;
position = "{210, 0}";
},
{
angle = 90;
position = "{270, 0}";
},
{
position = "{0, 240}";
},
{
position = "{0, 270}";
},
{
position = "{0, 210}";
},
{
position = "{0, 320}";
},
{
angle = 90;
position = "{-60, 0}";
}
);
layerId = "F9FA6E1A-C3C7-41E3-A510-E095624E106C";
shapes = (
{
closed = 1;
nodes = (
(270,420,l),
(270,480,l),
(420,480,l),
(420,420,l)
);
},
{
closed = 1;
nodes = (
(420,420,l),
(480,420,l),
(480,0,l),
(270,0,l),
(270,60,l),
(420,60,l)
);
},
{
closed = 1;
nodes = (
(0,210,l),
(-60,210,l),
(-60,270,l),
(0,270,l),
(0,480,l),
(210,480,l),
(210,420,l),
(60,420,l),
(60,270,l),
(120,270,l),
(120,210,l),
(60,210,l),
(60,60,l),
(210,60,l),
(210,0,l),
(0,0,l)
);
}
);
width = 540;
}
);
unicode = 272;
},
{
glyphname = tcaron;
layers = (
{
guides = (
{
position = "{0, 420}";
},
{
position = "{0, 60}";
},
{
position = "{0, 120}";
},
{
position = "{0, 480}";
},
{
position = "{0, 270}";
},
{
position = "{0, 620}";
},
{
position = "{0, 260}";
},
{
position = "{0, 320}";
},
{
position = "{0, 680}";
},
{
position = "{0, 470}";
},
{
position = "{0, 440}";
},
{
angle = 90;
position = "{135, 0}";
},
{
angle = 90;
position = "{269, 0}";
},
{
angle = 90;
position = "{1, 0}";
},
{
position = "{0, 504}";
}
);
layerId = "F9FA6E1A-C3C7-41E3-A510-E095624E106C";
shapes = (
{
closed = 1;
nodes = (
(227,480,l),
(149,402,l),
(149,360,l),
(192,360,l),
(269,438,l)
);
},
{
alignment = -1;
ref = t;
}
);
width = 329;
}
);
unicode = 357;
},
{
glyphname = longs;
layers = (
{
guides = (
{
position = "{0, 420}";
},
{
position = "{0, 60}";
},
{
position = "{0, 120}";
},
{
position = "{0, 480}";
},
{
position = "{0, 270}";
}
);
layerId = "F9FA6E1A-C3C7-41E3-A510-E095624E106C";
shapes = (
{
closed = 1;
nodes = (
(120,480,l),
(120,420,l),
(60,420,l),
(60,0,l),
(0,0,l),
(0,480,l)
);
}
);
width = 180;
}
);
unicode = 383;
},
{
glyphname = uni0237;
layers = (
{
guides = (
{
angle = 90;
position = "{60, 0}";
},
{
position = "{0, 420}";
},
{
angle = 90;
position = "{420, 0}";
},
{
position = "{0, 60}";
},
{
angle = 90;
position = "{240, 0}";
},
{
angle = 90;
position = "{210, 0}";
},
{
angle = 90;
position = "{270, 0}";
},
{
position = "{0, 240}";
},
{
position = "{0, 270}";
},
{
position = "{0, 210}";
}
);
layerId = "F9FA6E1A-C3C7-41E3-A510-E095624E106C";
shapes = (
{
closed = 1;
nodes = (
(-60,-180,l),
(60,-180,l),
(60,270,l),
(0,270,l),
(0,-120,l),
(-60,-120,l)
);
}
);
width = 120;
}
);
unicode = 567;
},
{
glyphname = eth;
layers = (
{
guides = (
{
angle = 90;
position = "{60, 0}";
},
{
position = "{0, 420}";
},
{
position = "{0, 60}";
},
{
angle = 90;
position = "{240, 0}";
},
{
angle = 90;
position = "{210, 0}";
},
{
angle = 90;
position = "{270, 0}";
},
{
position = "{0, 240}";
},
{
position = "{0, 270}";
},
{
position = "{0, 210}";
},
{
position = "{0, 480}";
}
);
layerId = "F9FA6E1A-C3C7-41E3-A510-E095624E106C";
shapes = (
{
closed = 1;
nodes = (
(60,210,l),
(0,210,l),
(0,0,l),
(270,0,l),
(270,252,l),
(147,375,l),
(210,438,l),
(210,480,l),
(167,480,l),
(105,418,l),
(43,480,l),
(0,480,l),
(0,438,l),
(63,375,l),
(0,312,l),
(0,270,l),
(42,270,l),
(105,333,l),
(210,228,l),
(210,60,l),
(60,60,l)
);
}
);
width = 330;
}
);
unicode = 240;
},
{
glyphname = uni2113;
layers = (
{
guides = (
{
position = "{0, 420}";
},
{
position = "{0, 60}";
},
{
position = "{0, 120}";
},
{
position = "{0, 480}";
},
{
position = "{0, 270}";
}
);
layerId = "F9FA6E1A-C3C7-41E3-A510-E095624E106C";
shapes = (
{
closed = 1;
nodes = (
(60,60,l),
(60,480,l),
(0,480,l),
(0,0,l),
(120,0,l),
(120,60,l)
);
}
);
width = 180;
}
);
unicode = 8467;
},
{
glyphname = perpendicular;
layers = (
{
guides = (
{
angle = 90;
position = "{60, 0}";
},
{
position = "{0, 420}";
},
{
angle = 90;
position = "{420, 0}";
},
{
position = "{0, 60}";
},
{
angle = 90;
position = "{240, 0}";
},
{
angle = 90;
position = "{210, 0}";
},
{
angle = 90;
position = "{270, 0}";
},
{
position = "{0, 0}";
},
{
position = "{0, -60}";
}
);
layerId = "F9FA6E1A-C3C7-41E3-A510-E095624E106C";
shapes = (
{
closed = 1;
nodes = (
(480,60,l),
(480,0,l),
(0,0,l),
(0,60,l),
(210,60,l),
(210,480,l),
(270,480,l),
(270,60,l)
);
}
);
width = 540;
}
);
unicode = 10178;
},
{
glyphname = existential;
layers = (
{
guides = (
{
angle = 90;
position = "{60, 0}";
},
{
position = "{0, 420}";
},
{
angle = 90;
position = "{420, 0}";
},
{
position = "{0, 60}";
},
{
angle = 90;
position = "{240, 0}";
},
{
angle = 90;
position = "{210, 0}";
},
{
angle = 90;
position = "{270, 0}";
},
{
position = "{0, 240}";
},
{
position = "{0, 270}";
},
{
position = "{0, 210}";
}
);
layerId = "F9FA6E1A-C3C7-41E3-A510-E095624E106C";
shapes = (
{
closed = 1;
nodes = (
(480,480,l),
(480,0,l),
(0,0,l),
(0,60,l),
(420,60,l),
(420,210,l),
(0,210,l),
(0,270,l),
(420,270,l),
(420,420,l),
(0,420,l),
(0,480,l)
);
}
);
width = 540;
}
);
unicode = 8707;
},
{
glyphname = suchthat;
layers = (
{
guides = (
{
angle = 90;
position = "{60, 0}";
},
{
position = "{0, 420}";
},
{
angle = 90;
position = "{420, 0}";
},
{
position = "{0, 60}";
},
{
angle = 90;
position = "{240, 0}";
},
{
angle = 90;
position = "{210, 0}";
},
{
angle = 90;
position = "{270, 0}";
},
{
position = "{0, 240}";
},
{
position = "{0, 270}";
},
{
position = "{0, 210}";
}
);
layerId = "F9FA6E1A-C3C7-41E3-A510-E095624E106C";
shapes = (
{
closed = 1;
nodes = (
(420,420,l),
(480,420,l),
(480,60,l),
(420,60,l),
(420,0,l),
(0,0,l),
(0,60,l),
(420,60,l),
(420,210,l),
(0,210,l),
(0,270,l),
(420,270,l),
(420,420,l),
(0,420,l),
(0,480,l),
(420,480,l)
);
}
);
width = 540;
}
);
unicode = 8715;
},
{
glyphname = element;
layers = (
{
guides = (
{
angle = 90;
position = "{60, 0}";
},
{
position = "{0, 420}";
},
{
angle = 90;
position = "{420, 0}";
},
{
position = "{0, 60}";
},
{
angle = 90;
position = "{240, 0}";
},
{
angle = 90;
position = "{210, 0}";
},
{
angle = 90;
position = "{270, 0}";
},
{
position = "{0, 240}";
},
{
position = "{0, 270}";
},
{
position = "{0, 210}";
}
);
layerId = "F9FA6E1A-C3C7-41E3-A510-E095624E106C";
shapes = (
{
closed = 1;
nodes = (
(60,420,l),
(60,480,l),
(480,480,l),
(480,420,l),
(60,420,l),
(60,270,l),
(480,270,l),
(480,210,l),
(60,210,l),
(60,60,l),
(480,60,l),
(480,0,l),
(60,0,l),
(60,60,l),
(0,60,l),
(0,420,l)
);
}
);
width = 540;
}
);
unicode = 8712;
},
{
glyphname = propersubset;
layers = (
{
guides = (
{
angle = 90;
position = "{60, 0}";
},
{
position = "{0, 420}";
},
{
angle = 90;
position = "{420, 0}";
},
{
position = "{0, 60}";
},
{
angle = 90;
position = "{240, 0}";
},
{
angle = 90;
position = "{210, 0}";
},
{
angle = 90;
position = "{270, 0}";
},
{
position = "{0, 240}";
},
{
position = "{0, 270}";
},
{
position = "{0, 210}";
}
);
layerId = "F9FA6E1A-C3C7-41E3-A510-E095624E106C";
shapes = (
{
closed = 1;
nodes = (
(60,60,l),
(480,60,l),
(480,0,l),
(60,0,l),
(60,60,l),
(0,60,l),
(0,420,l),
(60,420,l),
(60,480,l),
(480,480,l),
(480,420,l),
(60,420,l)
);
}
);
width = 540;
}
);
unicode = 8834;
},
{
glyphname = union;
layers = (
{
guides = (
{
angle = 90;
position = "{60, 0}";
},
{
position = "{0, 420}";
},
{
angle = 90;
position = "{420, 0}";
},
{
position = "{0, 60}";
},
{
angle = 90;
position = "{240, 0}";
},
{
angle = 90;
position = "{210, 0}";
},
{
angle = 90;
position = "{270, 0}";
},
{
position = "{0, 240}";
},
{
position = "{0, 270}";
},
{
position = "{0, 210}";
}
);
layerId = "F9FA6E1A-C3C7-41E3-A510-E095624E106C";
shapes = (
{
closed = 1;
nodes = (
(420,60,l),
(420,480,l),
(480,480,l),
(480,60,l),
(420,60,l),
(420,0,l),
(60,0,l),
(60,60,l),
(0,60,l),
(0,480,l),
(60,480,l),
(60,60,l)
);
}
);
width = 540;
}
);
unicode = 8746;
},
{
glyphname = intersection;
layers = (
{
guides = (
{
angle = 90;
position = "{60, 0}";
},
{
position = "{0, 420}";
},
{
angle = 90;
position = "{420, 0}";
},
{
position = "{0, 60}";
},
{
angle = 90;
position = "{240, 0}";
},
{
angle = 90;
position = "{210, 0}";
},
{
angle = 90;
position = "{270, 0}";
},
{
position = "{0, 240}";
},
{
position = "{0, 270}";
},
{
position = "{0, 210}";
}
);
layerId = "F9FA6E1A-C3C7-41E3-A510-E095624E106C";
shapes = (
{
closed = 1;
nodes = (
(420,420,l),
(420,0,l),
(480,0,l),
(480,420,l),
(420,420,l),
(420,480,l),
(60,480,l),
(60,420,l),
(0,420,l),
(0,0,l),
(60,0,l),
(60,420,l)
);
}
);
width = 540;
}
);
unicode = 8745;
},
{
glyphname = similar;
layers = (
{
guides = (
{
position = "{0, 240}";
},
{
position = "{0, 294}";
},
{
position = "{0, 187}";
}
);
layerId = "F9FA6E1A-C3C7-41E3-A510-E095624E106C";
shapes = (
{
closed = 1;
nodes = (
(247,187,l),
(312,252,l),
(269,294,l),
(204,228,l),
(139,294,l),
(54,294,l),
(-11,230,l),
(31,187,l),
(96,253,l),
(161,187,l)
);
}
);
width = 360;
}
);
unicode = 8764;
},
{
glyphname = omega1;
layers = (
{
guides = (
{
angle = 90;
position = "{60, 0}";
},
{
position = "{0, 420}";
},
{
position = "{0, 60}";
},
{
angle = 90;
position = "{270, 0}";
},
{
angle = 90;
position = "{270, 0}";
},
{
position = "{0, 270}";
},
{
position = "{0, 210}";
}
);
layerId = "F9FA6E1A-C3C7-41E3-A510-E095624E106C";
shapes = (
{
closed = 1;
nodes = (
(135,0,l),
(135,60,l),
(195,60,l),
(195,0,l),
(330,0,l),
(330,270,l),
(0,270,l),
(0,0,l)
);
},
{
closed = 1;
nodes = (
(60,60,l),
(60,210,l),
(270,210,l),
(270,60,l),
(195,60,l),
(195,180,l),
(135,180,l),
(135,60,l)
);
}
);
width = 390;
}
);
unicode = 982;
},
{
glyphname = minute;
layers = (
{
guides = (
{
position = "{0, 420}";
},
{
position = "{0, 60}";
},
{
position = "{0, 480}";
}
);
layerId = "F9FA6E1A-C3C7-41E3-A510-E095624E106C";
shapes = (
{
closed = 1;
nodes = (
(78,480,l),
(0,402,l),
(0,360,l),
(43,360,l),
(120,438,l)
);
}
);
width = 180;
}
);
unicode = 8242;
},
{
glyphname = second;
layers = (
{
guides = (
{
position = "{0, 420}";
},
{
position = "{0, 60}";
},
{
position = "{0, 480}";
}
);
layerId = "F9FA6E1A-C3C7-41E3-A510-E095624E106C";
shapes = (
{
closed = 1;
nodes = (
(78,480,l),
(0,402,l),
(0,360,l),
(43,360,l),
(120,438,l)
);
},
{
closed = 1;
nodes = (
(198,480,l),
(120,402,l),
(120,360,l),
(163,360,l),
(240,438,l)
);
}
);
width = 300;
}
);
unicode = 8243;
},
{
glyphname = proportional;
layers = (
{
guides = (
{
angle = 90;
position = "{60, 0}";
},
{
position = "{0, 420}";
},
{
angle = 90;
position = "{420, 0}";
},
{
position = "{0, 60}";
},
{
angle = 90;
position = "{240, 0}";
},
{
angle = 90;
position = "{210, 0}";
showMeasurement = 1;
},
{
angle = 90;
position = "{270, 0}";
},
{
position = "{0, 240}";
},
{
position = "{0, 270}";
},
{
position = "{0, 210}";
},
{
position = "{0, 480}";
},
{
position = "{0, 105}";
}
);
layerId = "F9FA6E1A-C3C7-41E3-A510-E095624E106C";
shapes = (
{
closed = 1;
nodes = (
(480,165,l),
(480,105,l),
(270,105,l),
(270,165,l),
(210,165,l),
(210,105,l),
(60,105,l),
(0,105,l),
(0,165,l),
(0,375,l),
(210,375,l),
(210,315,l),
(270,315,l),
(270,375,l),
(480,375,l),
(480,315,l),
(270,315,l),
(270,165,l)
);
},
{
closed = 1;
nodes = (
(210,315,l),
(60,315,l),
(60,165,l),
(210,165,l)
);
}
);
width = 540;
}
);
unicode = 8733;
},
{
glyphname = aleph;
layers = (
{
guides = (
{
angle = 90;
position = "{30, 0}";
},
{
position = "{0, 420}";
},
{
angle = 90;
position = "{390, 0}";
},
{
position = "{0, 60}";
},
{
angle = 90;
position = "{210, 0}";
},
{
angle = 90;
position = "{180, 0}";
},
{
angle = 90;
position = "{240, 0}";
},
{
position = "{0, 240}";
},
{
position = "{0, 270}";
},
{
position = "{0, 210}";
},
{
position = "{0, 480}";
},
{
angle = 90;
position = "{0, 0}";
},
{
angle = 90;
position = "{150, 0}";
},
{
angle = 90;
position = "{120, 0}";
}
);
layerId = "F9FA6E1A-C3C7-41E3-A510-E095624E106C";
shapes = (
{
closed = 1;
nodes = (
(180,210,l),
(240,270,l),
(240,480,l),
(300,480,l),
(300,246,l),
(220,165,l),
(300,85,l),
(300,0,l),
(120,181,l),
(120,270,l),
(60,210,l),
(60,0,l),
(0,0,l),
(0,234,l),
(80,315,l),
(0,395,l),
(0,480,l),
(180,299,l)
);
}
);
width = 360;
}
);
unicode = 1488;
},
{
glyphname = equivalence;
layers = (
{
guides = (
{
position = "{0, 420}";
},
{
position = "{0, 60}";
},
{
position = "{0, 120}";
},
{
position = "{0, 480}";
},
{
position = "{0, 270}";
},
{
position = "{0, 240}";
}
);
layerId = "F9FA6E1A-C3C7-41E3-A510-E095624E106C";
shapes = (
{
closed = 1;
nodes = (
(300,210,l),
(300,270,l),
(0,270,l),
(0,210,l)
);
},
{
closed = 1;
nodes = (
(300,90,l),
(300,150,l),
(0,150,l),
(0,90,l)
);
},
{
closed = 1;
nodes = (
(300,330,l),
(300,390,l),
(0,390,l),
(0,330,l)
);
}
);
width = 360;
}
);
unicode = 8801;
},
{
glyphname = propersuperset;
layers = (
{
guides = (
{
angle = 90;
position = "{60, 0}";
},
{
position = "{0, 420}";
},
{
angle = 90;
position = "{420, 0}";
},
{
position = "{0, 60}";
},
{
angle = 90;
position = "{240, 0}";
},
{
angle = 90;
position = "{210, 0}";
},
{
angle = 90;
position = "{270, 0}";
},
{
position = "{0, 240}";
},
{
position = "{0, 270}";
},
{
position = "{0, 210}";
}
);
layerId = "F9FA6E1A-C3C7-41E3-A510-E095624E106C";
shapes = (
{
closed = 1;
nodes = (
(420,60,l),
(420,420,l),
(0,420,l),
(0,480,l),
(420,480,l),
(420,420,l),
(480,420,l),
(480,60,l),
(420,60,l),
(420,0,l),
(0,0,l),
(0,60,l)
);
}
);
width = 540;
}
);
unicode = 8835;
},
{
glyphname = reflexsuperset;
layers = (
{
guides = (
{
angle = 90;
position = "{60, 0}";
},
{
position = "{0, 420}";
},
{
angle = 90;
position = "{420, 0}";
},
{
position = "{0, 60}";
},
{
angle = 90;
position = "{240, 0}";
},
{
angle = 90;
position = "{210, 0}";
},
{
angle = 90;
position = "{270, 0}";
},
{
position = "{0, 240}";
},
{
position = "{0, 270}";
},
{
position = "{0, 210}";
},
{
position = "{0, 480}";
}
);
layerId = "F9FA6E1A-C3C7-41E3-A510-E095624E106C";
shapes = (
{
closed = 1;
nodes = (
(420,180,l),
(420,420,l),
(0,420,l),
(0,480,l),
(420,480,l),
(420,420,l),
(480,420,l),
(480,180,l),
(420,180,l),
(420,120,l),
(0,120,l),
(0,180,l)
);
},
{
closed = 1;
nodes = (
(0,60,l),
(480,60,l),
(480,0,l),
(0,0,l)
);
}
);
width = 540;
}
);
unicode = 8839;
},
{
glyphname = reflexsubset;
layers = (
{
guides = (
{
angle = 90;
position = "{60, 0}";
},
{
position = "{0, 420}";
},
{
angle = 90;
position = "{420, 0}";
},
{
position = "{0, 60}";
},
{
angle = 90;
position = "{240, 0}";
},
{
angle = 90;
position = "{210, 0}";
},
{
angle = 90;
position = "{270, 0}";
},
{
position = "{0, 240}";
},
{
position = "{0, 270}";
},
{
position = "{0, 210}";
},
{
position = "{0, 480}";
}
);
layerId = "F9FA6E1A-C3C7-41E3-A510-E095624E106C";
shapes = (
{
closed = 1;
nodes = (
(60,180,l),
(480,180,l),
(480,120,l),
(60,120,l),
(60,180,l),
(0,180,l),
(0,420,l),
(60,420,l),
(60,480,l),
(480,480,l),
(480,420,l),
(60,420,l)
);
},
{
closed = 1;
nodes = (
(480,60,l),
(480,0,l),
(0,0,l),
(0,60,l)
);
}
);
width = 540;
}
);
unicode = 8838;
},
{
glyphname = congruent;
layers = (
{
guides = (
{
position = "{0, 420}";
},
{
position = "{0, 60}";
},
{
position = "{0, 120}";
},
{
position = "{0, 480}";
},
{
position = "{0, 270}";
},
{
position = "{0, 240}";
}
);
layerId = "F9FA6E1A-C3C7-41E3-A510-E095624E106C";
shapes = (
{
closed = 1;
nodes = (
(300,210,l),
(300,270,l),
(0,270,l),
(0,210,l)
);
},
{
closed = 1;
nodes = (
(300,90,l),
(300,150,l),
(0,150,l),
(0,90,l)
);
},
{
closed = 1;
nodes = (
(247,308,l),
(312,373,l),
(269,415,l),
(204,349,l),
(139,415,l),
(54,415,l),
(-11,351,l),
(31,308,l),
(96,374,l),
(161,308,l)
);
}
);
width = 360;
}
);
unicode = 8773;
},
{
glyphname = logicaland;
layers = (
{
guides = (
{
position = "{0, 420}";
},
{
position = "{0, 60}";
},
{
position = "{0, 120}";
},
{
position = "{0, 480}";
},
{
position = "{0, 270}";
},
{
position = "{0, 240}";
},
{
angle = 90;
position = "{152, 0}";
},
{
angle = 90;
position = "{242, 0}";
}
);
layerId = "F9FA6E1A-C3C7-41E3-A510-E095624E106C";
shapes = (
{
closed = 1;
nodes = (
(199,360,l),
(2,163,l),
(45,121,l),
(199,276,l),
(355,120,l),
(398,162,l)
);
}
);
width = 460;
}
);
unicode = 8743;
},
{
glyphname = logicalor;
layers = (
{
guides = (
{
position = "{0, 420}";
},
{
position = "{0, 60}";
},
{
position = "{0, 120}";
},
{
position = "{0, 480}";
},
{
position = "{0, 270}";
},
{
position = "{0, 240}";
},
{
angle = 90;
position = "{152, 0}";
},
{
angle = 90;
position = "{242, 0}";
}
);
layerId = "F9FA6E1A-C3C7-41E3-A510-E095624E106C";
shapes = (
{
closed = 1;
nodes = (
(199,120,l),
(398,318,l),
(355,360,l),
(199,204,l),
(45,359,l),
(2,317,l)
);
}
);
width = 460;
}
);
unicode = 8744;
},
{
glyphname = phi1;
layers = (
{
guides = (
{
angle = 90;
position = "{60, 0}";
},
{
position = "{0, 420}";
},
{
angle = 90;
position = "{420, 0}";
},
{
position = "{0, 60}";
},
{
angle = 90;
position = "{240, 0}";
},
{
angle = 90;
position = "{210, 0}";
},
{
angle = 90;
position = "{270, 0}";
},
{
position = "{0, 240}";
},
{
position = "{0, 270}";
},
{
position = "{0, 210}";
},
{
position = "{0, -180}";
}
);
layerId = "F9FA6E1A-C3C7-41E3-A510-E095624E106C";
shapes = (
{
closed = 1;
nodes = (
(270,270,l),
(195,270,l),
(195,480,l),
(135,480,l),
(135,270,l),
(60,270,l),
(0,270,l),
(0,0,l),
(60,0,l),
(135,0,l),
(135,-120,l),
(135,-120,l),
(135,-180,l),
(195,-180,l),
(195,-120,l),
(195,-120,l),
(195,0,l),
(330,0,l),
(330,270,l)
);
},
{
closed = 1;
nodes = (
(270,210,l),
(270,60,l),
(195,60,l),
(195,210,l)
);
},
{
closed = 1;
nodes = (
(135,210,l),
(135,60,l),
(60,60,l),
(60,210,l)
);
}
);
width = 390;
}
);
unicode = 981;
},
{
glyphname = notsubset;
layers = (
{
guides = (
{
angle = 90;
position = "{60, 0}";
},
{
position = "{0, 420}";
},
{
angle = 90;
position = "{420, 0}";
},
{
position = "{0, 60}";
},
{
angle = 90;
position = "{240, 0}";
},
{
angle = 90;
position = "{210, 0}";
},
{
angle = 90;
position = "{270, 0}";
},
{
position = "{0, 240}";
},
{
position = "{0, 270}";
},
{
position = "{0, 210}";
}
);
layerId = "F9FA6E1A-C3C7-41E3-A510-E095624E106C";
shapes = (
{
closed = 1;
nodes = (
(60,60,l),
(480,60,l),
(480,0,l),
(60,0,l),
(60,60,l),
(0,60,l),
(0,420,l),
(60,420,l),
(60,480,l),
(480,480,l),
(480,420,l),
(60,420,l)
);
},
{
closed = 1;
nodes = (
(-42,0,l),
(480,523,l),
(522,523,l),
(522,481,l),
(0,-43,l),
(-42,-43,l)
);
}
);
width = 540;
}
);
unicode = 8836;
},
{
glyphname = notelement;
layers = (
{
guides = (
{
angle = 90;
position = "{60, 0}";
},
{
position = "{0, 420}";
},
{
angle = 90;
position = "{420, 0}";
},
{
position = "{0, 60}";
},
{
angle = 90;
position = "{240, 0}";
},
{
angle = 90;
position = "{210, 0}";
},
{
angle = 90;
position = "{270, 0}";
},
{
position = "{0, 240}";
},
{
position = "{0, 270}";
},
{
position = "{0, 210}";
}
);
layerId = "F9FA6E1A-C3C7-41E3-A510-E095624E106C";
shapes = (
{
closed = 1;
nodes = (
(60,420,l),
(60,480,l),
(480,480,l),
(480,420,l),
(60,420,l),
(60,270,l),
(480,270,l),
(480,210,l),
(60,210,l),
(60,60,l),
(480,60,l),
(480,0,l),
(60,0,l),
(60,60,l),
(0,60,l),
(0,420,l)
);
},
{
closed = 1;
nodes = (
(-42,0,l),
(480,523,l),
(522,523,l),
(522,481,l),
(0,-43,l),
(-42,-43,l)
);
}
);
width = 540;
}
);
unicode = 8713;
},
{
glyphname = angle;
layers = (
{
guides = (
{
angle = 90;
position = "{60, 0}";
},
{
position = "{0, 420}";
},
{
angle = 90;
position = "{420, 0}";
},
{
position = "{0, 60}";
},
{
angle = 90;
position = "{240, 0}";
},
{
angle = 90;
position = "{210, 0}";
},
{
angle = 90;
position = "{270, 0}";
}
);
layerId = "F9FA6E1A-C3C7-41E3-A510-E095624E106C";
shapes = (
{
closed = 1;
nodes = (
(480,0,l),
(0,0,l),
(0,43,l),
(438,480,l),
(480,480,l),
(480,438,l),
(102,60,l),
(480,60,l)
);
}
);
width = 540;
}
);
unicode = 8736;
},
{
glyphname = Upsilon1;
layers = (
{
guides = (
{
angle = 90;
position = "{60, 0}";
},
{
position = "{0, 420}";
},
{
angle = 90;
position = "{420, 0}";
},
{
position = "{0, 60}";
},
{
angle = 90;
position = "{240, 0}";
},
{
angle = 90;
position = "{210, 0}";
},
{
angle = 90;
position = "{270, 0}";
},
{
position = "{0, 240}";
},
{
position = "{0, 270}";
},
{
position = "{0, 210}";
}
);
layerId = "F9FA6E1A-C3C7-41E3-A510-E095624E106C";
shapes = (
{
closed = 1;
nodes = (
(438,480,l),
(240,282,l),
(42,480,l),
(0,480,l),
(0,437,l),
(210,228,l),
(210,0,l),
(270,0,l),
(270,228,l),
(480,438,l),
(480,480,l)
);
}
);
width = 540;
}
);
unicode = 978;
},
{
glyphname = asteriskmath;
layers = (
{
guides = (
{
position = "{0, 480}";
},
{
position = "{0, 330}";
},
{
position = "{0, 180}";
},
{
angle = 90;
position = "{300, 0}";
},
{
angle = 90;
position = "{150, 0}";
}
);
layerId = "F9FA6E1A-C3C7-41E3-A510-E095624E106C";
shapes = (
{
closed = 1;
nodes = (
(120,180,l),
(120,278,l),
(35,229,l),
(5,281,l),
(90,330,l),
(5,379,l),
(35,431,l),
(120,382,l),
(120,480,l),
(180,480,l),
(180,382,l),
(265,431,l),
(295,379,l),
(210,330,l),
(295,281,l),
(265,229,l),
(180,278,l),
(180,180,l)
);
}
);
width = 360;
}
);
unicode = 8727;
},
{
glyphname = theta1;
layers = (
{
guides = (
{
angle = 90;
position = "{60, 0}";
},
{
position = "{0, 420}";
},
{
angle = 90;
position = "{420, 0}";
},
{
position = "{0, 60}";
},
{
angle = 90;
position = "{240, 0}";
},
{
angle = 90;
position = "{210, 0}";
},
{
angle = 90;
position = "{270, 0}";
},
{
position = "{0, 240}";
},
{
position = "{0, 270}";
},
{
position = "{0, 210}";
},
{
position = "{0, 480}";
}
);
layerId = "F9FA6E1A-C3C7-41E3-A510-E095624E106C";
shapes = (
{
closed = 1;
nodes = (
(210,270,l),
(60,270,l),
(60,420,l),
(210,420,l)
);
},
{
closed = 1;
nodes = (
(60,150,l),
(0,150,l),
(0,0,l),
(210,0,l),
(270,0,l),
(270,60,l),
(270,210,l),
(330,210,l),
(330,270,l),
(270,270,l),
(270,480,l),
(60,480,l),
(0,480,l),
(0,420,l),
(0,210,l),
(210,210,l),
(210,60,l),
(60,60,l)
);
}
);
width = 390;
}
);
unicode = 977;
},
{
glyphname = gradient;
layers = (
{
guides = (
{
angle = 90;
position = "{60, 0}";
},
{
position = "{0, 420}";
},
{
angle = 90;
position = "{420, 0}";
},
{
position = "{0, 60}";
},
{
angle = 90;
position = "{240, 0}";
},
{
angle = 90;
position = "{210, 0}";
},
{
angle = 90;
position = "{270, 0}";
}
);
layerId = "F9FA6E1A-C3C7-41E3-A510-E095624E106C";
shapes = (
{
closed = 1;
nodes = (
(480,480,l),
(0,480,l),
(0,0,l),
(42,0,l),
(480,437,l)
);
},
{
closed = 1;
nodes = (
(378,420,l),
(60,102,l),
(60,420,l)
);
}
);
width = 540;
}
);
unicode = 8711;
},
{
glyphname = dotmath;
layers = (
{
guides = (
{
position = "{0, 420}";
},
{
position = "{0, 60}";
},
{
position = "{0, 210}";
}
);
layerId = "F9FA6E1A-C3C7-41E3-A510-E095624E106C";
shapes = (
{
closed = 1;
nodes = (
(0,210,l),
(60,210,l),
(60,270,l),
(0,270,l)
);
}
);
width = 120;
}
);
unicode = 8901;
},
{
glyphname = integraltp;
layers = (
{
guides = (
{
position = "{0, 420}";
},
{
position = "{0, 60}";
},
{
position = "{0, 120}";
},
{
position = "{0, 480}";
},
{
position = "{0, 270}";
}
);
layerId = "F9FA6E1A-C3C7-41E3-A510-E095624E106C";
shapes = (
{
closed = 1;
nodes = (
(120,480,l),
(120,420,l),
(60,420,l),
(60,-180,l),
(0,-180,l),
(0,480,l)
);
}
);
width = 180;
}
);
unicode = 8992;
},
